<svg xmlns="http://www.w3.org/2000/svg" width="131" height="43" fill="none"><path fill="url(#a)" d="M31.726 25.965a10.697 10.697 0 0 1-.816 4.12 10.715 10.715 0 0 1-2.332 3.491 10.714 10.714 0 0 1-3.493 2.332 10.7 10.7 0 0 1-4.11.818h-.052c-2.27 0-4.523-.74-6.349-2.085a10.816 10.816 0 0 1-4.368-8.672v-7.934a2.815 2.815 0 0 1 .83-2.001 2.824 2.824 0 0 1 3.998.002c.533.534.828 1.244.83 1.998v7.932a5.066 5.066 0 0 0 1.499 3.607 5.072 5.072 0 0 0 2.611 1.39c.991.197 2.01.096 2.945-.29a5.087 5.087 0 0 0 2.288-1.877c.564-.84.863-1.818.865-2.83V10.102a2.816 2.816 0 0 1 .828-2 2.828 2.828 0 0 1 4.611.917c.143.345.215.71.215 1.083v15.862zM9.429 14.425a5.077 5.077 0 0 0-1.497 3.609v15.863a2.81 2.81 0 0 1-.829 2c-1.068 1.07-2.932 1.07-4.001 0a2.813 2.813 0 0 1-.828-2V18.035a10.768 10.768 0 0 1 2.616-7.026 10.767 10.767 0 0 1 16.099-.218l.016-.019.015.057a10.746 10.746 0 0 1 2.314 4.085l.044.145c.281.968.423 1.969.424 2.975v7.931a2.832 2.832 0 0 1-1.745 2.612c-.337.14-.693.206-1.052.21v.005c-.014 0-.027-.004-.041-.004-.18 0-.361-.012-.541-.048a2.623 2.623 0 0 1-.305-.084v-.014c-.068-.022-.138-.033-.204-.06a2.832 2.832 0 0 1-1.745-2.613v-7.183h-.002v-.753a5.107 5.107 0 0 0-3.172-4.72 4.922 4.922 0 0 0-1.959-.383 5.078 5.078 0 0 0-3.607 1.496zm23.074-7.928a5.079 5.079 0 0 0-3.605-1.496h-.002a5.08 5.08 0 0 0-3.602 1.5 5.08 5.08 0 0 0-1.492 3.602v.573A13.051 13.051 0 0 0 8.689 5.744a12.987 12.987 0 0 0-6.295 4.766A12.986 12.986 0 0 0 0 18.034v15.863c0 1.363.531 2.644 1.495 3.608A5.067 5.067 0 0 0 5.103 39a5.07 5.07 0 0 0 3.608-1.495 5.069 5.069 0 0 0 1.495-3.608v-.569a13.056 13.056 0 0 0 15.108 4.928 12.985 12.985 0 0 0 6.293-4.766A12.986 12.986 0 0 0 34 25.97V10.101a5.08 5.08 0 0 0-1.497-3.605z"/><path fill="#fff" d="M45.153 33V10.171h4.804L59.4 26.766h.06V10.17h4.232V33h-4.714l-9.532-16.595h-.06V33h-4.232zm29.953.557a9 9 0 0 1-3.479-.693 8.757 8.757 0 0 1-2.876-1.897 9.726 9.726 0 0 1-1.882-2.635 8.845 8.845 0 0 1-.889-3.9c0-1.587.402-3.097 1.205-4.533a8.621 8.621 0 0 1 3.388-3.373c1.446-.813 2.957-1.22 4.533-1.22 1.586 0 3.097.402 4.532 1.205a8.497 8.497 0 0 1 3.343 3.343 9.271 9.271 0 0 1 1.19 4.608 9.277 9.277 0 0 1-.587 3.313 8.49 8.49 0 0 1-1.582 2.68c-.662.763-1.355 1.355-2.078 1.777a9.528 9.528 0 0 1-2.319.979 9.324 9.324 0 0 1-2.5.346zm0-3.765c1.435 0 2.62-.527 3.553-1.58.944-1.055 1.416-2.3 1.416-3.735 0-.964-.23-1.872-.693-2.726-.462-.863-1.089-1.526-1.882-1.988-.783-.471-1.576-.707-2.38-.707-.792 0-1.6.23-2.424.692a5.047 5.047 0 0 0-1.927 1.943c-.462.833-.693 1.757-.693 2.77 0 .995.231 1.908.693 2.741.462.834 1.084 1.476 1.867 1.928.793.442 1.616.663 2.47.663zM85.798 33V10.171h4.096v7.258c1.496-1.415 3.283-2.123 5.36-2.123 1.507 0 2.927.392 4.262 1.175 1.336.773 2.39 1.887 3.163 3.343.773 1.455 1.159 2.961 1.159 4.517 0 1.486-.361 2.992-1.084 4.518-.713 1.516-1.722 2.68-3.027 3.493-1.295.804-2.786 1.205-4.472 1.205-1.225 0-2.28-.206-3.163-.617-.873-.422-1.716-1.09-2.53-2.003V33h-3.764zm3.855-8.794c0 1.757.517 3.127 1.551 4.11 1.044.985 2.249 1.477 3.614 1.477 1.385 0 2.55-.497 3.494-1.491.953-.994 1.43-2.29 1.43-3.885 0-1.577-.487-2.862-1.46-3.855-.964-1.004-2.149-1.506-3.554-1.506a5 5 0 0 0-2.575.707 4.793 4.793 0 0 0-1.853 1.943c-.431.813-.647 1.646-.647 2.5zM105.766 33V10.171h4.096V33h-4.096zm23.673-6.716h-13.282c.412 1.154 1.024 2.028 1.838 2.62.823.592 1.817.889 2.981.889.914 0 1.677-.181 2.289-.543.612-.371 1.129-.918 1.551-1.641h4.322c-.281.783-.592 1.436-.934 1.958a9.75 9.75 0 0 1-1.927 2.093 8.235 8.235 0 0 1-2.44 1.4c-.873.331-1.902.497-3.087.497-2.861 0-5.155-1.064-6.882-3.192-1.355-1.687-2.032-3.67-2.032-5.948 0-1.687.396-3.248 1.189-4.684.793-1.445 1.893-2.56 3.298-3.343 1.416-.793 2.957-1.19 4.623-1.19 1.616 0 3.102.382 4.457 1.145a7.908 7.908 0 0 1 3.163 3.208 9.076 9.076 0 0 1 1.129 4.427c0 .763-.085 1.53-.256 2.304zm-3.945-3.313c-.251-1.295-.788-2.284-1.612-2.967-.823-.692-1.842-1.039-3.056-1.039-.904 0-1.697.201-2.38.603a4.962 4.962 0 0 0-1.686 1.641c-.291.462-.532 1.05-.723 1.762h9.457z"/><defs><linearGradient id="a" x1="-1.5" x2="33.805" y1="38.749" y2=".927" gradientUnits="userSpaceOnUse"><stop offset=".05" stop-color="#fff"/><stop offset=".38" stop-color="#A7B3FF"/><stop offset="1" stop-color="#74A4FF"/></linearGradient></defs></svg>