<svg viewBox="0 0 24 24" fill="none" xmlns="http://www.w3.org/2000/svg">
  <path d="M12 21.6016C6.475 21.6016 2 17.1266 2 11.6016C2 6.07656 6.475 1.60156 12 1.60156C17.525 1.60156 22 6.07656 22 11.6016C22 17.1266 17.525 21.6016 12 21.6016Z" fill="currentColor" stroke="currentColor" stroke-width="1.5"/>
  <path d="M10.75 16.6016C10.75 15.9112 11.3096 15.3516 12 15.3516C12.6904 15.3516 13.25 15.9112 13.25 16.6016C13.25 17.2919 12.6904 17.8516 12 17.8516C11.3096 17.8516 10.75 17.2919 10.75 16.6016Z" fill="white"/>
  <path d="M10.75 6.60156C10.75 5.91121 11.3096 5.35156 12 5.35156C12.6904 5.35156 13.25 5.91121 13.25 6.60156V11.6016C13.25 12.2919 12.6904 12.8516 12 12.8516C11.3096 12.8516 10.75 12.2919 10.75 11.6016V6.60156Z" fill="white"/>
</svg>
