<svg viewBox="0 0 24 24" fill="none" xmlns="http://www.w3.org/2000/svg">
<path d="M10.8545 12.6704C11.1139 13.0172 11.4448 13.3042 11.8249 13.5118C12.2049 13.7194 12.6252 13.8429 13.0571 13.8738C13.4891 13.9048 13.9226 13.8424 14.3284 13.6911C14.7341 13.5397 15.1026 13.3029 15.4088 12.9966L17.2208 11.1846C17.7709 10.615 18.0753 9.85209 18.0685 9.06024C18.0616 8.26838 17.744 7.51091 17.184 6.95097C16.6241 6.39102 15.8666 6.0734 15.0747 6.06652C14.2829 6.05964 13.52 6.36405 12.9504 6.91418L11.9115 7.94704" stroke="currentColor" stroke-linecap="round" stroke-linejoin="round"/>
<path d="M13.2707 11.4621C13.0113 11.1153 12.6804 10.8284 12.3003 10.6207C11.9203 10.4131 11.5 10.2896 11.0681 10.2587C10.6361 10.2278 10.2026 10.2901 9.79683 10.4414C9.39108 10.5928 9.02262 10.8296 8.71645 11.1359L6.90441 12.948C6.35428 13.5176 6.04987 14.2804 6.05675 15.0723C6.06364 15.8641 6.38125 16.6216 6.9412 17.1816C7.50115 17.7415 8.25862 18.0591 9.05047 18.066C9.84232 18.0729 10.6052 17.7685 11.1748 17.2183L12.2077 16.1855" stroke="currentColor" stroke-linecap="round" stroke-linejoin="round"/>
</svg>
