
<svg viewBox="0 0 24 24" fill="none" xmlns="http://www.w3.org/2000/svg">
<path fill-rule="evenodd" clip-rule="evenodd" d="M18 10C19.1047 10 20 10.8953 20 12C20 13.1047 19.1047 14 18 14C16.8953 14 16 13.1047 16 12C16 10.8953 16.8953 10 18 10ZM14 12C14 10.8953 13.1047 10 12 10C10.8953 10 10 10.8953 10 12C10 13.1047 10.8953 14 12 14C13.1047 14 14 13.1047 14 12ZM8 12C8 10.8953 7.10467 10 6 10C4.89533 10 4 10.8953 4 12C4 13.1047 4.89533 14 6 14C7.10467 14 8 13.1047 8 12Z" fill="currentColor"/>
</svg>
