<svg viewBox="0 0 24 24" fill="none" xmlns="http://www.w3.org/2000/svg">
<path fill-rule="evenodd" clip-rule="evenodd" d="M10 6C10 4.89533 10.8953 4 12 4C13.1047 4 14 4.89533 14 6C14 7.10467 13.1047 8 12 8C10.8953 8 10 7.10467 10 6ZM12 10C10.8953 10 10 10.8953 10 12C10 13.1047 10.8953 14 12 14C13.1047 14 14 13.1047 14 12C14 10.8953 13.1047 10 12 10ZM12 16C10.8953 16 10 16.8953 10 18C10 19.1047 10.8953 20 12 20C13.1047 20 14 19.1047 14 18C14 16.8953 13.1047 16 12 16Z" fill="currentColor"/>
</svg>
