<svg xmlns="http://www.w3.org/2000/svg" viewBox="0 0 24 24">
<path fill="none" stroke="currentColor" stroke-width-="1.5" stroke-linecap="round" stroke-linejoin="round" d="M12,22
	c5.6,0,10.2-4.6,10.2-10.2c0-5.6-4.6-10.2-10.2-10.2C6.4,1.6,1.8,6.2,1.8,11.8C1.8,17.4,6.4,22,12,22z"/>
<path fill="none" stroke="currentColor" stroke-width-="1.5" stroke-linecap="round" stroke-linejoin="round" d="M9,8.7
	c0.2-0.7,0.7-1.3,1.3-1.6c0.6-0.4,1.4-0.5,2.1-0.4c0.7,0.1,1.4,0.5,1.8,1C14.7,8.3,15,9,15,9.8c0,2-3.1,3.1-3.1,3.1"/>
<path fill="none" stroke="currentColor" stroke-width-="1.5" stroke-linecap="round" stroke-linejoin="round" d="M12,16.9L12,16.9"/>
</svg>
