<svg viewBox="0 0 24 24" fill="none" xmlns="http://www.w3.org/2000/svg">
<path d="M13.4375 3H6.875C6.37772 3 5.90081 3.17911 5.54917 3.49792C5.19754 3.81673 5 4.24913 5 4.7V18.3C5 18.7509 5.19754 19.1833 5.54917 19.5021C5.90081 19.8209 6.37772 20 6.875 20H18.125C18.6223 20 19.0992 19.8209 19.4508 19.5021C19.8025 19.1833 20 18.7509 20 18.3V8.95L13.4375 3Z" stroke="currentColor" stroke-width="1.5" stroke-linecap="round" stroke-linejoin="round"/>
<path d="M13 3L13.0763 9H19" stroke="currentColor" stroke-width="1.5" stroke-linecap="round" stroke-linejoin="round"/>
<path d="M11.5 18C13.9853 18 16 15.9853 16 13.5C16 11.0147 13.9853 9 11.5 9C9.01472 9 7 11.0147 7 13.5C7 15.9853 9.01472 18 11.5 18Z" stroke="currentColor" stroke-width="1.5" stroke-linecap="round" stroke-linejoin="round"/>
<path d="M17 21L14 17" stroke="currentColor" stroke-width="1.5" stroke-linecap="round" stroke-linejoin="round"/>
</svg>
