<svg viewBox="0 0 72 72" fill="none" xmlns="http://www.w3.org/2000/svg">
<path d="M48.0002 48L36.0002 36L24.0002 48" stroke="currentColor" stroke-width="3" stroke-linecap="round" stroke-linejoin="round"/>
<path d="M36 36V63" stroke="currentColor" stroke-width="3" stroke-linecap="round" stroke-linejoin="round"/>
<path d="M61.1699 55.1699C64.0959 53.5748 66.4074 51.0506 67.7395 47.9958C69.0716 44.941 69.3485 41.5296 68.5265 38.3C67.7045 35.0704 65.8303 32.2065 63.1999 30.1603C60.5694 28.1141 57.3325 27.0021 53.9999 26.9999H50.2199C49.3118 23.4877 47.6194 20.227 45.2697 17.4629C42.9201 14.6989 39.9744 12.5035 36.6542 11.0418C33.3339 9.58005 29.7255 8.89003 26.1002 9.0236C22.4749 9.15717 18.9271 10.1109 15.7234 11.8129C12.5197 13.515 9.74361 15.9213 7.60375 18.8507C5.46388 21.7801 4.01595 25.1566 3.36882 28.7261C2.72169 32.2957 2.8922 35.9655 3.86752 39.4597C4.84284 42.9539 6.59761 46.1815 8.99988 48.8999" stroke="currentColor" stroke-width="3" stroke-linecap="round" stroke-linejoin="round"/>
</svg>
