<svg xmlns="http://www.w3.org/2000/svg" xmlns:xlink="http://www.w3.org/1999/xlink" viewBox="0 0 1048 400" width="1048" height="400" preserveAspectRatio="xMidYMid meet" style="width: 100%; height: 100%; transform: translate3d(0px, 0px, 0px); content-visibility: visible;"><defs><clipPath id="__lottie_element_11"><rect width="1048" height="400" x="0" y="0"></rect></clipPath></defs><g clip-path="url(#__lottie_element_11)"><g transform="matrix(1,0,0,1,224,100.00000762939453)" opacity="1" style="display: block;"><g opacity="1" transform="matrix(1,0,0,1,-23.5049991607666,100.70099639892578)"><path fill="rgb(23,23,23)" fill-opacity="1" d=" M83.51699829101562,24.746000289916992 C85.85199737548828,17.059999465942383 87.1240005493164,8.913999557495117 87.1240005493164,0.47699999809265137 C87.1240005493164,-0.46000000834465027 87.08899688720703,-1.3799999952316284 87.05400085449219,-2.318000078201294 C53.54600143432617,-21.711999893188477 28.280000686645508,-63.26300048828125 17.70400047302246,-82.98100280761719 C11.98799991607666,-84.13999938964844 6.064000129699707,-84.73699951171875 0,-84.73699951171875 C-6.064000129699707,-84.73699951171875 -11.588000297546387,-84.15699768066406 -17.128999710083008,-83.08399963378906 C-21.85099983215332,-74.35800170898438 -29.46500015258789,-61.31999969482422 -39.46699905395508,-47.80500030517578 C-51.00199890136719,-32.21099853515625 -67.53900146484375,-13.565999984741211 -87.05400085449219,-2.249000072479248 C-87.08899688720703,-1.3459999561309814 -87.1240005493164,-0.4429999887943268 -87.1240005493164,0.47699999809265137 C-87.1240005493164,8.930999755859375 -85.85199737548828,17.0939998626709 -83.5,24.79800033569336 C-69.0199966430664,18.134000778198242 -55.88100051879883,8.265999794006348 -44.32899856567383,-2.86299991607666 C-52.57099914550781,16.20800018310547 -61.75400161743164,34.715999603271484 -71.31999969482422,49.38999938964844 C-66.16200256347656,56.582000732421875 -59.888999938964844,62.957000732421875 -52.762001037597656,68.27400207519531 C-42.30799865722656,53.310001373291016 -31.74799919128418,33.625999450683594 -21.15399932861328,9.305999755859375 C-24.899999618530273,34.32500076293945 -30.336999893188477,56.224998474121094 -38.178001403808594,77.10199737548828 C-30.4060001373291,80.81700134277344 -21.972999572753906,83.42500305175781 -13.104000091552734,84.73699951171875 C-7.493000030517578,70.72799682617188 -3.066999912261963,56.80400085449219 0.4180000126361847,38.6870002746582 C3.9210000038146973,56.736000061035156 8.36400032043457,70.6259994506836 13.975000381469727,84.58399963378906 C22.80900001525879,83.18599700927734 31.190000534057617,80.49400329589844 38.90999984741211,76.70999908447266 C31.329999923706055,56.582000732421875 25.99799919128418,35.483001708984375 22.233999252319336,11.196999549865723 C32.51499938964844,34.58000183105469 42.77799987792969,53.58300018310547 52.91899871826172,68.13800048828125 C60.04600143432617,62.803001403808594 66.3010025024414,56.39500045776367 71.44200134277344,49.18600082397461 C61.94499969482422,34.5629997253418 52.832000732421875,16.19099998474121 44.641998291015625,-2.74399995803833 C56.108001708984375,8.317000389099121 69.1240005493164,18.117000579833984 83.5,24.746000289916992 C83.5,24.746000289916992 83.51699829101562,24.746000289916992 83.51699829101562,24.746000289916992z"></path></g><g opacity="1" transform="matrix(1,0,0,1,-23.94300079345703,100.05699920654297)"><g opacity="1" transform="matrix(1,0,0,1,0,0)"><path fill="rgb(23,23,23)" fill-opacity="1" d=" M0,136.05599975585938 C-75.02200317382812,136.05599975585938 -136.05599975585938,75.02200317382812 -136.05599975585938,0 C-136.05599975585938,-75.02200317382812 -75.02200317382812,-136.05599975585938 0,-136.05599975585938 C75.02100372314453,-136.05599975585938 136.05599975585938,-75.02200317382812 136.05599975585938,0 C136.05599975585938,75.02200317382812 75.02100372314453,136.05599975585938 0,136.05599975585938z M0,-109.26000213623047 C-60.24599838256836,-109.26000213623047 -109.26000213623047,-60.24599838256836 -109.26000213623047,0 C-109.26000213623047,60.24599838256836 -60.24599838256836,109.26000213623047 0,109.26000213623047 C60.24599838256836,109.26000213623047 109.26000213623047,60.24599838256836 109.26000213623047,0 C109.26000213623047,-60.24599838256836 60.24599838256836,-109.26000213623047 0,-109.26000213623047z"></path></g></g></g><g transform="matrix(1,0,0,1,0,0)" opacity="1" style="display: block;"><g opacity="1" transform="matrix(1,0,0,1,871.1530151367188,219.33900451660156)"><path fill="rgb(23,23,23)" fill-opacity="1" d=" M40.26100158691406,28.459999084472656 C40.26100158691406,31.236000061035156 40.590999603271484,33.220001220703125 41.25199890136719,34.40999984741211 C42.04600143432617,35.599998474121094 43.5,36.19499969482422 45.61600112915039,36.19499969482422 C46.277000427246094,36.19499969482422 47.06999969482422,36.19499969482422 47.99599838256836,36.19499969482422 C48.92100143432617,36.19499969482422 49.979000091552734,36.0620002746582 51.16899871826172,35.79800033569336 C51.16899871826172,35.79800033569336 51.16899871826172,51.465999603271484 51.16899871826172,51.465999603271484 C50.375,51.72999954223633 49.31800079345703,51.994998931884766 47.99599838256836,52.25899887084961 C46.805999755859375,52.65599822998047 45.54899978637695,52.986000061035156 44.22700119018555,53.250999450683594 C42.904998779296875,53.51499938964844 41.58300018310547,53.7130012512207 40.26100158691406,53.84600067138672 C38.93899917602539,53.97800064086914 37.814998626708984,54.04399871826172 36.888999938964844,54.04399871826172 C32.26100158691406,54.04399871826172 28.427000045776367,53.11800003051758 25.38599967956543,51.266998291015625 C22.344999313354492,49.41600036621094 20.36199951171875,46.176998138427734 19.43600082397461,41.54899978637695 C14.940999984741211,45.9119987487793 9.387999534606934,49.08599853515625 2.7769999504089355,51.069000244140625 C-3.7019999027252197,53.051998138427734 -9.982000350952148,54.04399871826172 -16.06399917602539,54.04399871826172 C-20.691999435424805,54.04399871826172 -25.121000289916992,53.382999420166016 -29.351999282836914,52.06100082397461 C-33.58300018310547,50.87099838256836 -37.35200119018555,49.08700180053711 -40.65700149536133,46.707000732421875 C-43.83000183105469,44.19499969482422 -46.409000396728516,41.08599853515625 -48.391998291015625,37.38399887084961 C-50.24300003051758,33.54999923706055 -51.16899871826172,29.121000289916992 -51.16899871826172,24.09600067138672 C-51.16899871826172,17.75 -50.04499816894531,12.593999862670898 -47.797000885009766,8.628000259399414 C-45.41699981689453,4.660999774932861 -42.375999450683594,1.5529999732971191 -38.67399978637695,-0.6949999928474426 C-34.84000015258789,-2.941999912261963 -30.608999252319336,-4.5279998779296875 -25.981000900268555,-5.453999996185303 C-21.22100067138672,-6.511000156402588 -16.461000442504883,-7.304999828338623 -11.701000213623047,-7.833000183105469 C-7.6020002365112305,-8.626999855041504 -3.7019999027252197,-9.156999588012695 0,-9.420999526977539 C3.7019999027252197,-9.817999839782715 6.941999912261963,-10.413000106811523 9.718000411987305,-11.206000328063965 C12.626999855041504,-11.99899959564209 14.875,-13.187999725341797 16.461000442504883,-14.774999618530273 C18.18000030517578,-16.493999481201172 19.040000915527344,-19.006999969482422 19.040000915527344,-22.312000274658203 C19.040000915527344,-25.22100067138672 18.312000274658203,-27.60099983215332 16.857999801635742,-29.45199966430664 C15.53600025177002,-31.30299949645996 13.817000389099121,-32.69200134277344 11.701000213623047,-33.617000579833984 C9.718000411987305,-34.67499923706055 7.46999979019165,-35.33599853515625 4.958000183105469,-35.599998474121094 C2.446000099182129,-35.99700164794922 0.06599999964237213,-36.19499969482422 -2.180999994277954,-36.19499969482422 C-8.527999877929688,-36.19499969482422 -13.75100040435791,-34.87300109863281 -17.849000930786133,-32.229000091552734 C-21.947999954223633,-29.583999633789062 -24.261999130249023,-25.486000061035156 -24.791000366210938,-19.93199920654297 C-24.791000366210938,-19.93199920654297 -47.400001525878906,-19.93199920654297 -47.400001525878906,-19.93199920654297 C-47.00400161743164,-26.542999267578125 -45.41699981689453,-32.029998779296875 -42.63999938964844,-36.393001556396484 C-39.86399841308594,-40.75600051879883 -36.36000061035156,-44.2599983215332 -32.12900161743164,-46.90399932861328 C-27.766000747680664,-49.54899978637695 -22.874000549316406,-51.4010009765625 -17.452999114990234,-52.45800018310547 C-12.031999588012695,-53.51599884033203 -6.479000091552734,-54.04399871826172 -0.7929999828338623,-54.04399871826172 C4.230999946594238,-54.04399871826172 9.189000129699707,-53.51599884033203 14.081000328063965,-52.45800018310547 C18.974000930786133,-51.4010009765625 23.336999893188477,-49.680999755859375 27.17099952697754,-47.30099868774414 C31.13800048828125,-44.92100143432617 34.31100082397461,-41.814998626708984 36.691001892089844,-37.97999954223633 C39.07099914550781,-34.27799987792969 40.26100158691406,-29.716999053955078 40.26100158691406,-24.29599952697754 C40.26100158691406,-24.29599952697754 40.26100158691406,28.459999084472656 40.26100158691406,28.459999084472656z M17.650999069213867,-0.10000000149011612 C14.21399974822998,2.1480000019073486 9.982999801635742,3.5369999408721924 4.958000183105469,4.065999984741211 C-0.06599999964237213,4.4629998207092285 -5.090000152587891,5.123000144958496 -10.114999771118164,6.048999786376953 C-12.494999885559082,6.445000171661377 -14.807999610900879,7.039999961853027 -17.055999755859375,7.833000183105469 C-19.304000854492188,8.494999885559082 -21.28700065612793,9.487000465393066 -23.006000518798828,10.809000015258789 C-24.725000381469727,11.99899959564209 -26.113000869750977,13.652000427246094 -27.17099952697754,15.767999649047852 C-28.09600067138672,17.750999450683594 -28.55900001525879,20.195999145507812 -28.55900001525879,23.104999542236328 C-28.55900001525879,25.617000579833984 -27.832000732421875,27.73200035095215 -26.378000259399414,29.451000213623047 C-24.92300033569336,31.170000076293945 -23.20400047302246,32.558998107910156 -21.22100067138672,33.617000579833984 C-19.106000900268555,34.542999267578125 -16.857999801635742,35.20399856567383 -14.477999687194824,35.599998474121094 C-11.965999603271484,35.99700164794922 -9.718000411987305,36.19499969482422 -7.735000133514404,36.19499969482422 C-5.2230000495910645,36.19499969482422 -2.51200008392334,35.8650016784668 0.3970000147819519,35.20399856567383 C3.305999994277954,34.542999267578125 6.015999794006348,33.417999267578125 8.527999877929688,31.83099937438965 C11.17300033569336,30.2450008392334 13.354000091552734,28.261999130249023 15.072999954223633,25.881999969482422 C16.79199981689453,23.3700008392334 17.650999069213867,20.327999114990234 17.650999069213867,16.757999420166016 C17.650999069213867,16.757999420166016 17.650999069213867,-0.10000000149011612 17.650999069213867,-0.10000000149011612z"></path></g><g opacity="1" transform="matrix(1,0,0,1,785.8590087890625,217.9499969482422)"><path fill="rgb(23,23,23)" fill-opacity="1" d=" M-30.047000885009766,-49.87900161743164 C-30.047000885009766,-49.87900161743164 -8.826000213623047,-49.87900161743164 -8.826000213623047,-49.87900161743164 C-8.826000213623047,-49.87900161743164 -8.826000213623047,-30.047000885009766 -8.826000213623047,-30.047000885009766 C-8.826000213623047,-30.047000885009766 -8.428000450134277,-30.047000885009766 -8.428000450134277,-30.047000885009766 C-7.767000198364258,-32.823001861572266 -6.51200008392334,-35.534000396728516 -4.660999774932861,-38.178001403808594 C-2.677999973297119,-40.821998596191406 -0.3630000054836273,-43.20199966430664 2.2809998989105225,-45.31800079345703 C5.058000087738037,-47.566001892089844 8.098999977111816,-49.349998474121094 11.404000282287598,-50.67300033569336 C14.710000038146973,-51.994998931884766 18.079999923706055,-52.65599822998047 21.51799964904785,-52.65599822998047 C24.163000106811523,-52.65599822998047 25.947999954223633,-52.59000015258789 26.87299919128418,-52.45800018310547 C27.930999755859375,-52.32500076293945 28.989999771118164,-52.19300079345703 30.047000885009766,-52.06100082397461 C30.047000885009766,-52.06100082397461 30.047000885009766,-30.2450008392334 30.047000885009766,-30.2450008392334 C28.461000442504883,-30.509000778198242 26.808000564575195,-30.70800018310547 25.089000701904297,-30.84000015258789 C23.50200080871582,-31.104000091552734 21.915000915527344,-31.236000061035156 20.327999114990234,-31.236000061035156 C16.493999481201172,-31.236000061035156 12.859000205993652,-30.44300079345703 9.420999526977539,-28.85700035095215 C6.116000175476074,-27.402000427246094 3.2070000171661377,-25.15399932861328 0.6949999928474426,-22.113000869750977 C-1.8170000314712524,-19.204999923706055 -3.8010001182556152,-15.569000244140625 -5.255000114440918,-11.204999923706055 C-6.710000038146973,-6.8420000076293945 -7.438000202178955,-1.8179999589920044 -7.438000202178955,3.868000030517578 C-7.438000202178955,3.868000030517578 -7.438000202178955,52.65599822998047 -7.438000202178955,52.65599822998047 C-7.438000202178955,52.65599822998047 -30.047000885009766,52.65599822998047 -30.047000885009766,52.65599822998047 C-30.047000885009766,52.65599822998047 -30.047000885009766,-49.87900161743164 -30.047000885009766,-49.87900161743164z"></path></g><g opacity="1" transform="matrix(1,0,0,1,685.2529907226562,219.33900451660156)"><path fill="rgb(23,23,23)" fill-opacity="1" d=" M0,54.04399871826172 C-8.197999954223633,54.04399871826172 -15.53600025177002,52.72200012207031 -22.013999938964844,50.07699966430664 C-28.361000061035156,47.30099868774414 -33.78200149536133,43.53300094604492 -38.277000427246094,38.77299880981445 C-42.64099884033203,34.01300048828125 -46.012001037597656,28.32699966430664 -48.391998291015625,21.715999603271484 C-50.63999938964844,15.104999542236328 -51.763999938964844,7.833000183105469 -51.763999938964844,-0.10000000149011612 C-51.763999938964844,-7.901000022888184 -50.63999938964844,-15.107000350952148 -48.391998291015625,-21.716999053955078 C-46.012001037597656,-28.327999114990234 -42.64099884033203,-34.01300048828125 -38.277000427246094,-38.77299880981445 C-33.78200149536133,-43.53300094604492 -28.361000061035156,-47.236000061035156 -22.013999938964844,-49.880001068115234 C-15.53600025177002,-52.65700149536133 -8.197999954223633,-54.04399871826172 0,-54.04399871826172 C8.197999954223633,-54.04399871826172 15.470000267028809,-52.65700149536133 21.81599998474121,-49.880001068115234 C28.295000076293945,-47.236000061035156 33.715999603271484,-43.53300094604492 38.07899856567383,-38.77299880981445 C42.57400131225586,-34.01300048828125 45.94599914550781,-28.327999114990234 48.194000244140625,-21.716999053955078 C50.57400131225586,-15.107000350952148 51.763999938964844,-7.901000022888184 51.763999938964844,-0.10000000149011612 C51.763999938964844,7.833000183105469 50.57400131225586,15.104999542236328 48.194000244140625,21.715999603271484 C45.94599914550781,28.32699966430664 42.57400131225586,34.01300048828125 38.07899856567383,38.77299880981445 C33.715999603271484,43.53300094604492 28.295000076293945,47.30099868774414 21.81599998474121,50.07699966430664 C15.470000267028809,52.72200012207031 8.197999954223633,54.04399871826172 0,54.04399871826172z M0,36.19499969482422 C5.02400016784668,36.19499969482422 9.387999534606934,35.137001037597656 13.09000015258789,33.020999908447266 C16.79199981689453,30.9060001373291 19.83300018310547,28.128999710083008 22.21299934387207,24.69099998474121 C24.593000411987305,21.253999710083008 26.312000274658203,17.41900062561035 27.368999481201172,13.187999725341797 C28.55900001525879,8.824999809265137 29.15399932861328,4.395999908447266 29.15399932861328,-0.10000000149011612 C29.15399932861328,-4.4629998207092285 28.55900001525879,-8.826000213623047 27.368999481201172,-13.189000129699707 C26.312000274658203,-17.55299949645996 24.593000411987305,-21.38599967956543 22.21299934387207,-24.69099998474121 C19.83300018310547,-28.128999710083008 16.79199981689453,-30.9060001373291 13.09000015258789,-33.020999908447266 C9.387999534606934,-35.137001037597656 5.02400016784668,-36.19499969482422 0,-36.19499969482422 C-5.02400016784668,-36.19499969482422 -9.387999534606934,-35.137001037597656 -13.09000015258789,-33.020999908447266 C-16.79199981689453,-30.9060001373291 -19.83300018310547,-28.128999710083008 -22.21299934387207,-24.69099998474121 C-24.593000411987305,-21.38599967956543 -26.378000259399414,-17.55299949645996 -27.56800079345703,-13.189000129699707 C-28.625,-8.826000213623047 -29.15399932861328,-4.4629998207092285 -29.15399932861328,-0.10000000149011612 C-29.15399932861328,4.395999908447266 -28.625,8.824999809265137 -27.56800079345703,13.187999725341797 C-26.378000259399414,17.41900062561035 -24.593000411987305,21.253999710083008 -22.21299934387207,24.69099998474121 C-19.83300018310547,28.128999710083008 -16.79199981689453,30.9060001373291 -13.09000015258789,33.020999908447266 C-9.387999534606934,35.137001037597656 -5.02400016784668,36.19499969482422 0,36.19499969482422z"></path></g><g opacity="1" transform="matrix(1,0,0,1,602.3099975585938,199.80299377441406)"><path fill="rgb(23,23,23)" fill-opacity="1" d=" M-11.305000305175781,-70.8030014038086 C-11.305000305175781,-70.8030014038086 11.305000305175781,-70.8030014038086 11.305000305175781,-70.8030014038086 C11.305000305175781,-70.8030014038086 11.305000305175781,70.8030014038086 11.305000305175781,70.8030014038086 C11.305000305175781,70.8030014038086 -11.305000305175781,70.8030014038086 -11.305000305175781,70.8030014038086 C-11.305000305175781,70.8030014038086 -11.305000305175781,-70.8030014038086 -11.305000305175781,-70.8030014038086z"></path></g><g opacity="1" transform="matrix(1,0,0,1,554.4710083007812,199.80299377441406)"><path fill="rgb(23,23,23)" fill-opacity="1" d=" M-11.305000305175781,-70.8030014038086 C-11.305000305175781,-70.8030014038086 11.305000305175781,-70.8030014038086 11.305000305175781,-70.8030014038086 C11.305000305175781,-70.8030014038086 11.305000305175781,70.8030014038086 11.305000305175781,70.8030014038086 C11.305000305175781,70.8030014038086 -11.305000305175781,70.8030014038086 -11.305000305175781,70.8030014038086 C-11.305000305175781,70.8030014038086 -11.305000305175781,-70.8030014038086 -11.305000305175781,-70.8030014038086z"></path></g><g opacity="1" transform="matrix(1,0,0,1,464.6300048828125,199.80299377441406)"><path fill="rgb(23,23,23)" fill-opacity="1" d=" M-13.288000106811523,-70.8030014038086 C-13.288000106811523,-70.8030014038086 13.09000015258789,-70.8030014038086 13.09000015258789,-70.8030014038086 C13.09000015258789,-70.8030014038086 67.62999725341797,70.8030014038086 67.62999725341797,70.8030014038086 C67.62999725341797,70.8030014038086 41.05400085449219,70.8030014038086 41.05400085449219,70.8030014038086 C41.05400085449219,70.8030014038086 27.766000747680664,33.319000244140625 27.766000747680664,33.319000244140625 C27.766000747680664,33.319000244140625 -28.757999420166016,33.319000244140625 -28.757999420166016,33.319000244140625 C-28.757999420166016,33.319000244140625 -42.04600143432617,70.8030014038086 -42.04600143432617,70.8030014038086 C-42.04600143432617,70.8030014038086 -67.62999725341797,70.8030014038086 -67.62999725341797,70.8030014038086 C-67.62999725341797,70.8030014038086 -13.288000106811523,-70.8030014038086 -13.288000106811523,-70.8030014038086z M-22.014999389648438,14.477999687194824 C-22.014999389648438,14.477999687194824 21.22100067138672,14.477999687194824 21.22100067138672,14.477999687194824 C21.22100067138672,14.477999687194824 0,-46.409000396728516 0,-46.409000396728516 C0,-46.409000396728516 -0.5950000286102295,-46.409000396728516 -0.5950000286102295,-46.409000396728516 C-0.5950000286102295,-46.409000396728516 -22.014999389648438,14.477999687194824 -22.014999389648438,14.477999687194824z"></path></g></g></g></svg>