<?xml version="1.0" encoding="UTF-8"?>
<svg xmlns="http://www.w3.org/2000/svg" xmlns:xlink="http://www.w3.org/1999/xlink" version="1.1" id="Layer_1" x="0px" y="0px" viewBox="0 0 2500 772.7" style="enable-background:new 0 0 2500 772.7;" xml:space="preserve">
<style type="text/css">
	.st0{clip-path:url(#SVGID_00000054948081567811110990000013877115009875798677_);}
	.st1{fill:#5E12A0;}
	.st2{fill:url(#SVGID_00000034076583593516557870000007152475769526279298_);}
	.st3{fill:url(#SVGID_00000041993091685221854800000007604320840241030836_);}
	.st4{opacity:0.6;fill:#A98698;enable-background:new    ;}
	.st5{opacity:0.6;fill:url(#SVGID_00000004524624962553127320000002913182150915145623_);enable-background:new    ;}
	.st6{opacity:0.6;fill:url(#SVGID_00000172400144653213518140000017652969571691108278_);enable-background:new    ;}
	.st7{fill:url(#SVGID_00000066502598876464475780000010989243931801497506_);}
	.st8{opacity:0.6;}
	.st9{opacity:0.6;fill:url(#SVGID_00000058583128162913623070000018230047797411872659_);enable-background:new    ;}
	.st10{opacity:0.7;}
	.st11{opacity:0.7;fill:url(#SVGID_00000060749624825583389580000015650703205646157482_);enable-background:new    ;}
	.st12{fill:url(#SVGID_00000062187549139403745780000001688154786294846081_);}
	.st13{fill:#FFFFFF;}
	.st14{opacity:0.6;fill:url(#SVGID_00000083050629613432158090000000031340174828191360_);enable-background:new    ;}
	.st15{opacity:0.2;fill:#FFFFFF;enable-background:new    ;}
	.st16{opacity:0.4;}
	.st17{opacity:0.6;fill:url(#SVGID_00000087387749935390865990000009431665613670462385_);enable-background:new    ;}
	.st18{opacity:0.3;fill:#FFFFFF;enable-background:new    ;}
	.st19{opacity:0.6;fill:url(#SVGID_00000151505709011095651820000006722900870219417504_);enable-background:new    ;}
	.st20{opacity:0.6;fill:url(#SVGID_00000093171591625575475900000008369074180845150110_);enable-background:new    ;}
	.st21{opacity:0.6;fill:url(#SVGID_00000040532659063044733240000016815267001656149183_);enable-background:new    ;}
	.st22{opacity:0.6;fill:url(#SVGID_00000043443640937590921520000000864794625330979505_);enable-background:new    ;}
	.st23{opacity:0.6;fill:url(#SVGID_00000137845042732541708360000013047967039462296201_);enable-background:new    ;}
</style>
<g>
	<defs>
		<rect id="SVGID_1_" x="5" y="0" width="2500" height="772.7"></rect>
	</defs>
	<clipPath id="SVGID_00000029757984182398596340000003627928789783271355_">
		<use xlink:href="#SVGID_1_" style="overflow:visible;"></use>
	</clipPath>
	<g style="clip-path:url(#SVGID_00000029757984182398596340000003627928789783271355_);">
		<path d="M670.8,427.3c0-83.4,61-143.4,144.9-143.4c83.8,0,144.9,60,144.9,143.4s-61,143.4-144.9,143.4    C732.4,570.7,670.8,510.7,670.8,427.3z M900.1,427.3c0-52.1-33.4-91.4-84.4-91.4c-50.9,0-83.8,39.3-83.8,91.4    c0,51.5,32.9,91.4,83.8,91.4C866.6,518.1,900.1,478.8,900.1,427.3z"></path>
		<path d="M983.3,526.6l31.8-45.1c19.6,20.2,49.9,37.2,88.1,37.2c32.4,0,48.3-14.9,48.3-30.8c0-48.9-159.7-15.4-159.7-120    c0-46.2,39.8-84.5,105.1-84.5c44,0,80.6,13.3,108.2,38.8l-32.9,43c-22.3-20.7-52.5-30.3-80.6-30.3c-25.5,0-39.3,11.2-39.3,27.6    c0,44.1,159.2,14.3,159.2,117.9c0,51-36.1,89.2-110.9,89.2C1047.5,570.7,1009.3,552.6,983.3,526.6z"></path>
		<path d="M1492.7,565.9V371.5l-78,194.4h-26l-78-194.4v194.4h-58.9V288.1h82.8L1402,456l67.4-167.8h83.3v277.3h-60V565.9z"></path>
		<path d="M1593.5,427.3c0-83.4,61-143.4,144.8-143.4s144.8,60,144.8,143.4s-61,143.4-144.8,143.4S1593.5,510.7,1593.5,427.3z     M1822.7,427.3c0-52.1-33.4-91.4-84.4-91.4s-83.8,39.3-83.8,91.4c0,51.5,32.9,91.4,83.8,91.4    C1789.3,518.1,1822.7,478.8,1822.7,427.3z"></path>
		<path d="M1906,526.6l31.8-45.1c19.6,20.2,49.9,37.2,88.1,37.2c32.4,0,48.3-14.9,48.3-30.8c0-48.9-159.7-15.4-159.7-120    c0-46.2,39.8-84.5,105.1-84.5c44,0,80.7,13.3,108.2,38.8l-32.9,43c-22.3-20.7-52.5-30.3-80.7-30.3c-25.5,0-39.3,11.2-39.3,27.6    c0,44.1,159.2,14.3,159.2,117.9c0,51-36.1,89.2-110.9,89.2C1970.2,570.7,1932,552.6,1906,526.6z"></path>
		<path d="M2174,565.9V288.1h59.4v277.3H2174V565.9z"></path>
		<path d="M2269.5,526.6l31.8-45.1c19.6,20.2,49.9,37.2,88.1,37.2c32.4,0,48.3-14.9,48.3-30.8c0-48.9-159.7-15.4-159.7-120    c0-46.2,39.8-84.5,105.1-84.5c44,0,80.7,13.3,108.2,38.8l-32.9,43c-22.3-20.7-52.5-30.3-80.6-30.3c-25.5,0-39.3,11.2-39.3,27.6    c0,44.1,159.2,14.3,159.2,117.9c0,51-36.1,89.2-110.9,89.2C2333.2,570.7,2295,552.6,2269.5,526.6z"></path>
		<path class="st1" d="M566.3,186.6c-6.3-24.2-26.5-48.5-62.9-75.4c-29.2-21.5-60.2-33.8-84.9-33.8c-4.9,0-9.4,0.5-13.9,1.4    c-11.2,2.3-21.1,10.5-27.4,22.9c-7.6,14.6-9.4,34.3-4.5,46.2c1.8,3.7,4,8.2,6.7,12.3c-23.8,14.6-37.3,18.7-39.1,19.2    c62,21,113.6,64.9,145.9,122.1l0.4-5.5c1.3-15.1,5.8-32.5,12.1-50.3c6.3,1.8,12.6,2.7,18.9,2.7c16.6,0,31-6.9,40-19.2    C566.7,216.7,570.3,200.3,566.3,186.6z"></path>
		
			<radialGradient id="SVGID_00000041288421314017376730000013995833345144591792_" cx="919.0786" cy="794.0455" r="15.1515" gradientTransform="matrix(13.2451 0 0 -13.4877 -11627.7842 10871.2529)" gradientUnits="userSpaceOnUse">
			<stop offset="0" style="stop-color:#FFEAFF;stop-opacity:0.6"></stop>
			<stop offset="0.6807" style="stop-color:#A087C9"></stop>
			<stop offset="1" style="stop-color:#10002F"></stop>
		</radialGradient>
		<path style="fill:url(#SVGID_00000041288421314017376730000013995833345144591792_);" d="M501.6,232.3    c40.9,11.4,57.5-20.6,52.1-42.1c-5.8-21.5-24.7-43.4-57.9-68.1c-33.2-24.7-66.9-34.7-88.5-30.2c-21.6,4.6-27.8,38-22.4,50.8    c2.2,5,7.2,12.3,13.9,20.6c-8.5,5.9-16.6,10.5-23.3,14.6c41.3,18.7,77.2,48,104.2,84.6c3.1-12.3,7.6-23.3,11.7-32.9    C494.4,230,498,230.9,501.6,232.3z"></path>
		
			<radialGradient id="SVGID_00000015349701030577602770000014049695953457609642_" cx="935.6219" cy="799.6838" r="15.1515" gradientTransform="matrix(32.4059 0 0 -32.9994 -29885.8145 26637.6484)" gradientUnits="userSpaceOnUse">
			<stop offset="0" style="stop-color:#FFEAFF;stop-opacity:0.6"></stop>
			<stop offset="0.6807" style="stop-color:#A087C9"></stop>
			<stop offset="1" style="stop-color:#10002F"></stop>
		</radialGradient>
		<path style="fill:url(#SVGID_00000015349701030577602770000014049695953457609642_);" d="M267.7,680.4    c138.6,0,251-114.4,251-255.6s-112.4-255.6-251-255.6c-138.6,0-251,114.4-251,255.6S129.1,680.4,267.7,680.4z"></path>
		<path class="st4" d="M533,169.2c-34.1-36.6-62.9-46.2-97.4-54c-26.9-6.4-19.8-21.9,13-18.7c-15.7-5.5-30.5-6.9-41.3-4.6    c-21.6,4.6-27.8,38-22.5,50.8c2.2,5,7.2,12.3,13.9,20.6c-12.1,8.2-22.4,14.2-31,18.7c4,1.8,9,4.1,14.8,7.3    c15.3,8.2,31.9,21.9,31.9,21.9c-25.1-21.9-19.8-32,14.8-56.7c10.8-7.8,30.5-6.9,48.9,2.7c18.4,9.6,40,33.8,40,33.8l-20.7,40.2    c1.3,0.5,2.7,0.9,4,1.4c13,3.7,23.3,2.7,31.4-0.5C542.5,226.3,567.2,206.2,533,169.2z"></path>
		<path class="st1" d="M435.2,137.2c9,3.7,20.7,10.1,35,19.7c17.1,11.4,31.9,24.2,41.3,34.3c-15.7,21-26,49.8-32.3,70    c3.1,4.6,6.7,9.1,9.9,13.7c3.1-11.4,8.5-28.4,15.7-45.3c1.8,0.5,4,0.5,6.3,0.5c5.4,0,11.7-0.9,16.6-5c3.6-2.7,7.6-7.8,7.2-16.9    c0-8.7-6.7-19.7-20.7-32.9c-9.9-9.6-23.3-20.1-36.8-29.7c-38.6-26.1-65.6-33.4-77.7-21c-8.1,8.2-7.2,18.3-4.5,25.6    c-14.4,9.6-26.5,16.5-34.6,21c5.4,1.8,10.3,4.1,15.7,6.4C390.7,169.6,411.4,156.4,435.2,137.2z M520,202.6    c1.3,2.3,1.8,4.6,1.8,5.9c0,4.1-1.3,5.5-2.2,6.4c-1.8,1.4-5.4,2.3-8.5,2.3C513.7,211.7,516.9,207.1,520,202.6z M409.1,134.4    c1.3-1.4,4.9-2.3,10.8-1.4c-4.5,3.7-9,6.9-13.5,10.1C406,139.9,406.4,136.7,409.1,134.4z"></path>
		<path class="st1" d="M267.7,154.1C120.8,154.1,1.9,275.3,1.9,424.8c0,149.5,119,270.7,265.8,270.7    c146.8,0,265.8-121.2,265.8-270.7C533.5,275.3,414,154.1,267.7,154.1z M267.7,680.4c-138.7,0-251-114.3-251-255.6    c0-141.3,112.3-255.6,251-255.6c138.7,0,251,114.3,251,255.6C518.7,566.1,406,680.4,267.7,680.4z"></path>
		
			<linearGradient id="SVGID_00000111893149789697933860000011535638330714525313_" gradientUnits="userSpaceOnUse" x1="226.0602" y1="96.7438" x2="309.2838" y2="600.9447" gradientTransform="matrix(1 0 0 -1 0 773.6171)">
			<stop offset="0" style="stop-color:#81FFFF"></stop>
			<stop offset="0.6202" style="stop-color:#FFFFFF;stop-opacity:0"></stop>
		</linearGradient>
		<path style="opacity:0.6;fill:url(#SVGID_00000111893149789697933860000011535638330714525313_);enable-background:new    ;" d="    M267.7,680.4c138.6,0,251-114.4,251-255.6s-112.4-255.6-251-255.6c-138.6,0-251,114.4-251,255.6S129.1,680.4,267.7,680.4z"></path>
		<path class="st4" d="M265.9,649.3C128.9,626.9,36,495.6,58.4,356.2c9.9-61.7,40.4-114.3,83.5-152.3    C79.1,241,32.4,305.4,19.8,384.1c-22,139.5,70.9,270.7,207.4,293.1c76.3,12.8,150-11.4,204.3-59    C383.5,646.5,325.1,658.9,265.9,649.3z"></path>
		
			<linearGradient id="SVGID_00000073691403227819666220000013054069083595583387_" gradientUnits="userSpaceOnUse" x1="446.8464" y1="519.8857" x2="235.8571" y2="329.7781" gradientTransform="matrix(1 0 0 -1 0 773.6171)">
			<stop offset="0.2888" style="stop-color:#FFFFFF"></stop>
			<stop offset="0.7796" style="stop-color:#FFFFFF;stop-opacity:0"></stop>
		</linearGradient>
		<path style="opacity:0.6;fill:url(#SVGID_00000073691403227819666220000013054069083595583387_);enable-background:new    ;" d="    M307.6,172.8c-63.3-10.5-124.8,4.1-175.1,36.6c-0.9,0.9-1.8,1.8-1.8,1.8c19.3-11.9,47.6-22.4,47.6-22.4    c-72.7,43-95.2,91.9-95.2,91.9c28.3-55.8,111.4-95.1,176.5-97.8c65.1-2.7,107.8,16.9,159.8,59.4c52.1,43,83.5,130.8,80.4,200.3    c-2.7,69.5-38.6,125.7-38.6,125.7c24.7-32.5,39.5-56.2,48.9-80.5c1.8-7.3,3.6-14.6,4.5-22.4C537.1,326.5,444.6,195.2,307.6,172.8z    "></path>
		
			<linearGradient id="SVGID_00000181088583431752217940000007025014736347836309_" gradientUnits="userSpaceOnUse" x1="28.8" y1="229.7361" x2="506.0984" y2="229.7361" gradientTransform="matrix(1 0 0 -1 0 773.6171)">
			<stop offset="0" style="stop-color:#0002E9"></stop>
			<stop offset="0.9952" style="stop-color:#FF00C7"></stop>
		</linearGradient>
		<path style="fill:url(#SVGID_00000181088583431752217940000007025014736347836309_);" d="M506.1,422.5    c0,134-106.9,242.8-238.4,242.8c-131.6,0-238.9-108.8-238.9-242.8H506.1z"></path>
		<g class="st8">
			
				<linearGradient id="SVGID_00000169556209102545958450000006019368942035230357_" gradientUnits="userSpaceOnUse" x1="529.8881" y1="328.3941" x2="265.8275" y2="83.332" gradientTransform="matrix(1 0 0 -1 0 773.6171)">
				<stop offset="0.2888" style="stop-color:#FFFFFF"></stop>
				<stop offset="0.7796" style="stop-color:#FFFFFF;stop-opacity:0"></stop>
			</linearGradient>
			<path style="opacity:0.6;fill:url(#SVGID_00000169556209102545958450000006019368942035230357_);enable-background:new    ;" d="     M487.2,422.5c0,130.8-101.5,237.8-229,242.8c3.1,0,6.3,0,9.4,0c131.6,0,238.4-108.8,238.4-242.8H487.2z"></path>
		</g>
		<g class="st10">
			
				<linearGradient id="SVGID_00000137846920762089676420000011144477364984397988_" gradientUnits="userSpaceOnUse" x1="28.8" y1="229.7361" x2="283.8379" y2="229.7361" gradientTransform="matrix(1 0 0 -1 0 773.6171)">
				<stop offset="0" style="stop-color:#000292"></stop>
				<stop offset="0.9952" style="stop-color:#7D00C7"></stop>
			</linearGradient>
			<path style="opacity:0.7;fill:url(#SVGID_00000137846920762089676420000011144477364984397988_);enable-background:new    ;" d="     M62.5,422.5H28.8c0,134,106.9,242.8,238.4,242.8c5.8,0,11.2,0,16.6-0.5C160.4,655.7,62.5,550.5,62.5,422.5z"></path>
		</g>
		
			<linearGradient id="SVGID_00000099620087118873768370000005925678516864181651_" gradientUnits="userSpaceOnUse" x1="29.3221" y1="328.8237" x2="505.6621" y2="328.8237" gradientTransform="matrix(1 0 0 -1 0 773.6171)">
			<stop offset="0" style="stop-color:#000292"></stop>
			<stop offset="0.9952" style="stop-color:#BE00C7"></stop>
		</linearGradient>
		<path style="fill:url(#SVGID_00000099620087118873768370000005925678516864181651_);" d="M505.6,424.8    c0-27.9-47.6-43.9-110.9-49.4c-45.8-3.7-92,0.9-145,17.4c-45.8,13.7-87.1,11.4-117.2,7.8c-66.9-7.8-103.7-8.7-103.7,24.2    c0,47.6,95.2,107,238,86.4c72.3-10.5,109.6-32,152.2-46.6C465.2,449,505.6,449.5,505.6,424.8z"></path>
		<path class="st13" d="M345.8,309.5c22.3,0,40.4-18.4,40.4-41.1s-18.1-41.2-40.4-41.2s-40.4,18.4-40.4,41.2    S323.5,309.5,345.8,309.5z"></path>
		<path class="st13" d="M411.8,340.2c9.4,0,17.1-7.8,17.1-17.4c0-9.6-7.6-17.4-17.1-17.4c-9.4,0-17.1,7.8-17.1,17.4    C394.7,332.4,402.4,340.2,411.8,340.2z"></path>
		<g class="st8">
			
				<linearGradient id="SVGID_00000147198732697863322700000018301535699925410228_" gradientUnits="userSpaceOnUse" x1="498.4731" y1="588.442" x2="463.3291" y2="532.3602" gradientTransform="matrix(1 0 0 -1 0 773.6171)">
				<stop offset="0.2888" style="stop-color:#FFFFFF"></stop>
				<stop offset="0.7796" style="stop-color:#FFFFFF;stop-opacity:0"></stop>
			</linearGradient>
			<path style="opacity:0.6;fill:url(#SVGID_00000147198732697863322700000018301535699925410228_);enable-background:new    ;" d="     M472.9,235.5c-0.4,0-0.9,0-0.9,0c-2.7-0.5-4.5-3.2-4-6.4c4-21,21.1-41.2,22-42.1c1.8-2.3,5.4-2.3,7.2-0.5     c2.2,1.8,2.2,5.5,0.4,7.3c-0.4,0.5-16.2,19.2-19.8,37.5C477.4,234.1,475.1,235.5,472.9,235.5z"></path>
		</g>
		<path class="st15" d="M251.1,615.4c6.9,0,12.6-5.7,12.6-12.8c0-7.1-5.6-12.8-12.6-12.8c-6.9,0-12.6,5.7-12.6,12.8    C238.5,609.7,244.1,615.4,251.1,615.4z"></path>
		<g class="st16">
			
				<linearGradient id="SVGID_00000065057615969259844880000016286840422701553287_" gradientUnits="userSpaceOnUse" x1="238.3757" y1="170.8673" x2="257.3727" y2="170.8673" gradientTransform="matrix(1 0 0 -1 0 773.6171)">
				<stop offset="0.2888" style="stop-color:#FFFFFF"></stop>
				<stop offset="0.7796" style="stop-color:#FFFFFF;stop-opacity:0"></stop>
			</linearGradient>
			<path style="opacity:0.6;fill:url(#SVGID_00000065057615969259844880000016286840422701553287_);enable-background:new    ;" d="     M243.9,610.9c-4.9-5-4.9-13.3,0-18.3c0.9-0.9,1.8-1.4,2.7-2.3c-1.8,0.5-3.1,1.4-4.5,2.7c-4.9,5-4.9,13.3,0,18.3     c4,4.1,10.3,5,15.3,2.3C252.9,615.5,247.5,614.5,243.9,610.9z"></path>
		</g>
		<path class="st18" d="M255.5,599c1.5,0,2.7-1.2,2.7-2.7c0-1.5-1.2-2.7-2.7-2.7s-2.7,1.2-2.7,2.7C252.9,597.8,254.1,599,255.5,599z    "></path>
		<path class="st15" d="M316.6,609c6.9,0,12.6-5.7,12.6-12.8c0-7.1-5.6-12.8-12.6-12.8c-6.9,0-12.6,5.7-12.6,12.8    C304.1,603.3,309.7,609,316.6,609z"></path>
		<g class="st16">
			
				<linearGradient id="SVGID_00000174599662118857238210000001818805721453363903_" gradientUnits="userSpaceOnUse" x1="303.8727" y1="177.2704" x2="322.8697" y2="177.2704" gradientTransform="matrix(1 0 0 -1 0 773.6171)">
				<stop offset="0.2888" style="stop-color:#FFFFFF"></stop>
				<stop offset="0.7796" style="stop-color:#FFFFFF;stop-opacity:0"></stop>
			</linearGradient>
			<path style="opacity:0.6;fill:url(#SVGID_00000174599662118857238210000001818805721453363903_);enable-background:new    ;" d="     M309.4,604.5c-4.9-5-4.9-13.3,0-18.3c0.9-0.9,1.8-1.4,2.7-2.3c-1.8,0.5-3.1,1.4-4.5,2.7c-4.9,5-4.9,13.3,0,18.3     c4,4.1,10.3,5,15.3,2.3C318.4,609.1,313,608.1,309.4,604.5z"></path>
		</g>
		<path class="st18" d="M321.1,592.6c1.5,0,2.7-1.2,2.7-2.7s-1.2-2.7-2.7-2.7c-1.5,0-2.7,1.2-2.7,2.7S319.6,592.6,321.1,592.6z"></path>
		<path class="st15" d="M284.3,638.8c5.2,0,9.4-4.3,9.4-9.6c0-5.3-4.2-9.6-9.4-9.6c-5.2,0-9.4,4.3-9.4,9.6    C274.9,634.5,279.1,638.8,284.3,638.8z"></path>
		<g class="st16">
			
				<linearGradient id="SVGID_00000062891710108928332470000007777316662855726251_" gradientUnits="userSpaceOnUse" x1="274.7985" y1="144.1906" x2="289.0606" y2="144.1906" gradientTransform="matrix(1 0 0 -1 0 773.6171)">
				<stop offset="0.2888" style="stop-color:#FFFFFF"></stop>
				<stop offset="0.7796" style="stop-color:#FFFFFF;stop-opacity:0"></stop>
			</linearGradient>
			<path style="opacity:0.6;fill:url(#SVGID_00000062891710108928332470000007777316662855726251_);enable-background:new    ;" d="     M278.9,635.1c-3.6-3.7-3.6-10.1,0-13.7c0.4-0.5,1.3-0.9,1.8-1.4c-1.3,0.5-2.2,1.4-3.1,2.3c-3.6,3.7-3.6,10.1,0,13.7     c3.1,3.2,7.6,3.7,11.7,1.4C285.6,638.8,281.6,637.9,278.9,635.1z"></path>
		</g>
		<path class="st18" d="M287.4,626c1,0,1.8-0.8,1.8-1.8c0-1-0.8-1.8-1.8-1.8c-1,0-1.8,0.8-1.8,1.8C285.6,625.1,286.4,626,287.4,626z    "></path>
		<path class="st15" d="M342.2,631.9c5.2,0,9.4-4.3,9.4-9.6c0-5.3-4.2-9.6-9.4-9.6s-9.4,4.3-9.4,9.6    C332.8,627.6,337,631.9,342.2,631.9z"></path>
		<g class="st16">
			
				<linearGradient id="SVGID_00000147899661542133599790000012302810930841242783_" gradientUnits="userSpaceOnUse" x1="332.5318" y1="151.0486" x2="346.7924" y2="151.0486" gradientTransform="matrix(1 0 0 -1 0 773.6171)">
				<stop offset="0.2888" style="stop-color:#FFFFFF"></stop>
				<stop offset="0.7796" style="stop-color:#FFFFFF;stop-opacity:0"></stop>
			</linearGradient>
			<path style="opacity:0.6;fill:url(#SVGID_00000147899661542133599790000012302810930841242783_);enable-background:new    ;" d="     M336.8,628.3c-3.6-3.7-3.6-10.1,0-13.7c0.4-0.5,1.3-0.9,1.8-1.4c-1.3,0.5-2.2,1.4-3.1,2.3c-3.6,3.7-3.6,10.1,0,13.7     c3.1,3.2,7.6,3.7,11.7,1.4C343.6,631.9,339.5,631,336.8,628.3z"></path>
		</g>
		<path class="st18" d="M345.4,619.1c1,0,1.8-0.8,1.8-1.8c0-1-0.8-1.8-1.8-1.8c-1,0-1.8,0.8-1.8,1.8    C343.6,618.3,344.4,619.1,345.4,619.1z"></path>
		<path class="st15" d="M197.6,610.9c11.4,0,20.7-9.4,20.7-21c0-11.6-9.2-21-20.7-21s-20.7,9.4-20.7,21    C177,601.5,186.2,610.9,197.6,610.9z"></path>
		<g class="st16">
			
				<linearGradient id="SVGID_00000083051340455939528970000014137952711466847118_" gradientUnits="userSpaceOnUse" x1="177.003" y1="183.1839" x2="208.0258" y2="183.1839" gradientTransform="matrix(1 0 0 -1 0 773.6171)">
				<stop offset="0.2888" style="stop-color:#FFFFFF"></stop>
				<stop offset="0.7796" style="stop-color:#FFFFFF;stop-opacity:0"></stop>
			</linearGradient>
			<path style="opacity:0.6;fill:url(#SVGID_00000083051340455939528970000014137952711466847118_);enable-background:new    ;" d="     M186,603.1c-8.1-8.2-8.1-21.5,0-29.7c1.3-1.4,2.7-2.3,4.5-3.2c-2.7,0.9-4.9,2.7-7.2,4.6c-8.1,8.2-8.1,21.5,0,29.7     c6.7,6.9,17.1,8.2,25.1,3.2C200.8,610.9,191.8,609.5,186,603.1z"></path>
		</g>
		<path class="st18" d="M204.8,583.4c2.5,0,4.5-2,4.5-4.6c0-2.5-2-4.6-4.5-4.6c-2.5,0-4.5,2-4.5,4.6    C200.3,581.4,202.3,583.4,204.8,583.4z"></path>
		<path class="st15" d="M382.2,559.2c11.4,0,20.7-9.4,20.7-21c0-11.6-9.2-21-20.7-21c-11.4,0-20.7,9.4-20.7,21    C361.5,549.8,370.8,559.2,382.2,559.2z"></path>
		<g class="st16">
			
				<linearGradient id="SVGID_00000097478917487527927880000014765200243409585300_" gradientUnits="userSpaceOnUse" x1="361.256" y1="234.853" x2="392.2803" y2="234.853" gradientTransform="matrix(1 0 0 -1 0 773.6171)">
				<stop offset="0.2888" style="stop-color:#FFFFFF"></stop>
				<stop offset="0.7796" style="stop-color:#FFFFFF;stop-opacity:0"></stop>
			</linearGradient>
			<path style="opacity:0.6;fill:url(#SVGID_00000097478917487527927880000014765200243409585300_);enable-background:new    ;" d="     M370,551.4c-8.1-8.2-8.1-21.5,0-29.7c1.3-1.4,2.7-2.3,4.5-3.2c-2.7,0.9-4.9,2.7-7.2,4.6c-8.1,8.2-8.1,21.5,0,29.7     c6.7,6.9,17.1,8.2,25.1,3.2C384.9,559.2,376.3,557.8,370,551.4z"></path>
		</g>
		<path class="st18" d="M389.4,531.8c2.5,0,4.5-2,4.5-4.6c0-2.5-2-4.6-4.5-4.6c-2.5,0-4.5,2-4.5,4.6    C384.9,529.7,386.9,531.8,389.4,531.8z"></path>
	</g>
</g>
</svg>
