<svg width="569" height="92" viewBox="0 0 569 92" fill="none" xmlns="http://www.w3.org/2000/svg">
<path d="M129.488 76.7998L170.48 21.2898C172.676 18.2398 176.946 16.2878 180.24 14.5798L179.142 12.3838C175.848 14.0918 171.7 16.2878 167.918 16.2878H130.708V3.5998H191.22V16.2878H191.098L150.228 71.3098C148.032 74.3598 143.762 76.3118 140.346 78.0198L141.444 80.2158C144.86 78.5078 149.008 76.3118 152.79 76.3118H191.22V88.9998H129.488V76.7998Z" fill="#FEFEFE"/>
<path d="M214.486 44.4698L233.274 28.1218H249.866L224.246 51.6678L256.088 89.1218H239.618L215.34 59.5978L209.362 64.9658L209.484 88.9998H196.674V0.549805H209.484V42.1518C209.484 46.0558 207.41 50.5698 205.702 54.1078L208.02 55.0838C209.606 51.5458 211.558 47.0318 214.486 44.4698Z" fill="#FEFEFE"/>
<path d="M294.438 90.8298C269.428 90.8298 251.006 71.6758 251.006 46.1778C251.006 20.8018 269.184 1.7698 293.95 1.7698C317.862 1.7698 331.16 14.8238 333.112 31.2938H319.204C316.886 22.9978 310.908 14.8238 294.072 14.8238C277.236 14.8238 264.67 27.7558 264.67 46.2998C264.67 64.7218 277.236 77.6538 294.194 77.6538C311.518 77.6538 317.74 69.6018 320.058 61.1838H334.088C331.526 79.4838 317.862 90.8298 294.438 90.8298Z" fill="#FEFEFE"/>
<path d="M341.144 74.2378V0.549805H354.076V70.4558C354.076 75.4578 355.906 76.9218 361.396 76.9218H369.204V88.9998H360.786C347.61 88.9998 341.144 84.1198 341.144 74.2378Z" fill="#FEFEFE"/>
<path d="M369.679 58.2558C369.679 39.1018 383.221 26.1698 403.351 26.1698C423.481 26.1698 437.023 39.7118 437.023 58.2558C437.023 76.9218 423.481 90.9518 403.351 90.9518C383.221 90.9518 369.679 77.5318 369.679 58.2558ZM383.099 58.2558C383.099 69.4798 389.321 78.6298 403.351 78.6298C417.259 78.6298 423.603 69.4798 423.603 58.2558C423.603 47.1538 417.381 38.4918 403.351 38.4918C389.321 38.4918 383.099 47.1538 383.099 58.2558Z" fill="#FEFEFE"/>
<path d="M481.096 84.8518C475.85 90.0978 471.214 90.8298 462.796 90.8298C451.206 90.8298 439.982 83.6318 439.982 69.8458V27.9998H452.792V61.4278C452.792 74.1158 458.404 79.2398 466.578 79.2398C475.484 79.2398 484.39 73.9938 484.39 61.4278V27.9998H497.2V88.9998H484.39L484.512 86.1938C484.512 83.1438 486.464 79.4838 487.684 76.6778L485.366 75.7018C484.268 78.6298 483.414 82.7778 481.096 84.8518Z" fill="#FEFEFE"/>
<path d="M555.111 32.7578V0.549805H567.921V88.9998H555.111V84.6078C555.111 80.9478 557.063 76.6778 558.283 73.1398L555.965 72.4078C554.745 75.8238 554.013 80.8258 551.451 83.3878C546.937 88.1458 540.593 90.9518 532.419 90.9518C514.119 90.9518 501.797 76.9218 502.041 58.7438C502.285 40.9318 514.607 26.1698 532.419 26.1698C540.593 26.1698 546.937 29.2198 551.451 33.9778C554.013 36.6618 554.745 41.5418 555.965 45.0798L558.283 44.2258C557.063 40.8098 555.111 36.4178 555.111 32.7578ZM533.761 78.8738C546.449 78.8738 553.281 70.3338 553.281 58.8658C553.281 47.5198 546.449 38.1258 533.761 38.1258C521.195 38.1258 514.851 47.5198 514.851 58.8658C514.851 70.3338 521.195 78.8738 533.761 78.8738Z" fill="#FEFEFE"/>
<path fill-rule="evenodd" clip-rule="evenodd" d="M71.1741 34.652C71.1741 27.5593 65.4688 21.7991 58.3971 21.7104H26.0829C38.3145 22.5635 47.9755 32.7444 48 45.1871H71.1741V34.652ZM47.7556 1C35.647 1 25.6374 9.98756 24.0341 21.6557C11.1873 21.8607 0.836182 32.3388 0.836182 45.2345C0.836182 58.2584 11.3942 68.8164 24.4181 68.8164H24.6896C25.958 77.0314 31.4661 83.8467 38.9083 86.9568C41.7047 88.1253 44.7741 88.7708 47.9943 88.7708C59.7848 88.7708 69.5543 80.1179 71.299 68.8159C71.3926 68.817 71.4863 68.8176 71.5802 68.8176C84.6041 68.8176 95.1621 58.2596 95.1621 45.2357C95.1621 32.2117 84.6041 21.6537 71.5802 21.6537H71.4769C69.8727 9.98658 59.8637 1 47.7556 1ZM68.8919 68.666H35.4356C29.1971 67.7112 24.4185 62.3218 24.4185 55.8163V45.2344H47.9983V45.2357C47.9983 57.3506 57.1339 67.3317 68.8919 68.666Z" fill="#FEFEFE"/>
</svg>