<svg xmlns="http://www.w3.org/2000/svg" viewBox="0 0 200 104" width="100" height="52">
  <path fill="#ffffff" d="M98.7 45.3c0-4.8 3.9-8.6 8.6-8.6 4.8 0 8.6 3.9 8.6 8.6 0 4.8-3.9 8.6-8.6 8.6-4.7.1-8.6-3.8-8.6-8.6zm-25.9 0c0-4.8 3.9-8.6 8.6-8.6 4.8 0 8.6 3.9 8.6 8.6 0 4.8-3.9 8.6-8.6 8.6-4.7.1-8.6-3.8-8.6-8.6zm-25.9 0c0-4.8 3.9-8.6 8.6-8.6 4.8 0 8.6 3.9 8.6 8.6 0 4.8-3.9 8.6-8.6 8.6-4.7.1-8.6-3.8-8.6-8.6zm-25.9 0c0-4.8 3.9-8.6 8.6-8.6 4.8 0 8.6 3.9 8.6 8.6 0 4.8-3.9 8.6-8.6 8.6-4.7.1-8.6-3.8-8.6-8.6zm129.5 0c0-4.8 3.9-8.6 8.6-8.6 4.8 0 8.6 3.9 8.6 8.6 0 4.8-3.9 8.6-8.6 8.6-4.7.1-8.6-3.8-8.6-8.6zm25.9 0c0-4.8 3.9-8.6 8.6-8.6 4.8 0 8.6 3.9 8.6 8.6 0 4.8-3.9 8.6-8.6 8.6-4.7.1-8.6-3.8-8.6-8.6z"/>
</svg> 