<?xml version="1.0" standalone="no"?>
<!DOCTYPE svg PUBLIC "-//W3C//DTD SVG 20010904//EN"
 "http://www.w3.org/TR/2001/REC-SVG-20010904/DTD/svg10.dtd">
<svg version="1.0" xmlns="http://www.w3.org/2000/svg"
 width="1140.000000pt" height="240.000000pt" viewBox="0 0 1140.000000 240.000000"
 preserveAspectRatio="xMidYMid meet">

<g transform="translate(0.000000,240.000000) scale(0.100000,-0.100000)"
fill="#000000" stroke="none">
<path d="M1159 2223 c-66 -56 -125 -243 -155 -495 -10 -79 -19 -144 -20 -146
0 -1 -39 14 -85 34 -323 139 -554 182 -601 110 -28 -42 22 -144 116 -236 33
-31 46 -52 46 -72 0 -38 32 -68 73 -68 24 0 55 -17 127 -72 52 -39 95 -74 95
-78 0 -4 -46 -42 -103 -85 -129 -97 -268 -228 -317 -299 -42 -61 -54 -120 -32
-151 24 -32 182 -27 302 9 70 21 284 103 371 142 6 3 15 -38 23 -115 12 -107
11 -122 -3 -143 -25 -35 -20 -67 17 -102 22 -20 38 -48 47 -81 19 -74 65 -171
94 -200 32 -32 57 -32 94 0 64 54 118 224 155 488 13 96 26 156 32 153 86 -40
301 -121 370 -141 94 -28 215 -42 258 -31 36 9 57 33 57 64 0 76 -153 247
-357 402 -62 47 -113 88 -113 91 0 3 39 35 88 71 186 139 315 266 362 358 60
118 -30 159 -240 109 -83 -19 -91 -19 -120 -4 -17 9 -40 13 -51 10 -26 -8 -59
-44 -59 -64 0 -11 -33 -30 -97 -56 -53 -22 -100 -41 -103 -43 -3 -1 -15 69
-27 155 -37 265 -90 434 -154 488 -38 32 -50 31 -90 -2z m98 -93 c49 -98 113
-400 113 -534 l0 -46 -82 -41 -82 -41 -88 43 c-48 24 -88 43 -88 44 0 31 35
278 49 347 37 179 91 303 129 296 9 -2 31 -32 49 -68z m-690 -445 c99 -26 236
-77 346 -127 75 -35 73 -28 60 -160 l-6 -68 -79 -50 c-45 -28 -84 -47 -91 -43
-7 4 -53 38 -104 76 -83 62 -92 71 -87 96 4 18 -1 35 -16 54 -19 24 -28 27
-67 25 -43 -2 -47 1 -94 53 -50 56 -102 145 -93 160 11 18 140 9 231 -16z
m1503 3 c0 -60 -153 -223 -352 -372 l-117 -88 -77 48 c-41 27 -80 57 -85 66
-5 10 -8 57 -7 104 l3 86 104 45 c88 38 107 43 128 34 39 -18 70 -13 92 15 11
14 21 30 23 36 6 18 138 47 216 47 67 1 72 0 72 -21z m-980 -213 c27 -13 51
-28 53 -32 3 -5 -24 -25 -59 -45 l-64 -36 0 38 c0 40 10 100 17 100 2 0 26
-11 53 -25z m292 -37 c3 -35 4 -65 2 -67 -4 -4 -124 62 -124 69 0 6 99 58 111
59 4 1 9 -27 11 -61z m-81 -80 l89 -52 0 -106 0 -106 -89 -52 c-49 -29 -93
-52 -97 -52 -3 0 -47 23 -95 51 l-89 51 0 108 0 108 88 51 c48 28 91 51 95 51
5 0 49 -23 98 -52z m-331 -158 c0 -38 -2 -70 -4 -70 -11 0 -106 64 -106 71 0
7 89 67 103 68 4 1 7 -30 7 -69z m530 38 c27 -18 50 -35 50 -38 0 -6 -97 -70
-105 -70 -3 0 -5 32 -5 70 0 39 2 70 5 70 3 0 28 -15 55 -32z m-612 -118 l79
-51 7 -67 c12 -136 18 -125 -87 -171 -214 -93 -375 -141 -479 -141 -37 0 -69
4 -72 8 -24 39 166 247 359 390 60 45 111 82 112 82 1 0 37 -23 81 -50z m831
-37 c204 -154 365 -331 346 -380 -4 -13 -20 -15 -93 -11 -98 6 -261 55 -437
131 l-100 44 -3 87 c-1 47 1 93 6 102 7 13 150 114 161 114 2 0 56 -39 120
-87z m-634 -84 c30 -17 55 -34 55 -38 0 -10 -100 -64 -107 -58 -8 8 -17 127
-9 127 3 0 31 -14 61 -31z m298 -31 c-3 -35 -7 -64 -8 -66 -4 -4 -115 51 -115
58 0 5 111 69 122 70 3 0 4 -28 1 -62z m-93 -80 l80 -43 0 -44 c0 -63 -27
-240 -56 -361 -30 -128 -80 -235 -109 -235 -24 0 -64 70 -95 167 l-21 68 20
26 c12 15 21 38 21 51 0 23 -33 66 -58 74 -11 4 -49 246 -40 254 7 7 164 84
170 85 5 0 44 -19 88 -42z"/>
<path d="M1166 1320 c-96 -29 -122 -150 -45 -214 24 -20 41 -26 81 -26 73 0
118 45 118 118 0 72 -34 110 -110 127 -8 2 -28 -1 -44 -5z"/>
<path d="M5403 1778 l-152 -152 -40 22 c-294 165 -674 20 -771 -296 -39 -125
-22 -300 40 -407 l28 -50 -156 -158 -156 -158 62 -62 62 -62 157 156 158 156
55 -28 c264 -137 593 -34 720 225 76 155 78 311 5 465 l-36 75 153 153 153
153 -60 60 c-33 33 -62 60 -65 60 -3 0 -74 -68 -157 -152z m-332 -249 c27 -12
49 -25 49 -29 0 -15 -474 -470 -482 -462 -12 12 -38 123 -38 162 0 57 28 151
62 202 37 59 78 94 143 124 69 32 194 34 266 3z m194 -220 c13 -38 16 -73 13
-133 -8 -142 -70 -241 -186 -298 -60 -30 -75 -33 -152 -32 -84 0 -158 22 -167
49 -4 12 448 465 464 465 6 0 19 -23 28 -51z"/>
<path d="M3390 1704 c-139 -36 -275 -145 -333 -265 -146 -301 2 -652 312 -743
70 -20 218 -21 296 -1 75 20 146 59 207 114 l49 44 -56 57 -57 58 -64 -49
c-80 -61 -152 -83 -243 -77 -126 9 -225 78 -277 191 -40 86 -46 215 -14 300
52 137 167 222 304 221 90 0 155 -22 229 -78 l59 -44 36 42 c20 22 45 52 57
64 l20 24 -38 33 c-121 105 -327 151 -487 109z"/>
<path d="M9346 1704 c-86 -21 -173 -71 -242 -139 -284 -280 -156 -768 227
-870 68 -19 218 -19 285 -1 386 103 515 593 231 877 -125 126 -319 177 -501
133z m271 -180 c262 -124 265 -524 4 -651 -49 -24 -68 -28 -146 -28 -73 0 -99
5 -136 23 -75 37 -125 87 -161 160 -31 62 -33 73 -33 172 0 93 3 112 26 161
80 170 278 242 446 163z"/>
<path d="M6267 1699 c-138 -33 -230 -143 -231 -279 -2 -164 74 -235 319 -300
131 -35 209 -69 225 -99 5 -11 10 -40 10 -65 0 -61 -39 -100 -116 -116 -101
-21 -206 6 -315 80 -52 35 -64 40 -73 28 -6 -8 -29 -36 -51 -62 l-40 -49 35
-29 c48 -41 155 -94 227 -112 87 -23 226 -21 306 4 157 48 241 204 196 364
-22 80 -134 164 -259 196 -227 56 -290 93 -290 167 0 77 60 123 163 123 80 0
147 -20 217 -64 l54 -34 48 66 47 65 -32 25 c-109 83 -304 123 -440 91z"/>
<path d="M10797 1699 c-138 -33 -230 -143 -231 -279 -1 -84 24 -148 75 -195
51 -46 101 -67 248 -106 128 -34 205 -69 221 -98 5 -11 10 -40 10 -65 0 -61
-39 -100 -116 -116 -100 -21 -208 6 -312 77 -54 38 -67 43 -76 31 -6 -8 -29
-36 -51 -62 l-40 -49 37 -32 c47 -40 148 -89 225 -109 88 -23 225 -21 308 5
125 38 205 147 205 279 0 141 -97 236 -292 285 -140 35 -217 66 -243 96 -47
57 -26 137 45 174 69 36 220 10 318 -54 l46 -30 48 66 47 66 -32 24 c-48 36
-145 79 -205 92 -62 13 -180 13 -235 0z"/>
<path d="M7360 1200 l0 -500 85 0 85 0 2 356 3 355 155 -230 c85 -127 158
-231 161 -231 3 0 75 104 160 231 l154 232 3 -357 2 -357 88 3 87 3 3 498 2
497 -97 0 -98 0 -85 -133 c-46 -72 -114 -178 -151 -235 l-67 -102 -152 235
-152 235 -94 0 -94 0 0 -500z"/>
</g>
</svg>
