<svg viewBox="0 0 205 72" fill="none" xmlns="http://www.w3.org/2000/svg">
  <path d="M.068 16.595H14.72l10.605 17.617 10.38-17.617h14.2L32.742 43.409 50.357 70.91H35.704L24.941 52.673 14.178 70.91H0L17.479 43.32.068 16.595ZM68.288 16.595V70.91H55.422V16.595h12.866ZM81.177 65.402c-5.857-5.598-7.801-12.952-7.801-21.616s1.944-16.084 7.8-21.682c4.523-4.376 11.08-6.598 17.616-6.598 6.534 0 13.092 2.222 17.614 6.598 5.857 5.599 7.801 13.018 7.801 21.682 0 8.664-1.944 16.018-7.801 21.616C111.884 69.778 105.326 72 98.792 72c-6.535 0-13.093-2.222-17.615-6.598ZM107 57.893c3.346-3.288 4.364-7.82 4.364-14.107 0-6.287-1.018-10.885-4.364-14.173-1.877-1.844-4.681-2.91-8.186-2.91s-6.308 1.066-8.185 2.91c-3.347 3.288-4.364 7.886-4.364 14.173s1.017 10.797 4.364 14.107c1.876 1.844 4.68 2.91 8.185 2.91 3.505 0 6.309-1.066 8.186-2.91ZM176.396 16.595V70.91h-14.517L141.686 33.99v36.922h-12.481V16.595h15.67l19.039 34.79v-34.79h12.482ZM191.342 29.99c-2.984-3.42-4.273-6.486-4.273-9.507 0-1.778.203-2.91.452-3.933-1.47 3.044-1.967 5.332-1.967 7.487 0 11.397 10.627 12.863 10.627 20.927 0 1.955-1.04 4.599-4.59 9.553C202.287 40.498 205 35.456 205 31.945c0-9.797-10.582-11.441-10.582-22.46 0-2.51 1.469-5.532 4.205-9.486 0 0-2.6 3.599-4.002 5.51-4.997 6.842-6.942 15.728-3.256 24.48h-.023Z" fill="currentColor"></path>
</svg>