<svg width="180" height="50" viewBox="0 0 180 50" fill="none" xmlns="http://www.w3.org/2000/svg">
  <path d="M24.5 12.5C18.1487 12.5 13 17.6487 13 24C13 30.3513 18.1487 35.5 24.5 35.5C30.8513 35.5 36 30.3513 36 24C36 17.6487 30.8513 12.5 24.5 12.5ZM24.5 32.5C19.8056 32.5 16 28.6944 16 24C16 19.3056 19.8056 15.5 24.5 15.5C29.1944 15.5 33 19.3056 33 24C33 28.6944 29.1944 32.5 24.5 32.5Z" fill="white"/>
  <path d="M24.5 18.5C21.4624 18.5 19 20.9624 19 24C19 27.0376 21.4624 29.5 24.5 29.5C27.5376 29.5 30 27.0376 30 24C30 20.9624 27.5376 18.5 24.5 18.5ZM24.5 26.5C23.1193 26.5 22 25.3807 22 24C22 22.6193 23.1193 21.5 24.5 21.5C25.8807 21.5 27 22.6193 27 24C27 25.3807 25.8807 26.5 24.5 26.5Z" fill="white"/>
  <path d="M48.9688 18.5H52.7812L57.5 31.5H54.0625L53.1562 28.75H48.5312L47.625 31.5H44.25L48.9688 18.5ZM52.3438 26.25L50.875 21.5L49.375 26.25H52.3438Z" fill="white"/>
  <path d="M63.5 31.5H60.5V18.5H63.5C67.9183 18.5 71.5 22.0817 71.5 26.5C71.5 30.9183 67.9183 34.5 63.5 34.5V31.5ZM63.5 21.5H63.5V31.5H63.5C66.2614 31.5 68.5 29.2614 68.5 26.5C68.5 23.7386 66.2614 21.5 63.5 21.5Z" fill="white"/>
  <path d="M77.5 31.5H74.5V18.5H83.5V21.5H77.5V23.5H82.5V26.5H77.5V31.5Z" fill="white"/>
  <path d="M89.5 31.5H86.5V18.5H95.5V21.5H89.5V23.5H94.5V26.5H89.5V31.5Z" fill="white"/>
  <path d="M101.5 31.5H98.5V18.5H101.5V31.5Z" fill="white"/>
  <path d="M107.5 31.5H104.5V18.5H107.5C111.918 18.5 115.5 22.0817 115.5 26.5C115.5 30.9183 111.918 34.5 107.5 34.5V31.5ZM107.5 21.5H107.5V31.5H107.5C110.261 31.5 112.5 29.2614 112.5 26.5C112.5 23.7386 110.261 21.5 107.5 21.5Z" fill="white"/>
  <path d="M121.5 31.5H118.5V18.5H121.5V31.5Z" fill="white"/>
  <path d="M127.5 31.5H124.5V18.5H127.5C131.918 18.5 135.5 22.0817 135.5 26.5C135.5 30.9183 131.918 34.5 127.5 34.5V31.5ZM127.5 21.5H127.5V31.5H127.5C130.261 31.5 132.5 29.2614 132.5 26.5C132.5 23.7386 130.261 21.5 127.5 21.5Z" fill="white"/>
  <path d="M141.5 31.5H138.5V18.5H141.5V31.5Z" fill="white"/>
  <path d="M147.5 31.5H144.5V18.5H147.5V31.5Z" fill="white"/>
  <path d="M153.5 31.5H150.5V18.5H153.5V31.5Z" fill="white"/>
  <path d="M159.5 31.5H156.5V18.5H159.5V31.5Z" fill="white"/>
  <path d="M165.5 31.5H162.5V18.5H165.5V31.5Z" fill="white"/>
</svg> 