<svg width="161" height="58" viewBox="0 0 161 58" fill="none" xmlns="http://www.w3.org/2000/svg">
<ellipse cx="28.5442" cy="28.1589" rx="27.3684" ry="27.3684" transform="rotate(180 28.5442 28.1589)" fill="url(#paint0_linear_1058_19900)"/>
<mask id="mask0_1058_19900" style="mask-type:alpha" maskUnits="userSpaceOnUse" x="5" y="5" width="47" height="46">
<path d="M5.73802 28.1539C5.73802 15.558 15.9491 5.34691 28.545 5.34691C41.141 5.34691 51.352 15.558 51.352 28.1539C51.352 40.7499 41.141 50.9609 28.545 50.9609C15.9491 50.9609 5.73802 40.7499 5.73802 28.1539Z" fill="url(#paint1_linear_1058_19900)"/>
</mask>
<g mask="url(#mask0_1058_19900)">
<path d="M28.6607 50.8432C41.4533 50.8432 51.6777 39.4304 51.6777 26.3311C48.4606 29.1642 38.0762 32.9329 26.7491 23.5362C15.2176 13.9699 5.50556 18.0578 5.50556 25.6169C5.50556 25.6169 5.49756 26.7031 5.49756 27.1249C5.49756 40.2242 15.868 50.8432 28.6607 50.8432Z" fill="url(#paint2_radial_1058_19900)"/>
<path d="M34.7886 27.7229C39.0874 28.4458 42.2941 28.1645 44.9561 26.235C47.3399 24.5072 50.9292 22.953 51.2866 26.4622C51.8905 32.3926 40.0913 37.37 29.9237 37.7541C19.756 38.1381 4.77829 31.317 6.72389 21.6221C6.94545 20.5181 7.48493 19.406 8.83599 17.7711C10.2613 16.0463 15.0355 13.2553 19.4645 15.0522C26.4698 17.212 27.025 26.4172 34.7886 27.7229Z" fill="url(#paint3_radial_1058_19900)"/>
<path opacity="0.3" fill-rule="evenodd" clip-rule="evenodd" d="M22.623 22.4012C24.9945 21.1741 26.6154 18.6981 26.6154 15.8436C26.6154 11.7684 23.3118 8.46484 19.2366 8.46484C17.6048 8.46484 16.0967 8.99454 14.8749 9.89138L14.7782 9.74115C-2.94855 21.9422 7.0128 43.5863 15.0426 47.8999C16.4584 48.2282 16.0507 46.9014 15.3431 44.5983C13.7826 39.5197 10.7636 29.6939 22.623 22.4012Z" fill="url(#paint4_linear_1058_19900)"/>
</g>
<path d="M79.2535 19.8828C73.5906 19.8828 70.1929 23.9705 70.1929 29.023C70.1929 34.0755 73.5906 38.1632 79.2535 38.1632C84.9164 38.1632 88.3142 34.0755 88.3142 29.023C88.3142 23.9705 84.9164 19.8828 79.2535 19.8828ZM79.2535 35.1165C75.7786 35.1165 73.6936 32.3998 73.6936 29.023C73.6936 25.6462 75.7786 22.9295 79.2535 22.9295C82.7285 22.9295 84.8135 25.6462 84.8135 29.023C84.8135 32.3998 82.7285 35.1165 79.2535 35.1165Z" fill="white"/>
<path d="M116.239 29.023C116.239 34.0755 119.353 38.1632 124.579 38.1632C127.668 38.1632 129.341 35.8782 129.881 34.5833C129.933 34.4564 130.061 34.3294 130.267 34.4056C130.422 34.4564 130.473 34.6087 130.396 34.8118C130.036 35.6751 129.933 36.2082 129.933 36.7922V37.9601H133.536V28.6168H125.505V31.4604H129.907C129.366 33.4408 127.899 35.1165 125.274 35.1165C121.593 35.1165 119.739 32.349 119.739 29.023C119.739 25.6462 121.696 22.9295 125.402 22.9295C128.182 22.9295 129.495 24.4275 130.061 26.1794H133.536C132.97 23.0565 130.473 19.8828 125.351 19.8828C119.431 19.8828 116.239 23.9705 116.239 29.023Z" fill="white"/>
<path d="M147.347 20.0859H139.985V37.9601H143.486V31.4604H147.758C152.031 31.4604 154.4 28.8199 154.4 25.7732C154.4 22.7264 152.443 20.0859 147.347 20.0859ZM147.733 28.6168H143.486V23.1327H147.733C149.715 23.1327 150.899 24.1483 150.899 25.8747C150.899 27.4235 149.715 28.6168 147.733 28.6168Z" fill="white"/>
<path d="M98.3319 39.8078L106.842 18.2227H105.019L96.5083 39.8078H98.3319Z" fill="white"/>
<defs>
<linearGradient id="paint0_linear_1058_19900" x1="38.8959" y1="54.3468" x2="19.3729" y2="4.35213" gradientUnits="userSpaceOnUse">
<stop stop-color="white"/>
<stop offset="1" stop-color="#FAE7FD"/>
</linearGradient>
<linearGradient id="paint1_linear_1058_19900" x1="28.545" y1="50.9609" x2="28.545" y2="5.34692" gradientUnits="userSpaceOnUse">
<stop stop-color="white"/>
<stop offset="1" stop-color="#FAE7FD"/>
</linearGradient>
<radialGradient id="paint2_radial_1058_19900" cx="0" cy="0" r="1" gradientUnits="userSpaceOnUse" gradientTransform="translate(10.3609 36.7241) rotate(1.73961) scale(54.8237 80.4336)">
<stop stop-color="#2D01E2"/>
<stop offset="0.602428" stop-color="#DD4AC8"/>
</radialGradient>
<radialGradient id="paint3_radial_1058_19900" cx="0" cy="0" r="1" gradientUnits="userSpaceOnUse" gradientTransform="translate(23.8862 3.87026) rotate(62.2299) scale(46.1846 99.0775)">
<stop offset="0.505088" stop-color="#DD4AC8"/>
<stop offset="0.917785" stop-color="#2D01E2"/>
</radialGradient>
<linearGradient id="paint4_linear_1058_19900" x1="15.6852" y1="8.34481" x2="17.5242" y2="49.4613" gradientUnits="userSpaceOnUse">
<stop stop-color="white"/>
<stop offset="1" stop-color="white" stop-opacity="0"/>
</linearGradient>
</defs>
</svg>
