<svg xmlns="http://www.w3.org/2000/svg" width="542.95" height="164.12" viewBox="0 0 542.95 164.12">
  <g id="From_Zero._To_One." data-name="From Zero. To One." transform="translate(-360.9 -342.14)">
    <path id="Path_101" data-name="Path 101" d="M43.47,0V-14.94H22.23L43.47-52.83V-66.6H1.44v14.94H24.39L1.44-11.16V0ZM87.93,0V-14.94H67.23V-26.37H87.3V-41.31H67.23V-51.66h20.7V-66.6H50.94V0Zm61.83,0L131.67-22.68c10.26-1.8,16.56-10.44,16.56-20.97,0-9.45-5.04-17.28-12.24-20.52-3.51-1.53-8.82-2.43-15.75-2.43H98.46V0h16.29V-21.51h.18L130.32,0ZM114.75-33.12V-51.66h6.48c6.39,0,10.71,3.24,10.71,9,0,6.39-4.14,9.54-10.89,9.54ZM191.16,1.26c19.08,0,34.38-15.3,34.38-35.01,0-19.08-15.75-34.11-35.19-34.11-20.25,0-35.1,15.48-35.1,36.09C155.25-12.06,172.62,1.26,191.16,1.26Zm-.54-14.94c-10.89,0-18.36-8.82-18.36-19.8,0-10.53,7.47-19.44,18.09-19.44,10.71,0,18.18,9.27,18.18,19.71C208.53-22.59,201.15-13.68,190.62-13.68ZM248.85,0V-15.3H233.28V0Z" transform="translate(655 410)" fill="#ff00c1"/>
    <path id="Path_100" data-name="Path 100" d="M43.47,0V-14.94H22.23L43.47-52.83V-66.6H1.44v14.94H24.39L1.44-11.16V0ZM87.93,0V-14.94H67.23V-26.37H87.3V-41.31H67.23V-51.66h20.7V-66.6H50.94V0Zm61.83,0L131.67-22.68c10.26-1.8,16.56-10.44,16.56-20.97,0-9.45-5.04-17.28-12.24-20.52-3.51-1.53-8.82-2.43-15.75-2.43H98.46V0h16.29V-21.51h.18L130.32,0ZM114.75-33.12V-51.66h6.48c6.39,0,10.71,3.24,10.71,9,0,6.39-4.14,9.54-10.89,9.54ZM191.16,1.26c19.08,0,34.38-15.3,34.38-35.01,0-19.08-15.75-34.11-35.19-34.11-20.25,0-35.1,15.48-35.1,36.09C155.25-12.06,172.62,1.26,191.16,1.26Zm-.54-14.94c-10.89,0-18.36-8.82-18.36-19.8,0-10.53,7.47-19.44,18.09-19.44,10.71,0,18.18,9.27,18.18,19.71C208.53-22.59,201.15-13.68,190.62-13.68ZM248.85,0V-15.3H233.28V0Z" transform="translate(649 410)" fill="#00fff9"/>
    <path id="Path_99" data-name="Path 99" d="M39.06,1.26c19.08,0,34.38-15.3,34.38-35.01,0-19.08-15.75-34.11-35.19-34.11C18-67.86,3.15-52.38,3.15-31.77,3.15-12.06,20.52,1.26,39.06,1.26Zm-.54-14.94c-10.89,0-18.36-8.82-18.36-19.8,0-10.53,7.47-19.44,18.09-19.44,10.71,0,18.18,9.27,18.18,19.71C56.43-22.59,49.05-13.68,38.52-13.68ZM138.78,0V-66.6H122.49l.72,42.12L97.29-66.6H82.62V0H98.91l-.45-40.68L124.02,0Zm49.14,0V-14.94h-20.7V-26.37h20.07V-41.31H167.22V-51.66h20.7V-66.6H150.93V0Zm26.46,0V-15.3H198.81V0Z" transform="translate(511 505)" fill="#ff00c1"/>
    <path id="Path_98" data-name="Path 98" d="M39.06,1.26c19.08,0,34.38-15.3,34.38-35.01,0-19.08-15.75-34.11-35.19-34.11C18-67.86,3.15-52.38,3.15-31.77,3.15-12.06,20.52,1.26,39.06,1.26Zm-.54-14.94c-10.89,0-18.36-8.82-18.36-19.8,0-10.53,7.47-19.44,18.09-19.44,10.71,0,18.18,9.27,18.18,19.71C56.43-22.59,49.05-13.68,38.52-13.68ZM138.78,0V-66.6H122.49l.72,42.12L97.29-66.6H82.62V0H98.91l-.45-40.68L124.02,0Zm49.14,0V-14.94h-20.7V-26.37h20.07V-41.31H167.22V-51.66h20.7V-66.6H150.93V0Zm26.46,0V-15.3H198.81V0Z" transform="translate(505 505)" fill="#00fff9"/>
    <path id="Path_97" data-name="Path 97" d="M22.32,0V-25.38H41.67V-40.32H22.32V-51.66H42.39V-66.6H6.03V0Zm80.55,0L84.78-22.68c10.26-1.8,16.56-10.44,16.56-20.97,0-9.45-5.04-17.28-12.24-20.52-3.51-1.53-8.82-2.43-15.75-2.43H51.57V0H67.86V-21.51h.18L83.43,0ZM67.86-33.12V-51.66h6.48c6.39,0,10.71,3.24,10.71,9,0,6.39-4.14,9.54-10.89,9.54ZM144.27,1.26c19.08,0,34.38-15.3,34.38-35.01,0-19.08-15.75-34.11-35.19-34.11-20.25,0-35.1,15.48-35.1,36.09C108.36-12.06,125.73,1.26,144.27,1.26Zm-.54-14.94c-10.89,0-18.36-8.82-18.36-19.8,0-10.53,7.47-19.44,18.09-19.44,10.71,0,18.18,9.27,18.18,19.71C161.64-22.59,154.26-13.68,143.73-13.68ZM258.12,0V-66.6H236.16L223.11-22.77h-.18L209.7-66.6H187.83V0h15.66l-.54-50.49L217.35,0H228.6l14.22-50.04.18.18L242.46,0Zm77.31,0V-14.94H314.19l21.24-37.89V-66.6H293.4v14.94h22.95L293.4-11.16V0Zm44.46,0V-14.94h-20.7V-26.37h20.07V-41.31H359.19V-51.66h20.7V-66.6H342.9V0Zm61.83,0L423.63-22.68c10.26-1.8,16.56-10.44,16.56-20.97,0-9.45-5.04-17.28-12.24-20.52-3.51-1.53-8.82-2.43-15.75-2.43H390.42V0h16.29V-21.51h.18L422.28,0ZM406.71-33.12V-51.66h6.48c6.39,0,10.71,3.24,10.71,9,0,6.39-4.14,9.54-10.89,9.54ZM483.12,1.26c19.08,0,34.38-15.3,34.38-35.01,0-19.08-15.75-34.11-35.19-34.11-20.25,0-35.1,15.48-35.1,36.09C447.21-12.06,464.58,1.26,483.12,1.26Zm-.54-14.94c-10.89,0-18.36-8.82-18.36-19.8,0-10.53,7.47-19.44,18.09-19.44,10.71,0,18.18,9.27,18.18,19.71C500.49-22.59,493.11-13.68,482.58-13.68ZM540.81,0V-15.3H525.24V0ZM31.05,95V43.34H44.1V28.4H.9V43.34H14.04V95Zm51.57,1.26c19.08,0,34.38-15.3,34.38-35.01,0-19.08-15.75-34.11-35.19-34.11-20.25,0-35.1,15.48-35.1,36.09C46.71,82.94,64.08,96.26,82.62,96.26Zm-.54-14.94c-10.89,0-18.36-8.82-18.36-19.8,0-10.53,7.47-19.44,18.09-19.44,10.71,0,18.18,9.27,18.18,19.71C99.99,72.41,92.61,81.32,82.08,81.32ZM187.02,96.26c19.08,0,34.38-15.3,34.38-35.01,0-19.08-15.75-34.11-35.19-34.11-20.25,0-35.1,15.48-35.1,36.09C151.11,82.94,168.48,96.26,187.02,96.26Zm-.54-14.94c-10.89,0-18.36-8.82-18.36-19.8,0-10.53,7.47-19.44,18.09-19.44,10.71,0,18.18,9.27,18.18,19.71C204.39,72.41,197.01,81.32,186.48,81.32ZM286.74,95V28.4H270.45l.72,42.12L245.25,28.4H230.58V95h16.29l-.45-40.68L271.98,95Zm49.14,0V80.06h-20.7V68.63h20.07V53.69H315.18V43.34h20.7V28.4H298.89V95Zm26.46,0V79.7H346.77V95Z" transform="translate(360 410)" fill="#fff"/>
  </g>
</svg>
