<svg xmlns="http://www.w3.org/2000/svg" viewBox="0 0 121 38" fill="none">
<g clip-path="url(#clip0_564_5278)">
<path d="M17.0021 35.4106C16.98 35.4129 16.959 35.414 16.9382 35.4163C17.2889 35.3775 17.7088 35.4928 18.0673 35.4984C18.4992 35.5053 18.9318 35.4829 19.3605 35.4298C20.3828 35.3028 21.3828 34.9987 22.31 34.552C22.31 34.552 22.2961 34.5404 22.274 34.5161C22.1949 34.4337 22.0102 34.2063 22.0149 33.907C20.4892 34.7076 18.7961 35.2296 17.0021 35.4106Z" fill="#781C6D"/>
<path d="M4.94182 30.4681C3.97278 29.2999 3.19422 27.9703 2.65161 26.5247C2.676 26.9017 2.71544 27.2914 2.77468 27.6942C2.77826 27.7174 2.78171 27.7417 2.78515 27.7649C2.80724 27.91 2.82115 28.0456 2.82818 28.1734C3.14072 29.6793 3.75892 31.2118 5.11264 32.4638C5.11264 32.4638 5.10332 32.4336 5.09056 32.3813C5.08941 32.3779 5.08826 32.3744 5.08826 32.3709C4.93723 32.0995 4.55024 31.2675 4.94182 30.4681Z" fill="#781C6D"/>
<path d="M12.6726 35.1681C12.1079 35.0487 11.5571 34.8931 11.0203 34.7041C11.4712 35.1519 11.9801 35.566 12.5483 35.9001C12.5646 35.9095 12.582 35.92 12.5995 35.9292C12.6216 35.9349 12.6435 35.9398 12.6657 35.9443C12.6657 35.9443 12.6634 35.9362 12.6599 35.9223C12.6412 35.8329 12.5774 35.4815 12.6726 35.1681Z" fill="#781C6D"/>
<path d="M5.40544 12.3478C7.24598 10.3418 9.6733 8.88097 12.4158 8.23608L11.7254 8.15358L11.6999 8.15015C11.7092 8.15473 11.7172 8.15931 11.7254 8.16404C11.7254 8.16404 6.15846 7.98301 3.021 12.3919C3.021 12.3919 3.03735 12.3896 3.06632 12.3872C3.06747 12.386 3.06747 12.386 3.06862 12.386C3.08382 12.3826 3.1082 12.3756 3.14191 12.3663C3.44757 12.2852 4.4724 12.0578 5.40544 12.3478Z" fill="#781C6D"/>
<path d="M1.83591 20.3523C1.95797 19.0622 2.25889 17.8231 2.71315 16.6616C2.53299 16.8346 2.36805 17.0016 2.22519 17.1606C2.17398 17.2186 2.12521 17.2754 2.07989 17.3312C2.01592 17.4101 1.96026 17.4692 1.91365 17.5063C1.00155 18.6944 0.167344 20.0982 0.0231934 21.7492C0.0359589 21.7317 0.0487245 21.7144 0.0614901 21.6958C0.548447 21.031 1.18744 20.3616 1.83591 20.3523Z" fill="#781C6D"/>
<path d="M29.5225 19.2187L29.2657 19.5494L29.2309 19.5947L29.0646 19.6063L28.5708 19.6398C28.6999 20.278 28.7671 20.9393 28.7671 21.6157C28.7671 24.2134 27.7726 26.5779 26.1446 28.3532C25.179 29.7952 23.9671 30.6747 22.7807 31.2315C22.7424 31.2488 22.7052 31.2664 22.6668 31.2826C22.4298 31.3906 22.195 31.4844 21.9627 31.5681C21.9522 31.5715 21.9417 31.5762 21.9312 31.5797C20.2604 32.1772 18.7741 32.2236 18.2768 32.4359C18.1862 32.4742 18.1281 32.5183 18.1083 32.5729C17.8156 33.364 18.9021 33.7445 18.9021 33.7445C15.5322 34.0533 13.4407 32.4881 12.0521 31.3534C12.051 31.3522 12.0498 31.3509 12.0487 31.3509C11.3747 30.7988 10.8669 30.3497 10.459 30.2687C10.4346 30.2628 10.4114 30.2592 10.3881 30.2571C9.15533 30.1398 9.1843 31.1653 9.1843 31.1653C7.39368 28.7035 6.77792 24.9514 5.63332 25.2739C4.48757 25.5964 4.42948 26.6522 4.42948 26.6522C3.5488 24.3364 4.40051 21.4347 5.83786 20.1446C7.27635 18.8555 6.92437 17.1547 5.83786 17.2139C4.75264 17.2719 4.31215 18.0933 4.31215 18.0933C4.30398 18.0538 4.29709 18.0144 4.29121 17.9749L4.31215 17.946C4.31215 17.946 4.44813 14.8285 8.77997 13.1357C9.12621 13 9.50043 12.8734 9.90362 12.7587C16.3758 10.9117 9.77109 8.09805 15.8332 11.4314L15.8157 11.4453C11.4863 12.5393 8.28268 16.4551 8.28268 21.1181C8.28268 24 9.50617 26.5965 11.4642 28.4169C10.1105 26.969 9.18545 25.1196 8.88682 23.0672C8.88582 23.0636 8.88582 23.0591 8.88453 23.0556C8.88453 23.052 8.88338 23.0497 8.88338 23.0463C8.81597 22.5787 8.78111 22.1018 8.78111 21.6157C8.78111 21.3744 8.78929 21.1354 8.80664 20.8987C8.80794 20.8848 8.80908 20.8709 8.81023 20.8568C9.19707 15.7009 13.5104 11.6379 18.7741 11.6379C18.9729 11.6379 19.1704 11.6436 19.3668 11.6552L18.8008 8.23955C17.7737 7.99594 16.7024 7.86719 15.6008 7.86719C14.5051 7.86719 13.4384 7.99479 12.4159 8.23611C9.67356 8.88115 7.24609 10.342 5.40555 12.348C5.60549 12.4094 5.80071 12.4953 5.9843 12.6113C7.02534 13.2703 4.28892 15.1591 2.7133 16.6616C2.2589 17.823 1.95798 19.0621 1.83606 20.3523C1.94636 20.3511 2.05795 20.3685 2.1684 20.408C3.40235 20.8545 2.42858 23.1519 2.65177 26.5246C3.19438 27.9702 3.97293 29.2998 4.94197 30.468C5.01985 30.3068 5.13016 30.1468 5.28004 29.9924C6.33643 28.9088 7.86314 29.8463 8.62664 31.3116C9.05765 32.1388 9.84553 33.5381 11.0203 34.704C11.5571 34.8932 12.1079 35.0488 12.6726 35.1682C12.733 34.9674 12.8574 34.783 13.1002 34.6913C13.1154 34.6844 13.1293 34.6798 13.1455 34.674C13.3965 34.5951 13.7626 34.6078 14.2924 34.7841C15.0814 35.0463 15.9691 35.2935 16.9382 35.4165C16.9396 35.4165 16.9412 35.4165 16.9426 35.4165C18.7589 35.2411 20.4724 34.7164 22.0149 33.9071C22.0149 33.9071 22.0071 33.6846 22.0971 33.5161C22.2002 33.3227 22.4228 33.1702 22.6005 33.0453C22.9143 32.8252 23.2662 32.6652 23.6239 32.5305C23.9478 32.4082 24.2465 32.3225 24.6215 32.1376C24.6226 32.1371 24.6236 32.1362 24.6248 32.1353C27.0484 30.0497 28.7389 27.1377 29.259 23.8387C29.2849 23.6735 29.519 23.665 29.5563 23.828C29.557 23.8311 29.5578 23.8344 29.5585 23.8374C29.5794 23.6704 29.5969 23.501 29.612 23.3282C29.72 22.1054 29.7038 20.7398 29.5225 19.2187Z" fill="#451065"/>
<path d="M26.7233 30.4878C26.6942 30.5179 26.6652 30.5492 26.6349 30.5795C26.5943 30.6223 26.5525 30.6639 26.5107 30.7058C26.4955 30.7209 26.4805 30.7371 26.4641 30.7533C26.5525 30.6688 26.6385 30.5795 26.7233 30.4878Z" fill="white"/>
<path d="M28.5428 15.2678C28.4162 16.7248 28.1937 18.3508 27.8202 20.1034C27.5146 21.5378 27.1517 22.8494 26.7707 24.0286C27.1551 23.8571 27.5395 23.6855 27.9241 23.514C27.7748 24.48 27.153 27.3799 24.9188 29.0722C23.2906 30.2532 21.2665 30.975 19.0643 31.028H19.0606C18.976 31.0293 18.8913 31.0306 18.8056 31.0306C13.2713 31.0306 8.78357 26.8104 8.78357 21.6047C8.78357 17.6865 11.4506 13.8387 15.5663 13.2717C15.8904 13.7244 16.3493 14.1952 17.0402 14.195C19.3119 14.1946 20.2818 13.8715 21.5136 14.195C22.7453 14.5187 24.0743 15.8457 24.0743 15.8457L25.2737 14.6482L25.6625 15.8457C25.6625 15.8457 26.8721 13.562 26.8721 11.2317C26.8721 11.2317 25.0129 12.7401 23.3936 9.92276C22.8101 8.1751 12.8911 6.0389 12.3724 1.96069C12.3724 1.96069 10.6868 5.71523 14.6415 7.7867L10.6868 5.97416C10.6868 5.97416 10.9424 7.44384 12.1629 8.60904C8.85529 9.20883 6.63996 10.9274 5.15915 12.9923C5.20777 13.0781 5.24076 13.1783 5.25109 13.2936C5.32424 14.0972 4.72397 14.9509 4.0811 15.3828C3.95732 15.4659 3.82952 15.5408 3.70058 15.6133C2.35861 18.7669 2.21159 21.9918 2.24286 23.0761C4.09731 33.9719 16.2777 34.0832 16.4234 34.0832C21.7416 34.0832 26.3572 30.8242 28.3615 26.2144L28.3637 26.2109L28.3643 26.2082C28.8334 25.1277 29.1596 23.9729 29.3171 22.7686L29.3174 22.7682C30.0921 17.5951 28.5428 15.2678 28.5428 15.2678Z" fill="#451065"/>
<mask id="mask0_564_5278" style="mask-type:luminance" maskUnits="userSpaceOnUse" x="2" y="1" width="28" height="34">
<path d="M14.6414 7.78656L10.6868 5.97402C10.6868 5.97402 10.9424 7.4437 12.1628 8.6089C2.81906 10.3034 2.18064 20.9204 2.24275 23.076C4.0972 33.9718 16.2777 34.0831 16.4235 34.0831C21.7415 34.0831 26.3571 30.8242 28.3616 26.2142L28.3637 26.2109L28.3642 26.2081C28.8333 25.1275 29.1595 23.9729 29.3171 22.7686L29.3173 22.7682C30.092 17.595 28.5429 15.2678 28.5429 15.2678C28.4162 16.7246 28.1938 18.3507 27.8201 20.1032C27.5145 21.5377 27.1517 22.8494 26.7706 24.0285C27.155 23.857 27.5396 23.6855 27.9241 23.5139C27.7746 24.48 27.1529 27.3799 24.9189 29.0721C23.2906 30.2532 21.2663 30.975 19.0642 31.028H19.0605C18.976 31.0293 18.8912 31.0304 18.8055 31.0304C13.2714 31.0304 8.78361 26.8103 8.78361 21.6047C8.78361 17.6863 11.4505 13.8387 15.5663 13.2717C15.8905 13.7243 16.3492 14.1952 17.0402 14.195C19.3118 14.1944 20.2817 13.8714 21.5135 14.195C22.7453 14.5187 24.0743 15.8457 24.0743 15.8457L25.2736 14.6482L25.6626 15.8457C25.6626 15.8457 26.8722 13.562 26.8722 11.2316C26.8722 11.2316 25.013 12.7399 23.3935 9.92276C22.81 8.17496 12.891 6.03875 12.3723 1.96069C12.3723 1.96069 10.6868 5.71509 14.6414 7.78656Z" fill="#8A267E"/>
</mask>
<g mask="url(#mask0_564_5278)">
<path d="M10.9844 5.69043L24.4267 11.8922L25.4791 14.6478C24.9577 13.9626 24.1123 13.0254 22.8479 12.2818C20.549 10.93 18.6924 11.2937 16.677 10.7699C14.9519 10.3213 12.2281 9.1097 10.9844 5.69043Z" fill="#8A267E"/>
</g>
<mask id="mask1_564_5278" style="mask-type:luminance" maskUnits="userSpaceOnUse" x="2" y="1" width="28" height="34">
<path d="M14.6414 7.78656L10.6868 5.97402C10.6868 5.97402 10.9424 7.4437 12.1628 8.6089C2.81906 10.3034 2.18064 20.9204 2.24275 23.076C4.0972 33.9718 16.2777 34.0831 16.4235 34.0831C21.7415 34.0831 26.3571 30.8242 28.3616 26.2142L28.3637 26.2109L28.3642 26.2081C28.8333 25.1275 29.1595 23.9729 29.3171 22.7686L29.3173 22.7682C30.092 17.595 28.5429 15.2678 28.5429 15.2678C28.4162 16.7246 28.1938 18.3507 27.8201 20.1032C27.5145 21.5377 27.1517 22.8494 26.7706 24.0285C27.155 23.857 27.5396 23.6855 27.9241 23.5139C27.7746 24.48 27.1529 27.3799 24.9189 29.0721C23.2906 30.2532 21.2663 30.975 19.0642 31.028H19.0605C18.976 31.0293 18.8912 31.0304 18.8055 31.0304C13.2714 31.0304 8.78361 26.8103 8.78361 21.6047C8.78361 17.6863 11.4505 13.8387 15.5663 13.2717C15.8905 13.7243 16.3492 14.1952 17.0402 14.195C19.3118 14.1944 20.2817 13.8714 21.5135 14.195C22.7453 14.5187 24.0743 15.8457 24.0743 15.8457L25.2736 14.6482L25.6626 15.8457C25.6626 15.8457 26.8722 13.562 26.8722 11.2316C26.8722 11.2316 25.013 12.7399 23.3935 9.92276C22.81 8.17496 12.891 6.03875 12.3723 1.96069C12.3723 1.96069 10.6868 5.71509 14.6414 7.78656Z" fill="#781C6D"/>
</mask>
<g mask="url(#mask1_564_5278)">
<path d="M11.7816 5.14136L25.2239 11.3432L26.2763 14.0988C25.7549 13.4135 24.9095 12.4763 23.6452 11.7327C21.3462 10.3809 19.4896 10.7447 17.4742 10.2208C15.7491 9.77223 13.0253 8.56063 11.7816 5.14136Z" fill="#781C6D"/>
</g>
<mask id="mask2_564_5278" style="mask-type:luminance" maskUnits="userSpaceOnUse" x="2" y="1" width="28" height="34">
<path d="M14.6414 7.78656L10.6868 5.97402C10.6868 5.97402 10.9424 7.4437 12.1628 8.6089C2.81906 10.3034 2.18064 20.9204 2.24275 23.076C4.0972 33.9718 16.2777 34.0831 16.4235 34.0831C21.7415 34.0831 26.3571 30.8242 28.3616 26.2142L28.3637 26.2109L28.3642 26.2081C28.8333 25.1275 29.1595 23.9729 29.3171 22.7686L29.3173 22.7682C30.092 17.595 28.5429 15.2678 28.5429 15.2678C28.4162 16.7246 28.1938 18.3507 27.8201 20.1032C27.5145 21.5377 27.1517 22.8494 26.7706 24.0285C27.155 23.857 27.5396 23.6855 27.9241 23.5139C27.7746 24.48 27.1529 27.3799 24.9189 29.0721C23.2906 30.2532 21.2663 30.975 19.0642 31.028H19.0605C18.976 31.0293 18.8912 31.0304 18.8055 31.0304C13.2714 31.0304 8.78361 26.8103 8.78361 21.6047C8.78361 17.6863 11.4505 13.8387 15.5663 13.2717C15.8905 13.7243 16.3492 14.1952 17.0402 14.195C19.3118 14.1944 20.2817 13.8714 21.5135 14.195C22.7453 14.5187 24.0743 15.8457 24.0743 15.8457L25.2736 14.6482L25.6626 15.8457C25.6626 15.8457 26.8722 13.562 26.8722 11.2316C26.8722 11.2316 25.013 12.7399 23.3935 9.92276C22.81 8.17496 12.891 6.03875 12.3723 1.96069C12.3723 1.96069 10.6868 5.71509 14.6414 7.78656Z" fill="#C0177B"/>
</mask>
<g mask="url(#mask2_564_5278)">
<path d="M12.6747 0.954346C12.6747 0.954346 12.8629 3.7724 15.9498 5.20541C19.037 6.63828 23.8426 8.22425 24.3948 9.83857C24.9469 11.4526 27.4531 9.95544 27.4531 9.95544C27.4531 9.95544 26.643 15.5702 25.8298 16.3822L25.2735 14.648L25.1018 14.1681C24.7189 13.0041 23.9291 12.0133 22.8688 11.3966C22.3514 11.0959 21.705 10.8014 20.9026 10.5549C19.5345 10.1346 16.8969 9.02712 14.6413 7.78658C14.3002 7.59883 13.9274 7.41967 13.6284 7.19682C11.4011 5.53681 10.2538 3.37154 12.6747 0.954346Z" fill="#C0177B"/>
</g>
<mask id="mask3_564_5278" style="mask-type:luminance" maskUnits="userSpaceOnUse" x="12" y="1" width="15" height="15">
<path d="M14.4762 7.69719C14.5317 7.72683 14.587 7.75662 14.6414 7.78656C16.897 9.02723 19.5346 10.1346 20.9026 10.5551C21.7051 10.8015 22.3515 11.0958 22.8687 11.3967C23.929 12.0134 24.719 13.004 25.1017 14.1682L25.2735 14.6482L25.6625 15.8457C25.6625 15.8457 26.8721 13.562 26.8721 11.2316C26.8721 11.2316 25.0129 12.7399 23.3934 9.92276C22.8099 8.17496 12.8909 6.03875 12.3723 1.96069C12.3723 1.96069 10.7344 5.60911 14.4762 7.69719Z" fill="#E84A86"/>
</mask>
<g mask="url(#mask3_564_5278)">
<path d="M25.7155 15.9477C25.7155 15.9477 26.5286 15.0561 26.098 13.2889C25.6676 11.5217 22.5423 10.821 21.9204 10.2001C21.2985 9.57908 21.9204 9.32444 21.9204 9.32444C21.9204 9.32444 9.27542 4.70717 12.9589 1.0294C16.6423 -2.64852 25.9387 7.36611 25.9387 7.36611L29.5344 9.94528V12.843C29.5344 13.0659 25.7155 15.9477 25.7155 15.9477Z" fill="#E84A86"/>
</g>
<mask id="mask4_564_5278" style="mask-type:luminance" maskUnits="userSpaceOnUse" x="2" y="1" width="28" height="34">
<path d="M14.6414 7.78656L10.6868 5.97402C10.6868 5.97402 10.9424 7.4437 12.1628 8.6089C2.81906 10.3034 2.18064 20.9204 2.24275 23.076C4.0972 33.9718 16.2777 34.0831 16.4235 34.0831C21.7415 34.0831 26.3571 30.8242 28.3616 26.2142L28.3637 26.2109L28.3642 26.2081C28.8333 25.1275 29.1595 23.9729 29.3171 22.7686L29.3173 22.7682C30.092 17.595 28.5429 15.2678 28.5429 15.2678C28.4162 16.7246 28.1938 18.3507 27.8201 20.1032C27.5145 21.5377 27.1517 22.8494 26.7706 24.0285C27.155 23.857 27.5396 23.6855 27.9241 23.5139C27.7746 24.48 27.1529 27.3799 24.9189 29.0721C23.2906 30.2532 21.2663 30.975 19.0642 31.028H19.0605C18.976 31.0293 18.8912 31.0304 18.8055 31.0304C13.2714 31.0304 8.78361 26.8103 8.78361 21.6047C8.78361 17.6863 11.4505 13.8387 15.5663 13.2717C15.8905 13.7243 16.3492 14.1952 17.0402 14.195C19.3118 14.1944 20.2817 13.8714 21.5135 14.195C22.7453 14.5187 24.0743 15.8457 24.0743 15.8457L25.2736 14.6482L25.6626 15.8457C25.6626 15.8457 26.8722 13.562 26.8722 11.2316C26.8722 11.2316 25.013 12.7399 23.3935 9.92276C22.81 8.17496 12.891 6.03875 12.3723 1.96069C12.3723 1.96069 10.6868 5.71509 14.6414 7.78656Z" fill="#2B0042"/>
</mask>
<g mask="url(#mask4_564_5278)">
<path d="M14.0271 29.815C14.0271 29.815 23.8816 35.4511 28.9045 24.7041C33.9274 13.9572 28.3782 14.5782 28.3782 14.5782L23.164 20.5487L14.0271 29.815Z" fill="#2B0042"/>
</g>
<path d="M21.5134 14.1948C21.5134 14.1948 18.5485 14.1063 14.1453 14.8098C14.1453 14.8098 15.5544 12.8754 17.5798 12.1719C19.6054 11.4684 21.5134 14.1948 21.5134 14.1948Z" fill="#451065"/>
<path d="M14.1453 14.81C14.1453 14.81 21.983 13.3738 24.0965 13.6816C24.0965 13.6816 20.5391 12.8847 18.4311 12.6997C15.9286 12.4797 14.1453 14.81 14.1453 14.81Z" fill="#781C6D"/>
<path d="M24.0967 13.6816L14.1454 14.81C14.1454 14.81 15.1801 12.2892 24.0967 13.6816Z" fill="#C0177B"/>
<path d="M18.9448 14.2605L24.0967 13.6816C24.0967 13.6816 23.2371 14.529 24.0743 15.8456C24.0743 15.8456 21.763 14.2386 18.9448 14.2605Z" fill="#310C4A"/>
<path d="M11.464 28.417C9.50617 26.5966 8.28253 24.0001 8.28253 21.1182C8.28253 16.4552 11.4861 12.5394 15.8157 11.4454L15.833 11.4315C9.77109 8.09816 16.3758 10.9118 9.90348 12.7588C9.50028 12.8735 9.12621 13.0001 8.77996 13.1358C4.44798 14.8286 4.31215 17.9461 4.31215 17.9461L4.29121 17.975C4.29695 18.0145 4.30397 18.0539 4.31215 18.0935C4.31215 18.0935 4.75249 17.272 5.83771 17.214C6.92422 17.1548 7.27635 18.8556 5.83771 20.1447C4.40036 21.4348 3.54865 24.3365 4.42948 26.6523C4.42948 26.6523 4.48757 25.5965 5.63332 25.274C6.77777 24.9515 7.39368 28.7036 9.18416 31.1654C9.18416 31.1654 9.15518 30.1399 10.3881 30.2572C10.4114 30.2593 10.4346 30.2629 10.459 30.2688C10.8668 30.3498 11.3745 30.799 12.0485 31.3511C12.0497 31.3511 12.0508 31.3523 12.0521 31.3535C13.4405 32.4882 15.5321 34.0532 18.9019 33.7446C18.9019 33.7446 17.8154 33.3641 18.1083 32.573C18.128 32.5184 18.1862 32.4743 18.2768 32.4359C18.8752 32.1831 19.6122 32.1724 20.2439 32.0425C22.2659 31.6272 24.1662 30.7457 25.5303 29.1616C25.7512 28.9049 25.9561 28.6345 26.1446 28.3533C26.8278 27.3321 27.4118 26.028 27.7534 24.3563C27.7488 24.3713 27.7429 24.3852 27.7371 24.4004C27.659 24.6032 27.584 24.8064 27.4909 25.003C27.3941 25.2072 27.2951 25.4105 27.1938 25.6125C27.102 25.7957 27.0076 25.9775 26.9039 26.1542C26.6526 26.5823 26.3692 26.9917 26.0571 27.3778C25.4352 28.1473 24.6985 28.8246 23.8791 29.38C22.2425 30.4889 20.2611 31.0958 18.2755 31.0958C15.6437 31.0958 13.2489 30.0794 11.464 28.417Z" fill="#53009C"/>
<path d="M24.6246 32.1354C24.6827 32.1053 24.742 32.0728 24.8025 32.0379C27.1405 30.7249 28.5982 28.1824 29.2294 25.6496C29.3713 25.0806 29.5585 24.428 29.5585 23.8377C29.4852 23.5186 29.4202 23.2263 29.3667 22.9802C29.0239 26.6314 27.2565 29.8708 24.6246 32.1354Z" fill="#781C6D"/>
<path d="M11.0202 34.7041C9.84544 33.538 9.05756 32.1388 8.62654 31.3116C7.86305 29.8462 6.3362 28.9087 5.27995 29.9924C5.13006 30.1468 5.01976 30.3068 4.94188 30.468C4.55031 31.2675 4.93715 32.0994 5.08818 32.3708C5.02435 32.1053 4.88953 31.3348 5.35669 30.9474C5.44619 30.8742 5.55649 30.8139 5.69476 30.7745C5.71097 30.7686 5.72847 30.7639 5.74482 30.7605C5.89241 30.7234 6.06654 30.7093 6.27466 30.7234C7.37968 30.7964 8.06414 32.5484 9.4236 34.0275C10.1963 34.8699 11.1876 35.6229 12.5992 35.9293C12.5819 35.92 12.5644 35.9095 12.5482 35.9002C11.9799 35.5661 11.471 35.1519 11.0202 34.7041Z" fill="#310C4A"/>
<path d="M2.77472 27.6941C2.71548 27.2914 2.67604 26.9017 2.65166 26.5246C2.42847 23.1519 3.40224 20.8546 2.16814 20.408C2.05784 20.3685 1.94625 20.3512 1.83595 20.3521C1.18749 20.3615 0.54849 21.031 0.061533 21.6958C0.0487674 21.7143 0.0360018 21.7318 0.0232362 21.7491C0.00803228 21.9151 0 22.0832 0 22.2538C0 22.2538 0.0139131 22.2422 0.0417392 22.2237C0.116181 22.1714 0.287011 22.0589 0.504169 21.9765C0.541462 21.9615 0.579758 21.9476 0.619346 21.9348C0.627378 21.9325 0.635554 21.9301 0.642582 21.9278C0.672704 21.9185 0.704115 21.9103 0.735527 21.9035C1.07016 21.8257 1.46288 21.8535 1.78474 22.2108C1.95084 22.3966 2.09729 22.6715 2.20773 23.066C2.43077 23.8677 2.44827 25.0128 2.5633 26.2831C2.61795 26.8922 2.69569 27.5304 2.82822 28.1733C2.8212 28.0456 2.80728 27.9099 2.78519 27.7649C2.78175 27.7417 2.77816 27.7173 2.77472 27.6941Z" fill="#310C4A"/>
<path d="M2.07994 17.331C2.12526 17.2753 2.17403 17.2184 2.22523 17.1604C2.36809 17.0015 2.53304 16.8345 2.71319 16.6616C4.28881 15.159 7.02538 13.2703 5.9842 12.6112C5.8006 12.4952 5.60539 12.4094 5.40559 12.348C4.47241 12.0578 3.44757 12.2852 3.14192 12.3664C3.10821 12.3758 3.08397 12.3826 3.06877 12.3862C3.30342 12.3653 4.32611 12.3387 4.50497 13.4338C4.52247 13.5394 4.53165 13.6567 4.53165 13.7843C4.53165 14.463 3.73918 15.325 2.81776 16.4028C2.52257 16.7486 2.21476 17.1152 1.9137 17.5062C1.96031 17.4691 2.01596 17.4099 2.07994 17.331Z" fill="#310C4A"/>
<path d="M41.7135 24.1261H45.3314V26.2016H39V15H41.7135V24.1261Z" fill="white"/>
<path d="M52.948 17.1549V19.4998H56.7405V21.5435H52.948V24.0311H57.2166V26.2016H50.2345V15H57.2166V17.1549H52.948Z" fill="white"/>
<path d="M64.4997 15L67.245 23.429L69.9902 15H72.894L68.9905 26.2016H65.4838L61.5959 15H64.4997Z" fill="white"/>
<path d="M83.8428 22.0983L82.4464 17.9789L81.0342 22.0983H83.8428ZM84.5411 24.1582H80.3361L79.6378 26.202H76.7815L80.8915 15.0796H84.0173L88.1271 26.202H85.2392L84.5411 24.1582Z" fill="white"/>
<path d="M102.773 26.2016H100.06L95.5216 19.3255V26.2016H92.8082V15H95.5216L100.06 21.9395V15H102.773V26.2016Z" fill="white"/>
<path d="M114.547 22.0983L113.151 17.9789L111.739 22.0983H114.547ZM115.246 24.1582H111.041L110.342 26.202H107.486L111.596 15.0796H114.722L118.832 26.202H115.944L115.246 24.1582Z" fill="white"/>
</g>
<defs>
<clipPath id="clip0_564_5278">
<rect width="120.686" height="37.796" fill="white"/>
</clipPath>
</defs>
</svg>