<svg xmlns="http://www.w3.org/2000/svg" width="207" height="48" viewBox="0 0 207 48" fill="none">
<g clip-path="url(#clip0_1130_2205)">
<path d="M6.01067 0.893406H0V47.1604H6.01067V0.893406Z" fill="white"/>
<path d="M28.3867 30.2826H25.2918C18.8987 30.2826 13.6986 24.9652 13.6986 18.4279V0.879055H31.485C37.8781 0.879055 43.0782 6.19644 43.0782 12.7337V17.3228H37.0676V12.7337C37.0676 9.58708 34.5622 7.02526 31.485 7.02526H19.7092V18.4279C19.7092 21.5745 22.2146 24.1363 25.2918 24.1363H28.3867V30.2826ZM43.6783 35.2663V29.7444C43.6783 23.2071 38.4781 17.8897 32.085 17.8897H28.3867V24.0359H32.085C35.1623 24.0359 37.6676 26.5977 37.6676 29.7444V35.2663C37.6676 38.4129 35.1623 40.9747 32.085 40.9747H19.7092V30.6844H13.6986V47.1209H32.085C38.4781 47.1209 43.6783 41.8036 43.6783 35.2663Z" fill="white"/>
<path d="M64.1489 48H63.1489C55.3838 48 49.0644 41.538 49.0644 33.5978V14.3986C49.0644 6.45836 55.3838 -0.00358963 63.1489 -0.00358963H64.1489C71.914 -0.00358963 78.2335 6.45836 78.2335 14.3986H72.2228C72.2228 9.849 68.6017 6.14621 64.1524 6.14621H63.1524C58.7032 6.14621 55.0821 9.849 55.0821 14.3986V33.5978C55.0821 38.1474 58.7032 41.8502 63.1524 41.8502H64.1524C68.6017 41.8502 72.2228 38.1474 72.2228 33.5978H78.2335C78.2335 41.538 71.914 48 64.1489 48Z" fill="white"/>
<path d="M64.1489 48H63.1489C55.3838 48 49.0644 41.538 49.0644 33.5978V14.3986C49.0644 6.45837 55.3838 -0.00358582 63.1489 -0.00358582H64.1489C71.914 -0.00358582 78.2335 6.45837 78.2335 14.3986H72.2228C72.2228 9.84901 68.6017 6.14621 64.1524 6.14621H63.1524C58.7032 6.14621 55.0821 9.84901 55.0821 14.3986V33.5978C55.0821 38.1474 58.7032 41.8502 63.1524 41.8502H64.1524C68.6017 41.8502 72.2228 38.1474 72.2228 33.5978H78.2335C78.2335 41.538 71.914 48 64.1489 48Z" fill="white"/>
</g>
<defs>
<clipPath id="clip0_1130_2205">
<rect width="78.2335" height="48" fill="white"/>
</clipPath>
</defs>
</svg>