<svg width="200" height="200" viewBox="0 0 200 200" fill="none" xmlns="http://www.w3.org/2000/svg">
  <path d="M40 60C40 48.9543 48.9543 40 60 40H140C151.046 40 160 48.9543 160 60V140C160 151.046 151.046 160 140 160H60C48.9543 160 40 151.046 40 140V60Z" fill="currentColor" fill-opacity="0.1"/>
  <path d="M80 80C80 68.9543 88.9543 60 100 60C111.046 60 120 68.9543 120 80V120C120 131.046 111.046 140 100 140C88.9543 140 80 131.046 80 120V80Z" fill="currentColor"/>
  <circle cx="100" cy="100" r="10" fill="currentColor"/>
</svg> 