<svg width="200" height="200" viewBox="0 0 200 200" fill="none" xmlns="http://www.w3.org/2000/svg">
  <path d="M100 20C55.8172 20 20 55.8172 20 100C20 144.183 55.8172 180 100 180C144.183 180 180 144.183 180 100C180 55.8172 144.183 20 100 20Z" fill="currentColor" fill-opacity="0.1"/>
  <path d="M140 80C140 102.091 122.091 120 100 120C77.9086 120 60 102.091 60 80C60 57.9086 77.9086 40 100 40C122.091 40 140 57.9086 140 80Z" fill="currentColor"/>
  <path d="M140 120C140 142.091 122.091 160 100 160C77.9086 160 60 142.091 60 120C60 97.9086 77.9086 80 100 80C122.091 80 140 97.9086 140 120Z" fill="currentColor"/>
</svg> 