<?xml version="1.0" standalone="no"?>
<!DOCTYPE svg PUBLIC "-//W3C//DTD SVG 20010904//EN"
 "http://www.w3.org/TR/2001/REC-SVG-20010904/DTD/svg10.dtd">
<svg version="1.0" xmlns="http://www.w3.org/2000/svg"
 width="1065.000000pt" height="333.000000pt" viewBox="0 0 1065.000000 333.000000"
 preserveAspectRatio="xMidYMid meet">

<g transform="translate(0.000000,333.000000) scale(0.100000,-0.100000)"
fill="#000000" stroke="none">
<path d="M1160 2134 c0 -6 -21 -10 -49 -10 l-49 1 20 -36 c38 -69 119 -168
171 -211 28 -24 61 -51 71 -60 11 -10 56 -35 100 -57 328 -161 706 -101 959
151 59 59 147 181 147 203 0 6 -35 10 -85 10 -47 0 -85 3 -85 8 0 12 -28 8
-34 -5 -5 -10 -7 -10 -12 0 -3 6 -10 12 -15 12 -6 0 -7 -5 -3 -11 4 -8 0 -8
-15 0 -11 7 -21 8 -21 2 0 -5 -14 -6 -34 -1 -19 4 -37 6 -39 3 -9 -8 -62 -9
-83 -2 -13 4 -26 3 -33 -4 -8 -8 -11 -8 -11 0 0 8 -10 9 -36 1 -20 -5 -40 -6
-43 -1 -9 12 -41 16 -41 4 0 -5 -58 -10 -136 -10 -75 -1 -133 2 -131 6 3 4
-15 9 -39 10 -24 1 -42 -3 -38 -8 3 -5 0 -9 -5 -9 -6 0 -11 5 -11 11 0 8 -4 8
-13 0 -10 -8 -17 -7 -25 1 -8 8 -12 9 -12 1 0 -12 -25 -12 -36 0 -4 4 -13 2
-21 -4 -7 -6 -13 -8 -13 -3 0 5 -22 9 -50 9 -27 0 -50 -3 -50 -7 0 -4 -11 -3
-24 2 -15 5 -27 5 -35 -3 -8 -8 -11 -8 -11 1 0 7 -5 12 -11 12 -5 0 -7 -5 -3
-11 5 -8 1 -8 -13 0 -11 6 -23 8 -26 5 -11 -11 -62 -11 -69 0 -5 7 -8 7 -8 0z"/>
<path d="M2605 1645 c-376 -84 -636 -384 -662 -760 -13 -210 65 -441 202 -593
26 -29 51 -52 57 -52 13 0 38 26 38 40 0 6 4 8 10 5 5 -3 7 0 5 7 -5 13 38 82
46 73 3 -2 15 16 28 41 15 28 29 43 38 40 7 -3 13 1 13 10 0 9 5 12 12 8 7 -4
8 -3 4 5 -6 9 -11 9 -22 0 -26 -22 -14 1 22 41 20 22 33 40 30 40 -4 0 1 11
10 25 9 14 21 22 26 19 5 -3 4 3 -3 14 -7 12 -16 19 -19 17 -3 -2 -16 30 -29
71 -34 108 -27 224 17 310 75 147 254 239 401 205 35 -7 47 -7 55 3 6 8 18 16
26 19 12 4 11 6 -2 6 -17 1 -17 2 0 20 35 39 44 52 39 58 -3 3 5 15 18 28 14
12 22 25 18 28 -3 4 1 7 11 7 9 0 14 5 11 10 -3 6 4 14 17 19 13 6 18 10 11
10 -7 1 -10 8 -6 16 3 9 8 13 11 10 3 -3 15 14 27 37 12 24 27 43 35 43 7 0
14 14 16 33 3 26 0 32 -14 32 -10 0 -22 3 -26 8 -4 4 -11 7 -14 8 -4 0 -20 6
-37 13 -93 39 -304 52 -420 26z m-280 -1114 c3 -5 2 -12 -3 -15 -5 -3 -9 1 -9
9 0 17 3 19 12 6z"/>
<path d="M1416 1405 c4 -8 11 -15 16 -15 6 0 5 6 -2 15 -7 8 -14 15 -16 15 -2
0 -1 -7 2 -15z"/>
<path d="M3073 1355 c-3 -9 -3 -19 1 -22 3 -4 6 1 6 11 0 10 5 14 12 10 7 -4
8 -3 4 4 -10 16 -15 15 -23 -3z"/>
<path d="M3044 1352 c3 -6 -2 -15 -11 -21 -10 -6 -13 -11 -7 -11 20 0 37 27
23 36 -7 4 -9 3 -5 -4z"/>
<path d="M1541 1234 c0 -11 3 -14 6 -6 3 7 2 16 -1 19 -3 4 -6 -2 -5 -13z"/>
<path d="M1570 1191 c0 -6 4 -13 10 -16 6 -3 7 1 4 9 -7 18 -14 21 -14 7z"/>
<path d="M2460 505 c-19 -22 -8 -25 13 -3 9 10 13 18 8 18 -5 0 -14 -7 -21
-15z"/>
<path d="M2400 489 c0 -5 5 -7 10 -4 6 3 10 8 10 11 0 2 -4 4 -10 4 -5 0 -10
-5 -10 -11z"/>
<path d="M2220 216 c0 -2 7 -7 16 -10 8 -3 12 -2 9 4 -6 10 -25 14 -25 6z"/>
</g>
</svg>
