<svg xmlns="http://www.w3.org/2000/svg" width="133.643" height="30" viewBox="0 0 133.643 30">
  <g id="protocol-polkadot" transform="translate(0 -0.2)">
    <path id="Path_5" data-name="Path 5" d="M31.277,12.749a7.9,7.9,0,0,0-3.594.82A7.741,7.741,0,0,0,24.908,15.9a11.689,11.689,0,0,0-2.585,7.378,6.885,6.885,0,0,0,1.64,4.729A5.51,5.51,0,0,0,25.917,29.4a5.906,5.906,0,0,0,2.333.441,7.143,7.143,0,0,0,3.405-.82,7.119,7.119,0,0,0,2.712-2.207,11.933,11.933,0,0,0,2.775-7.756,7.391,7.391,0,0,0-1.387-4.666A5.717,5.717,0,0,0,31.277,12.749ZM31.4,25.423a4.176,4.176,0,0,1-1.387.946,3.628,3.628,0,0,1-1.64.315,3.571,3.571,0,0,1-1.135-.189,1.9,1.9,0,0,1-.883-.694,3.827,3.827,0,0,1-.694-2.522,9.054,9.054,0,0,1,1.576-5.36,4.532,4.532,0,0,1,1.7-1.576,4.664,4.664,0,0,1,2.27-.568c1.829,0,2.712,1.072,2.712,3.279A9.72,9.72,0,0,1,31.4,25.423Zm97.425-4.792a1.427,1.427,0,0,0-1.135.063,1.381,1.381,0,0,0-.757.82c-1.387,3.531-3.09,5.234-5.234,5.234-1.135,0-1.64-.946-1.64-2.775a40.044,40.044,0,0,1,.883-6.054l.441-2.081h4.288a1.546,1.546,0,0,0,1.009-.378,1.42,1.42,0,0,0,.5-.883,1.3,1.3,0,0,0,0-.694,1.485,1.485,0,0,0-.315-.631,1.7,1.7,0,0,0-.5-.441,1.137,1.137,0,0,0-.631-.126h-3.594l.694-3.468a1.29,1.29,0,0,0,0-.694,2.946,2.946,0,0,0-.315-.631,1.373,1.373,0,0,0-.568-.441,1.271,1.271,0,0,0-.694-.189,1.905,1.905,0,0,0-1.009.315,1.532,1.532,0,0,0-.568.883l-.946,4.162H108.65a7.9,7.9,0,0,0-3.594.82,7.312,7.312,0,0,0-2.775,2.4A11.689,11.689,0,0,0,99.7,23.216a8.3,8.3,0,0,0,.252,2.144,3.293,3.293,0,0,1-1.2.883,5.454,5.454,0,0,1-1.45.378,1.6,1.6,0,0,1-.757-.126,2.265,2.265,0,0,1-.631-.441,3,3,0,0,1-.378-1.766,30.413,30.413,0,0,1,.694-5.36L98.812,6.821a1.075,1.075,0,0,0,0-.631,2.24,2.24,0,0,0-.252-.568,1.473,1.473,0,0,0-.441-.441,2.24,2.24,0,0,0-.568-.252,1.075,1.075,0,0,0-.631,0l-.568.189a1.473,1.473,0,0,0-.441.441,2.24,2.24,0,0,0-.252.568l-1.513,7.378a6.893,6.893,0,0,0-3.531-.946,8.752,8.752,0,0,0-3.594.757,7.292,7.292,0,0,0-2.9,2.27,11.169,11.169,0,0,0-2.585,7.567,8.845,8.845,0,0,0,.378,2.585,3.53,3.53,0,0,1-2.207.82,1.739,1.739,0,0,1-1.387-.568,2.492,2.492,0,0,1-.441-1.766,23.474,23.474,0,0,1,.5-3.594,1.3,1.3,0,0,0,0-.694,1.888,1.888,0,0,0-.252-.631,1.7,1.7,0,0,0-.5-.441,1.217,1.217,0,0,0-.631-.189,1.874,1.874,0,0,0-1.135.252,1.591,1.591,0,0,0-.631.946A14.14,14.14,0,0,1,73.022,24.6a5.07,5.07,0,0,1-1.45,1.387,3.907,3.907,0,0,1-1.892.568,2.968,2.968,0,0,1-1.009-.252,1.824,1.824,0,0,1-.694-.694,5.53,5.53,0,0,1-.694-2.648A8.163,8.163,0,0,1,68.86,17.73a4.967,4.967,0,0,1,1.829-1.576,4.232,4.232,0,0,1,2.333-.5,6.277,6.277,0,0,1,2.4.5,1.085,1.085,0,0,0,.757.126,2.259,2.259,0,0,0,.694-.252,1.38,1.38,0,0,0,.568-.631,1.942,1.942,0,0,0,.189-.82,1.328,1.328,0,0,0-.315-.82,1.122,1.122,0,0,0-.694-.5,4.185,4.185,0,0,0-1.261-.378,14.617,14.617,0,0,0-2.4-.378,8.752,8.752,0,0,0-3.594.757,8.269,8.269,0,0,0-2.9,2.207,10.306,10.306,0,0,0-2.081,3.72C62.806,24.1,60.788,26.5,58.392,26.5a2.856,2.856,0,0,1-1.009-.189,2.6,2.6,0,0,1-.82-.631A3.54,3.54,0,0,1,56,23.721a2.145,2.145,0,0,1,.063-.631,8.353,8.353,0,0,0,3.657-2.775,6.508,6.508,0,0,0,1.45-4.1c0-2.522-1.324-3.72-4.1-3.72a7.046,7.046,0,0,0-2.775.568A6.642,6.642,0,0,0,51.96,14.64l1.7-7.882a1.3,1.3,0,0,0,0-.694,1.972,1.972,0,0,0-.315-.631,1.373,1.373,0,0,0-.568-.441,1.247,1.247,0,0,0-.694-.126,1.905,1.905,0,0,0-1.009.315,1.532,1.532,0,0,0-.568.883L45.843,27.756a1.3,1.3,0,0,0,0,.694,1.973,1.973,0,0,0,.315.631,1.373,1.373,0,0,0,.568.441,1.247,1.247,0,0,0,.694.126,1.546,1.546,0,0,0,1.009-.378,1.8,1.8,0,0,0,.5-.883l1.45-6.621a11.1,11.1,0,0,1,1.009-2.522,7.094,7.094,0,0,1,2.144-2.4,4.844,4.844,0,0,1,3.153-1.135,1.388,1.388,0,0,1,.5.063.966.966,0,0,1,.694.694,1.229,1.229,0,0,1,.063.5,4.593,4.593,0,0,1-.441,1.513,3.666,3.666,0,0,1-1.072,1.135A6.638,6.638,0,0,1,53.158,21.2a9.67,9.67,0,0,0-.189,2.018,8.373,8.373,0,0,0,1.387,4.855,5.391,5.391,0,0,0,1.766,1.387,4.429,4.429,0,0,0,2.207.378,6.337,6.337,0,0,0,3.027-.757,7.344,7.344,0,0,0,2.459-1.955l.631-.694a6.542,6.542,0,0,0,.946,1.576A5.391,5.391,0,0,0,67.157,29.4a5.312,5.312,0,0,0,2.207.441,6.606,6.606,0,0,0,5.486-3.09c.631,2.081,2.144,3.09,4.666,3.09a5.841,5.841,0,0,0,3.847-1.45,4.994,4.994,0,0,0,3.594,1.324,6.606,6.606,0,0,0,5.486-3.09c.631,2.081,2.144,3.09,4.666,3.09a6.279,6.279,0,0,0,4.288-1.64,5.28,5.28,0,0,0,1.829,1.261,4.429,4.429,0,0,0,2.207.378,7.895,7.895,0,0,0,6.117-3.027,11.767,11.767,0,0,0,2.775-7.693,8.739,8.739,0,0,0-.631-3.342h4.162l-.378,1.829a43.2,43.2,0,0,0-1.009,6.369c0,3.91,1.64,5.864,4.792,5.864,3.594,0,6.306-2.4,8.2-7.126a1.841,1.841,0,0,0,.126-.568,1.841,1.841,0,0,0-.126-.568.981.981,0,0,0-.378-.5C128.891,20.82,129.017,20.694,128.828,20.631ZM93.137,18.739a14.818,14.818,0,0,1-2.459,6.054,4.335,4.335,0,0,1-3.405,1.955,2.644,2.644,0,0,1-1.009-.252,1.824,1.824,0,0,1-.694-.694,4.768,4.768,0,0,1-.631-2.585,8.163,8.163,0,0,1,1.576-5.234,5.07,5.07,0,0,1,1.45-1.387,4.881,4.881,0,0,1,1.892-.694,5.5,5.5,0,0,1,2.018.189A4.948,4.948,0,0,1,93.642,17.1Zm17.53,3.72a14.019,14.019,0,0,1-1.829,2.9,4.36,4.36,0,0,1-1.387,1.009,3.754,3.754,0,0,1-1.7.378,3.571,3.571,0,0,1-1.135-.189,1.9,1.9,0,0,1-.883-.694,3.827,3.827,0,0,1-.694-2.522,9.054,9.054,0,0,1,1.576-5.36,5.1,5.1,0,0,1,1.7-1.576,4.664,4.664,0,0,1,2.27-.568c1.829,0,2.712,1.072,2.712,3.279a12.053,12.053,0,0,1-.631,3.342ZM44.961,4.992a1.905,1.905,0,0,0-1.009.315,1.532,1.532,0,0,0-.568.883L38.718,27.883a1.3,1.3,0,0,0,0,.694,1.972,1.972,0,0,0,.315.631,1.373,1.373,0,0,0,.568.441,1.247,1.247,0,0,0,.694.126,1.905,1.905,0,0,0,1.009-.315,1.532,1.532,0,0,0,.568-.883L46.537,6.884a1.3,1.3,0,0,0,0-.694,1.973,1.973,0,0,0-.315-.631,2.265,2.265,0,0,0-.631-.441A2.24,2.24,0,0,0,44.961,4.992ZM11.477.2A11.519,11.519,0,0,0,0,11.614a10.732,10.732,0,0,0,.631,3.72,1.6,1.6,0,0,0,.82.883,1.6,1.6,0,0,0,1.2.126,1.6,1.6,0,0,0,.883-.82,1.583,1.583,0,0,0,.063-1.2,7.554,7.554,0,0,1-.441-2.9A8.769,8.769,0,0,1,4.6,6.947a8.183,8.183,0,0,1,3.657-2.9,7.906,7.906,0,0,1,4.666-.441,7.947,7.947,0,0,1,4.288,2.144,8.629,8.629,0,0,1,2.333,4.1,7.869,7.869,0,0,1-.315,4.666,7.893,7.893,0,0,1-2.838,3.72,7.988,7.988,0,0,1-4.414,1.576s-1.576.126-2.4.189c-.315.063-.568.126-.883.189H8.576v-.126l.252-1.324,1.513-6.81a2.014,2.014,0,0,0-.189-1.2,1.645,1.645,0,0,0-1.009-.694,2.014,2.014,0,0,0-1.2.189,1.645,1.645,0,0,0-.694,1.009S3.657,27.82,3.657,27.946a1.069,1.069,0,0,0,0,.631,2.24,2.24,0,0,0,.252.568,1.473,1.473,0,0,0,.441.441,2.24,2.24,0,0,0,.568.252,1.075,1.075,0,0,0,.631,0,2.24,2.24,0,0,0,.568-.252,1.473,1.473,0,0,0,.441-.441,2.24,2.24,0,0,0,.252-.568c.063-.189.5-2.4.5-2.4a4.051,4.051,0,0,1,1.2-2.144,4.273,4.273,0,0,1,2.207-1.072c.315-.063,1.829-.126,1.829-.126a11.469,11.469,0,0,0,7.567-3.847,11.23,11.23,0,0,0,2.838-7.945,11.4,11.4,0,0,0-3.405-7.693A12.209,12.209,0,0,0,11.477.2Z" transform="translate(0 0)" fill="#fff"/>
    <path id="Path_6" data-name="Path 6" d="M208.242,41.772a1.537,1.537,0,0,0-.757,0,1.4,1.4,0,0,0-.694.315,1.92,1.92,0,0,0-.5.5,2.332,2.332,0,0,0-.315.694,1.538,1.538,0,0,0,0,.757,1.4,1.4,0,0,0,.315.694,1.92,1.92,0,0,0,.5.5,1.323,1.323,0,0,0,.694.252,1.537,1.537,0,0,0,.757,0,2.259,2.259,0,0,0,.694-.252,1.919,1.919,0,0,0,.5-.5,1.322,1.322,0,0,0,.252-.694,1.988,1.988,0,0,0-.315-1.45A1.7,1.7,0,0,0,208.242,41.772Z" transform="translate(-76.072 -15.34)" fill="#fff"/>
  </g>
</svg>
