<svg xmlns="http://www.w3.org/2000/svg" xmlns:xlink="http://www.w3.org/1999/xlink" width="740.539" height="683.323" viewBox="0 0 740.539 683.323">
  <defs>
    <linearGradient id="linear-gradient" x1="0.5" x2="0.5" y2="1" gradientUnits="objectBoundingBox">
      <stop offset="0" stop-color="#ff00c1" stop-opacity="0"/>
      <stop offset="1" stop-color="#00fff9"/>
    </linearGradient>
    <linearGradient id="linear-gradient-2" x1="0.5" x2="0.5" y2="1" gradientUnits="objectBoundingBox">
      <stop offset="0" stop-color="#ff00c1" stop-opacity="0"/>
      <stop offset="1" stop-color="#726be2"/>
    </linearGradient>
    <linearGradient id="linear-gradient-3" x1="0.5" x2="0.5" y2="1" gradientUnits="objectBoundingBox">
      <stop offset="0" stop-color="#ff00c1" stop-opacity="0"/>
      <stop offset="1" stop-color="#3bc4ec"/>
    </linearGradient>
    <linearGradient id="linear-gradient-4" x1="0.5" x2="0.5" y2="1" gradientUnits="objectBoundingBox">
      <stop offset="0" stop-color="#ff00c1" stop-opacity="0"/>
      <stop offset="1" stop-color="#fc18c1"/>
    </linearGradient>
  </defs>
  <g id="Image" transform="translate(-922.5 -79.086)">
    <g id="Group_17" data-name="Group 17" transform="translate(-4169 -9.449)">
      <path id="Exclusion_24" data-name="Exclusion 24" d="M217.226,268.573,0,143.431V130.35L217.226,0,435.539,130.35v13.081L217.226,268.573Zm.543-240.93L35.918,136.936l181.851,103.67L400.984,134.432,217.769,27.642Z" transform="translate(5244 462.876)" stroke="#fc18c1" stroke-width="5"/>
      <path id="Exclusion_25" data-name="Exclusion 25" d="M217.226,268.573,0,143.431V130.35L217.226,0,435.539,130.35v13.081L217.226,268.573Zm.543-240.93L35.918,136.936l181.851,103.67L400.984,134.432,217.769,27.642Z" transform="translate(5244 407.52)" stroke="#ba46d1" stroke-width="10"/>
      <path id="Exclusion_26" data-name="Exclusion 26" d="M217.226,268.573,0,143.431V130.35L217.226,0,435.539,130.35v13.081L217.226,268.573Zm.543-240.93L35.918,136.936l181.851,103.67L400.984,134.432,217.769,27.642Z" transform="translate(5244 352.163)" stroke="#827ddc" stroke-width="10"/>
      <path id="Exclusion_27" data-name="Exclusion 27" d="M217.226,268.573,0,143.431V130.35L217.226,0,435.539,130.35v13.081L217.226,268.573Zm.543-240.93L35.918,136.936l181.851,103.67L400.984,134.432,217.769,27.642Z" transform="translate(5244 296.806)" stroke="#3bc4ec" stroke-width="6"/>
      <path id="Exclusion_28" data-name="Exclusion 28" d="M217.226,268.573,0,143.431V130.35L217.226,0,435.539,130.35v13.081L217.226,268.573Zm.543-240.93L35.918,136.936l181.851,103.67L400.984,134.432,217.769,27.642Z" transform="translate(5244 241.449)" stroke="#31fff9" stroke-width="5"/>
      <g id="Group_12" data-name="Group 12" transform="translate(5244 462.877)">
        <path id="Exclusion_21" data-name="Exclusion 21" d="M217.226,268.573,0,143.431V130.35L217.226,0,435.539,130.35v13.081L217.226,268.573Zm.543-240.93L35.918,136.936l181.851,103.67L400.984,134.432,217.769,27.642Z" transform="translate(0 0)"/>
        <path id="Exclusion_22" data-name="Exclusion 22" d="M217.226,268.573,0,143.431V130.35L217.226,0,435.539,130.35v13.081L217.226,268.573Zm.543-240.93L35.918,136.936l181.851,103.67L400.984,134.432,217.769,27.642Z" transform="translate(0.461 0)" fill="none" stroke="#ff00c1" stroke-width="3"/>
        <path id="Exclusion_23" data-name="Exclusion 23" d="M217.226,268.573,0,143.431V130.35L217.226,0,435.539,130.35v13.081L217.226,268.573Zm.543-240.93L35.918,136.936l181.851,103.67L400.984,134.432,217.769,27.642Z" transform="translate(0.461 0)" fill="none" stroke="#ff00c1" stroke-width="1.5"/>
      </g>
      <g id="Group_11" data-name="Group 11" transform="translate(5244 407.52)">
        <path id="Exclusion_21-2" data-name="Exclusion 21" d="M217.226,268.573,0,143.431V130.35L217.226,0,435.539,130.35v13.081L217.226,268.573Zm.543-240.93L35.918,136.936l181.851,103.67L400.984,134.432,217.769,27.642Z" transform="translate(0 0)"/>
        <path id="Exclusion_22-2" data-name="Exclusion 22" d="M217.226,268.573,0,143.431V130.35L217.226,0,435.539,130.35v13.081L217.226,268.573Zm.543-240.93L35.918,136.936l181.851,103.67L400.984,134.432,217.769,27.642Z" transform="translate(0.461 0)" fill="none" stroke="#cf38ed" stroke-width="3"/>
        <path id="Exclusion_23-2" data-name="Exclusion 23" d="M217.226,268.573,0,143.431V130.35L217.226,0,435.539,130.35v13.081L217.226,268.573Zm.543-240.93L35.918,136.936l181.851,103.67L400.984,134.432,217.769,27.642Z" transform="translate(0.461 0)" fill="none" stroke="#cf38ed" stroke-width="1.5"/>
      </g>
      <g id="Group_10" data-name="Group 10" transform="translate(5244 352.163)">
        <path id="Exclusion_21-3" data-name="Exclusion 21" d="M217.226,268.573,0,143.431V130.35L217.226,0,435.539,130.35v13.081L217.226,268.573Zm.543-240.93L35.918,136.936l181.851,103.67L400.984,134.432,217.769,27.642Z" transform="translate(0 0)"/>
        <path id="Exclusion_22-3" data-name="Exclusion 22" d="M217.226,268.573,0,143.431V130.35L217.226,0,435.539,130.35v13.081L217.226,268.573Zm.543-240.93L35.918,136.936l181.851,103.67L400.984,134.432,217.769,27.642Z" transform="translate(0.461 0)" fill="none" stroke="#726be2" stroke-width="3"/>
        <path id="Exclusion_23-3" data-name="Exclusion 23" d="M217.226,268.573,0,143.431V130.35L217.226,0,435.539,130.35v13.081L217.226,268.573Zm.543-240.93L35.918,136.936l181.851,103.67L400.984,134.432,217.769,27.642Z" transform="translate(0.461 0)" fill="none" stroke="#726be2" stroke-width="1.5"/>
      </g>
      <g id="Group_9" data-name="Group 9" transform="translate(5244 296.807)">
        <path id="Exclusion_21-4" data-name="Exclusion 21" d="M217.226,268.573,0,143.431V130.35L217.226,0,435.539,130.35v13.081L217.226,268.573Zm.543-240.93L35.918,136.936l181.851,103.67L400.984,134.432,217.769,27.642Z" transform="translate(0 0)"/>
        <path id="Exclusion_22-4" data-name="Exclusion 22" d="M217.226,268.573,0,143.431V130.35L217.226,0,435.539,130.35v13.081L217.226,268.573Zm.543-240.93L35.918,136.936l181.851,103.67L400.984,134.432,217.769,27.642Z" transform="translate(0.461 0)" fill="none" stroke="#3bc4ec" stroke-width="3"/>
        <path id="Exclusion_23-4" data-name="Exclusion 23" d="M217.226,268.573,0,143.431V130.35L217.226,0,435.539,130.35v13.081L217.226,268.573Zm.543-240.93L35.918,136.936l181.851,103.67L400.984,134.432,217.769,27.642Z" transform="translate(0.461 0)" fill="none" stroke="#3bc4ec" stroke-width="1.5"/>
      </g>
      <g id="Group_8" data-name="Group 8" transform="translate(5244 241.45)">
        <path id="Exclusion_21-5" data-name="Exclusion 21" d="M217.226,268.573,0,143.431V130.35L217.226,0,435.539,130.35v13.081L217.226,268.573Zm.543-240.93L35.918,136.936l181.851,103.67L400.984,134.432,217.769,27.642Z" transform="translate(0 0)"/>
        <path id="Exclusion_22-5" data-name="Exclusion 22" d="M217.226,268.573,0,143.431V130.35L217.226,0,435.539,130.35v13.081L217.226,268.573Zm.543-240.93L35.918,136.936l181.851,103.67L400.984,134.432,217.769,27.642Z" transform="translate(0.461 0)" fill="none" stroke="#31fff9" stroke-width="3"/>
        <path id="Exclusion_23-5" data-name="Exclusion 23" d="M217.226,268.573,0,143.431V130.35L217.226,0,435.539,130.35v13.081L217.226,268.573Zm.543-240.93L35.918,136.936l181.851,103.67L400.984,134.432,217.769,27.642Z" transform="translate(0.461 0)" fill="none" stroke="#31fff9" stroke-width="1.5"/>
      </g>
    </g>
    <rect id="Rectangle_331" data-name="Rectangle 331" width="7" height="219" rx="3.5" transform="translate(992 491) rotate(180)" fill="url(#linear-gradient)"/>
    <rect id="Rectangle_332" data-name="Rectangle 332" width="7" height="197" rx="3.5" transform="translate(1549 672) rotate(180)" fill="url(#linear-gradient-2)"/>
    <rect id="Rectangle_333" data-name="Rectangle 333" width="7" height="197" rx="3.5" transform="translate(1595 529) rotate(180)" fill="url(#linear-gradient-3)"/>
    <rect id="Rectangle_334" data-name="Rectangle 334" width="7" height="132" rx="3.5" transform="translate(1043 684) rotate(180)" fill="url(#linear-gradient-4)"/>
  </g>
</svg>
