<svg xmlns="http://www.w3.org/2000/svg" width="80" height="80" viewBox="0 0 80 80">
  <path id="cosmos" d="M47.431,42.531l3.928-2.556-3.886-2.52a1.585,1.585,0,0,0-.04.22C47.431,39.252,47.431,40.828,47.431,42.531Zm-15.417-5.1L28.1,39.979l3.915,2.539Zm13.77,7.956-4.408,2.555,4.17,2.133Zm-7.7,2.553-4.407-2.55.236,4.685Zm7.7-13.38-.237-4.688-4.169,2.14,4.406,2.548ZM33.911,29.874l-.231,4.688,4.4-2.549ZM45.839,40c0-1.06-.005-2.121,0-3.182a.558.558,0,0,0-.311-.557q-2.768-1.584-5.522-3.194a.479.479,0,0,0-.558,0q-2.754,1.608-5.521,3.194a.528.528,0,0,0-.309.518q.013,3.2,0,6.4a.53.53,0,0,0,.308.519q2.767,1.586,5.521,3.195a.48.48,0,0,0,.558,0q2.753-1.61,5.522-3.194a.557.557,0,0,0,.311-.558c-.009-1.047,0-2.1,0-3.142ZM13.151,22.852c-.568.1-1.139.184-1.7.306a.462.462,0,0,0-.378.644,8.86,8.86,0,0,0,.63,1.569,24.02,24.02,0,0,0,4.363,5.154.426.426,0,0,0,.383.02,2.452,2.452,0,0,1,2.776.323,2.4,2.4,0,0,1,.669,2.68.332.332,0,0,0,.116.455c2.17,1.62,4.331,3.25,6.5,4.865a.44.44,0,0,0,.4.015q2.507-1.6,5-3.227a.41.41,0,0,0,.172-.268q.167-2.98.3-5.96a.488.488,0,0,0-.228-.374A85.562,85.562,0,0,0,19.3,24.015,28.014,28.014,0,0,0,13.151,22.852Zm20.9,28.924c.05.54.089,1.081.153,1.618q.392,3.251.8,6.5c.024.2.069.341.322.4A2.309,2.309,0,0,1,37.2,62.166a2.359,2.359,0,0,1-1,2.509c-.156.116-.275.2-.2.43.5,1.6.93,3.224,1.509,4.794A12.252,12.252,0,0,0,38.9,72.474c.6.892,1.024.884,1.646.014a11.723,11.723,0,0,0,1.206-2.108,35.034,35.034,0,0,0,2.4-8.789c.486-3.177.829-6.375,1.245-9.563.029-.226-.054-.307-.237-.4q-2.544-1.291-5.071-2.615a.664.664,0,0,0-.736.012c-.374.226-.768.42-1.155.62Q36.127,50.712,34.046,51.777ZM52.764,39a98.712,98.712,0,0,0,8.44-6.477,35.288,35.288,0,0,0,5.818-6.037A12.742,12.742,0,0,0,68.3,24.118c.286-.66.1-.9-.608-1.06a8.175,8.175,0,0,0-2.806-.044,34.522,34.522,0,0,0-5.794,1.3.547.547,0,0,0-.437.483,2.4,2.4,0,0,1-3.936,1.388.537.537,0,0,0-.649-.092q-3.343,1.464-6.7,2.9a.481.481,0,0,0-.314.569c.111,1.909.2,3.82.314,5.728a.526.526,0,0,0,.193.369C49.289,36.78,51.016,37.882,52.764,39ZM47.384,45.1c-.108,1.8-.208,3.558-.318,5.311a.463.463,0,0,0,.3.54,94.3,94.3,0,0,0,10.981,4.44A28.8,28.8,0,0,0,65.751,57a12.23,12.23,0,0,0,2.253-.2.451.451,0,0,0,.382-.636,9.1,9.1,0,0,0-.629-1.569,21.257,21.257,0,0,0-3.719-4.539A85.963,85.963,0,0,0,52.986,41.1a.406.406,0,0,0-.542.025c-1.463.962-2.924,1.929-4.408,2.858C47.578,44.268,47.181,44.519,47.384,45.1ZM26.7,40.947c-.247.173-.5.349-.752.527A83.326,83.326,0,0,0,15.371,50.1,21.373,21.373,0,0,0,11.7,54.58a7.036,7.036,0,0,0-.615,1.493c-.134.453-.023.635.434.74a7.18,7.18,0,0,0,1.6.213,20.725,20.725,0,0,0,5.324-.852,84.393,84.393,0,0,0,13.719-5.26c.229-.107.241-.264.229-.468-.1-1.677-.251-3.354-.257-5.031a1.657,1.657,0,0,0-.971-1.61C29.652,42.907,28.192,41.911,26.7,40.947Zm7.347-12.784c1.845.962,3.654,1.91,5.473,2.839A.614.614,0,0,0,40,30.966c1.719-.871,3.43-1.762,5.149-2.633a.361.361,0,0,0,.244-.434c-.132-1.18-.236-2.364-.367-3.547A74.507,74.507,0,0,0,43.239,14.02,22.962,22.962,0,0,0,41.2,8.437a7.691,7.691,0,0,0-1.011-1.358c-.337-.373-.591-.383-.912,0a10.05,10.05,0,0,0-1.194,1.7,22.516,22.516,0,0,0-1.794,4.978A87.672,87.672,0,0,0,34.047,28.163ZM25.336,39.985c-.7-.5-1.374-.969-2.026-1.467q-2.184-1.665-4.346-3.357a.637.637,0,0,0-.66-.127,2.424,2.424,0,0,1-3.076-2.756.565.565,0,0,0-.2-.574A26.05,26.05,0,0,1,10.313,26.1,4.878,4.878,0,0,1,9.505,23.7a1.91,1.91,0,0,1,1.349-1.987,5.956,5.956,0,0,1,2.31-.348,25.043,25.043,0,0,1,6.617,1.159,84.4,84.4,0,0,1,12.139,4.667c.184.086.371.169.6.272.063-.553.116-1.072.18-1.591.255-2.033.489-4.068.776-6.1A53.769,53.769,0,0,1,35.1,12.2a19.523,19.523,0,0,1,1.927-4.745A8.166,8.166,0,0,1,38.27,5.886a2,2,0,0,1,2.937,0A8.55,8.55,0,0,1,43.176,8.91a33.448,33.448,0,0,1,2.093,6.972q.615,3.1,1.071,6.24c.25,1.722.384,3.46.57,5.191a1.122,1.122,0,0,0,.04.144c.651-.293,1.286-.594,1.932-.869,1.536-.655,3.074-1.306,4.618-1.94a.5.5,0,0,0,.356-.5,2.33,2.33,0,0,1,1.628-2.108,2.281,2.281,0,0,1,2.574.644.473.473,0,0,0,.562.165,34.049,34.049,0,0,1,5.686-1.333,10.2,10.2,0,0,1,3.8.047,2.135,2.135,0,0,1,1.73,2.957,10.38,10.38,0,0,1-1.975,3.476,42.917,42.917,0,0,1-6.8,6.7c-2.239,1.822-4.554,3.55-6.847,5.329a.981.981,0,0,0,.126.113,92.4,92.4,0,0,1,9.1,7.191,32.5,32.5,0,0,1,5.265,5.81,7.375,7.375,0,0,1,1.175,2.506,2.088,2.088,0,0,1-1.673,2.74,8.672,8.672,0,0,1-3.3.131c-5.32-.672-10.237-2.652-15.119-4.737-.944-.4-1.874-.838-2.852-1.276-.063.569-.119,1.114-.182,1.658-.185,1.6-.312,3.212-.575,4.8q-.564,3.405-1.3,6.782a25.834,25.834,0,0,1-2.074,6.087,7.563,7.563,0,0,1-1.549,2.2A2.064,2.064,0,0,1,38.2,74.02a8.817,8.817,0,0,1-2.152-3.581c-.58-1.647-1.052-3.333-1.551-5.008a.563.563,0,0,0-.4-.44,2.449,2.449,0,0,1-1.078-.7,2.419,2.419,0,0,1,.248-3.471.629.629,0,0,0,.21-.644q-.416-3.24-.833-6.48c-.048-.383-.066-.771-.1-1.215-.472.216-.91.418-1.349.617a79.891,79.891,0,0,1-12.22,4.551,22.33,22.33,0,0,1-5.337.911,10.206,10.206,0,0,1-2.257-.179,2.106,2.106,0,0,1-1.738-2.967,10.369,10.369,0,0,1,1.958-3.443,41.987,41.987,0,0,1,6.8-6.7c2.216-1.787,4.526-3.458,6.795-5.18l.15-.111Zm18.544-.009a4.151,4.151,0,1,1-4.13-4.123A4.153,4.153,0,0,1,43.88,39.976ZM40,1.318A38.692,38.692,0,0,0,24.944,75.643,38.692,38.692,0,0,0,55.057,4.357,38.439,38.439,0,0,0,40,1.317ZM40,80A40.01,40.01,0,0,1,24.43,3.144,40.01,40.01,0,0,1,55.57,76.856,39.753,39.753,0,0,1,40,80Z" fill="#fff"/>
</svg>
