<svg xmlns="http://www.w3.org/2000/svg" width="98.238" height="60" viewBox="0 0 98.238 60">
  <g id="kusama" transform="translate(-47.7 -115.62)">
    <path id="Path_1" data-name="Path 1" d="M140.2,118.827a11.939,11.939,0,0,0-6.453-3.155c-3.013-.4-6.083,1.62-8.158,2.956s-6,5.259-7.618,6.453-5.77,2.3-12.45,6.31-32.888,20.836-32.888,20.836l6.822.085L49.036,167.974h3.042L47.7,171.3a9.9,9.9,0,0,0,7.106-1.023v.938s36.214-14.27,43.206-10.574l-4.264,1.251c.37,0,7.248.455,7.248.455a9.76,9.76,0,0,0,4.378,7.049c4.15,2.729,4.235,4.235,4.235,4.235s-2.16.881-2.16,1.99a22.391,22.391,0,0,1,6.14-.881,23.49,23.49,0,0,1,5.543.881s-.227-1.194-3.1-1.99c-2.9-.824-5.713-3.923-7.106-5.628a7.966,7.966,0,0,1-1.165-7.789c.995-2.587,4.463-4.008,11.626-7.7,8.442-4.377,10.375-7.618,11.569-10.148s2.956-7.561,3.951-9.92a12.805,12.805,0,0,1,4.065-5.628c1.251-.966,6.964-3.1,6.964-3.1S141.589,119.935,140.2,118.827Z" transform="translate(0)" fill="#fff"/>
  </g>
</svg>
