<svg xmlns="http://www.w3.org/2000/svg" width="141.866" height="30" viewBox="0 0 141.866 30">
  <g id="logo-polkadot" transform="translate(74.87)">
    <path id="Path_24" data-name="Path 24" d="M1631.058,210.4a17.974,17.974,0,0,0-3.87.381,1.62,1.62,0,0,0-1.349,1.525l-3.723,17.178a5.751,5.751,0,0,0-.117.938,1.339,1.339,0,0,0,1.466,1.406c1,0,1.408-.645,1.613-1.642l1.055-4.9a24.947,24.947,0,0,0,3.078.177c6.069,0,9.85-3.283,9.85-8.237C1639.062,212.891,1636.041,210.4,1631.058,210.4Zm-1.993,12.254a18.191,18.191,0,0,1-2.344-.117l1.964-9.118a17.739,17.739,0,0,1,2.463-.206c3.225,0,4.867,1.525,4.867,4.046,0,3.225-2.349,5.395-6.95,5.395Z" transform="translate(-1660.772 -205.924)" fill="#fff"/>
    <path id="Path_25" data-name="Path 25" d="M6103.039,335.3c-.5,0-.82.294-1.436.968-1.085,1.115-1.759,1.73-2.607,1.73-.762,0-1.173-.615-1.173-1.613a10.692,10.692,0,0,1,.264-1.964l1.085-5.1h3.255a1.5,1.5,0,0,0,1.643-1.642c0-.587-.381-1.025-1.259-1.025h-3.053l.527-2.374a6.176,6.176,0,0,0,.117-.968,1.356,1.356,0,0,0-1.467-1.408c-.968,0-1.405.645-1.612,1.642l-.674,3.108h-1.379a1.5,1.5,0,0,0-1.67,1.642c0,.587.41,1.025,1.289,1.025h1.2l-1.085,5.042a12.208,12.208,0,0,0-.264,2.4c0,2.374,1.231,4.1,3.869,4.1a6,6,0,0,0,3.9-1.672,4.564,4.564,0,0,0,1.729-2.668A1.213,1.213,0,0,0,6103.039,335.3Z" transform="translate(-6037.246 -315.052)" fill="#fff"/>
    <path id="Path_26" data-name="Path 26" d="M3049.618,226.908a1.365,1.365,0,0,0-1.5-1.408c-.968,0-1.406.645-1.612,1.642l-3.664,17.032a3.881,3.881,0,0,0-.146.938,1.354,1.354,0,0,0,1.465,1.406c1,0,1.436-.645,1.643-1.642l3.663-17.03A6.048,6.048,0,0,0,3049.618,226.908Z" transform="translate(-3051.248 -220.703)" fill="#fff"/>
    <path id="Path_27" data-name="Path 27" d="M3366.3,231.812c-4.691,0-7.886,4.661-7.886,9.088,0,.083,0,.166,0,.247-.736,1.117-1.677,2.274-2.321,2.274-.468,0-.645-.44-.645-1.115a19.026,19.026,0,0,1,.5-3.4l2.434-11.258a5.776,5.776,0,0,0,.117-.938,1.34,1.34,0,0,0-1.465-1.408c-1,0-1.406.645-1.613,1.642l-1.319,6.1a4.306,4.306,0,0,0-3.285-1.232c-3.115,0-6.248,2.4-7.469,6.076-1.345,3.476-2.546,5.533-3.5,5.533-.351,0-.557-.294-.557-.791a52.3,52.3,0,0,1,1.172-6.771,6.858,6.858,0,0,0,.176-1.289c0-1.289-2.14-2.814-4.925-2.814a8.608,8.608,0,0,0-7.6,5.069c-2.172,3.838-4.166,6.6-5.152,6.6-.44,0-.587-.557-.7-1.085l-.73-4.04,4.484-3.663a2.156,2.156,0,0,0,.938-1.5,1.246,1.246,0,0,0-1.319-1.319,2.588,2.588,0,0,0-1.583.762l-6.742,5.569,2.257-10.494a5.952,5.952,0,0,0,.147-.938,1.365,1.365,0,0,0-1.5-1.408c-.968,0-1.406.645-1.612,1.642l-3.663,17.032a3.883,3.883,0,0,0-.147.938,1.354,1.354,0,0,0,1.466,1.406c1,0,1.436-.645,1.642-1.642l.47-2.2,2.755-2.227.674,3.4c.264,1.349.968,2.668,2.785,2.668s3.231-1.651,4.657-3.882a4.4,4.4,0,0,0,4.4,3.882,5.551,5.551,0,0,0,4.925-3.225v.06c0,1.906.968,3.165,2.668,3.165,1.538,0,2.814-.928,3.955-2.9a4.253,4.253,0,0,0,4.106,2.9,5.834,5.834,0,0,0,5.159-3.429v.177c0,2.11,1.055,3.255,2.785,3.255a5.046,5.046,0,0,0,3.934-2.329,4.822,4.822,0,0,0,4.393,2.329c4.691,0,7.886-4.661,7.886-9.118C3371.46,234.069,3369.554,231.812,3366.3,231.812Zm-29.226,5.952c-.851,3.663-2.667,5.746-4.72,5.746-1.379,0-2.14-1.055-2.14-2.638,0-3.108,2.257-6.45,5.275-6.45a4.077,4.077,0,0,1,2.228.645Zm16.328-1.553c-.938,4.31-3.078,7.3-5.423,7.3-1.289,0-2.053-1-2.053-2.638,0-3.136,2.17-6.391,5.072-6.391a4.015,4.015,0,0,1,2.581.879Zm10.524,7.3c-1.7,0-2.4-1.232-2.4-2.785,0-2.844,1.963-6.1,4.427-6.1,1.7,0,2.4,1.232,2.4,2.785C3368.352,240.285,3366.388,243.51,3363.925,243.51Z" transform="translate(-3315.603 -220.507)" fill="#fff"/>
    <path id="Path_28" data-name="Path 28" d="M2404.287,531.4c-4.691,0-7.886,4.661-7.886,9.088,0,3.166,1.906,5.423,5.159,5.423,4.691,0,7.886-4.661,7.886-9.118C2409.445,533.657,2407.539,531.4,2404.287,531.4Zm-2.374,11.7c-1.7,0-2.4-1.232-2.4-2.785,0-2.844,1.964-6.1,4.427-6.1,1.7,0,2.4,1.232,2.4,2.785C2406.337,539.873,2404.374,543.1,2401.912,543.1Z" transform="translate(-2418.698 -520.095)" fill="#fff"/>
    <ellipse id="Ellipse_8" data-name="Ellipse 8" cx="5.41" cy="3.146" rx="5.41" ry="3.146" transform="translate(-64.583 0)" fill="#fff"/>
    <ellipse id="Ellipse_9" data-name="Ellipse 9" cx="5.41" cy="3.146" rx="5.41" ry="3.146" transform="translate(-64.583 23.707)" fill="#fff"/>
    <ellipse id="Ellipse_10" data-name="Ellipse 10" cx="5.41" cy="3.148" rx="5.41" ry="3.148" transform="matrix(0.5, -0.866, 0.866, 0.5, -74.87, 12.184)" fill="#fff"/>
    <ellipse id="Ellipse_11" data-name="Ellipse 11" cx="5.41" cy="3.146" rx="5.41" ry="3.146" transform="matrix(0.5, -0.866, 0.866, 0.5, -54.338, 24.039)" fill="#fff"/>
    <ellipse id="Ellipse_12" data-name="Ellipse 12" cx="3.148" cy="5.41" rx="3.148" ry="5.41" transform="matrix(0.866, -0.5, 0.5, 0.866, -74.869, 17.816)" fill="#fff"/>
    <ellipse id="Ellipse_13" data-name="Ellipse 13" cx="3.146" cy="5.41" rx="3.146" ry="5.41" transform="matrix(0.866, -0.5, 0.5, 0.866, -54.336, 5.963)" fill="#fff"/>
  </g>
</svg>
