<svg xmlns="http://www.w3.org/2000/svg" width="130.544" height="30" viewBox="0 0 130.544 30">
  <path id="protocol-kusama" d="M18.849,9.286a3.378,3.378,0,0,0-1.066-.6,2.661,2.661,0,0,0-1.265-.133,4.043,4.043,0,0,0-1.2.333,2.949,2.949,0,0,0-1,.8L7.859,17.479a3.276,3.276,0,0,0,0,4.129l6.461,7.726a3.1,3.1,0,0,0,2.2,1.132,3.269,3.269,0,0,0,2.331-.733,3.1,3.1,0,0,0,1.132-2.2,3.269,3.269,0,0,0-.733-2.331L14.52,19.477l4.729-5.728a3.069,3.069,0,0,0,.6-1.132,2.941,2.941,0,0,0,.133-1.132,4.043,4.043,0,0,0-.333-1.2A2.949,2.949,0,0,0,18.849,9.286ZM3.2,8.554A2.439,2.439,0,0,0,2,8.82a3.578,3.578,0,0,0-1.066.666,2.9,2.9,0,0,0-.666,1.066A2.612,2.612,0,0,0,0,11.751V27.27a2.913,2.913,0,0,0,.932,2.2A3.172,3.172,0,0,0,3.2,30.4a3.172,3.172,0,0,0,2.265-.932,3.134,3.134,0,0,0,.932-2.2V11.751a2.439,2.439,0,0,0-.266-1.2,2.607,2.607,0,0,0-.666-1.066A2.9,2.9,0,0,0,4.4,8.82,2.439,2.439,0,0,0,3.2,8.554Zm56.28,6.461a2.913,2.913,0,0,0,2.2-.932,3.216,3.216,0,0,0,0-4.529,3.134,3.134,0,0,0-2.2-.932H45.89a3.184,3.184,0,0,0-3.2,3.2v5.795a2.964,2.964,0,0,0,.666,1.932,3.258,3.258,0,0,0,1.665,1.132l11.256,3.2v.2H45.89a4.182,4.182,0,0,0-1.265.2,3.578,3.578,0,0,0-1.066.666A3.043,3.043,0,0,0,42.826,26a2.808,2.808,0,0,0-.2,1.265,2.886,2.886,0,0,0,.266,1.265,2.789,2.789,0,0,0,.733,1.066,3.578,3.578,0,0,0,1.066.666,2.671,2.671,0,0,0,1.265.2H59.544a3.184,3.184,0,0,0,3.2-3.2V21.475a2.964,2.964,0,0,0-.666-1.932,3.258,3.258,0,0,0-1.665-1.132l-11.256-3.2v-.2ZM38.1,8.554a2.439,2.439,0,0,0-1.2.266,3.578,3.578,0,0,0-1.066.666,2.9,2.9,0,0,0-.666,1.066,3.89,3.89,0,0,0-.266,1.2V24.073H27.774V11.751a4.182,4.182,0,0,0-.2-1.265,3.578,3.578,0,0,0-.666-1.066,3.043,3.043,0,0,0-1.066-.733,3.9,3.9,0,0,0-1.265-.266,2.886,2.886,0,0,0-1.265.266,2.789,2.789,0,0,0-1.066.733,3.578,3.578,0,0,0-.666,1.066,2.671,2.671,0,0,0-.2,1.265V27.27a2.439,2.439,0,0,0,.266,1.2,3.578,3.578,0,0,0,.666,1.066,2.9,2.9,0,0,0,1.066.666,3.889,3.889,0,0,0,1.2.266H38.164a2.439,2.439,0,0,0,1.2-.266,3.578,3.578,0,0,0,1.066-.666,2.9,2.9,0,0,0,.666-1.066,3.889,3.889,0,0,0,.266-1.2V11.751a2.439,2.439,0,0,0-.266-1.2,3.578,3.578,0,0,0-.666-1.066,2.9,2.9,0,0,0-1.066-.666A2.7,2.7,0,0,0,38.1,8.554Zm37.365,1.2a3.661,3.661,0,0,0-1.132-.866A3.032,3.032,0,0,0,73,8.554H67.2A2.439,2.439,0,0,0,66,8.82a3.578,3.578,0,0,0-1.066.666,2.9,2.9,0,0,0-.666,1.066,3.889,3.889,0,0,0-.266,1.2V27.27a3.184,3.184,0,0,0,3.2,3.2h8.059a2.913,2.913,0,0,0,2.2-.932,3.216,3.216,0,0,0,0-4.529,3.134,3.134,0,0,0-2.2-.932h-4.8V15.014H71.6l7.992,9.591v2.731a2.913,2.913,0,0,0,.932,2.2,3.216,3.216,0,0,0,4.529,0,3.134,3.134,0,0,0,.932-2.2V23.473a3.4,3.4,0,0,0-.733-2.065Zm54.349,11.589L120.087,9.686a3.661,3.661,0,0,0-1.132-.866,3.032,3.032,0,0,0-1.332-.333h-5.795a2.439,2.439,0,0,0-1.2.266,3.578,3.578,0,0,0-1.066.666,2.9,2.9,0,0,0-.666,1.066,3.889,3.889,0,0,0-.266,1.2V27.2a2.439,2.439,0,0,0,.266,1.2,3.578,3.578,0,0,0,.666,1.066,2.9,2.9,0,0,0,1.066.666,3.889,3.889,0,0,0,1.2.266h7.992a2.913,2.913,0,0,0,2.2-.932,3.216,3.216,0,0,0,0-4.529,3.134,3.134,0,0,0-2.2-.932h-4.8V15.014h1.132l7.992,9.591v2.731a2.913,2.913,0,0,0,.932,2.2,3.216,3.216,0,0,0,4.529,0,3.134,3.134,0,0,0,.932-2.2V23.473A3.441,3.441,0,0,0,129.811,21.342ZM105.434,8.887a3.311,3.311,0,0,0-1.8-.266,3.144,3.144,0,0,0-1.665.733l-4.729,4.063L92.513,9.353a3.144,3.144,0,0,0-1.665-.733,3.4,3.4,0,0,0-1.8.266,3.381,3.381,0,0,0-1.865,2.931V27.336a2.913,2.913,0,0,0,.932,2.2,3.216,3.216,0,0,0,4.529,0,3.134,3.134,0,0,0,.932-2.2V18.744L95.11,20.01a3.474,3.474,0,0,0,2.065.8,2.978,2.978,0,0,0,2.065-.8l1.465-1.265V27.27a3.2,3.2,0,1,0,6.394,0V11.751a3.3,3.3,0,0,0-.533-1.732A1.9,1.9,0,0,0,105.434,8.887Zm-22.512-1.8v.133s4.4-1.732,5.262-1.265l-.533.133c.067,0,.866.067.866.067a.6.6,0,0,0,.2.466,1.766,1.766,0,0,0,.333.4c.533.333.533.533.533.533s-.266.133-.266.266a2.832,2.832,0,0,1,.733-.133,2.366,2.366,0,0,1,.666.133s0-.133-.4-.266a2.3,2.3,0,0,1-.866-.666.6.6,0,0,1-.2-.466,1.133,1.133,0,0,1,.067-.466c.133-.333.533-.466,1.4-.932,1-.533,1.265-.932,1.4-1.265s.333-.932.466-1.2a1.221,1.221,0,0,1,.466-.666,4.577,4.577,0,0,1,.866-.4s-.533-.466-.733-.6a1.519,1.519,0,0,0-.8-.4,1.636,1.636,0,0,0-1,.333,11.594,11.594,0,0,0-.932.8,11.689,11.689,0,0,0-1.532.8c-.8.466-4,2.531-4,2.531h.8l-3.73,1.932h.4l-.533.4C82.389,7.288,82.655,7.288,82.922,7.089Z" transform="translate(0 -0.484)" fill="#fff"/>
</svg>
