<svg xmlns="http://www.w3.org/2000/svg" width="140.341" height="25" viewBox="0 0 140.341 25">
  <g id="protocol-cosmos" transform="translate(0 -0.2)">
    <path id="Path_14" data-name="Path 14" d="M15.593,20.678l-1.957-1.957a9.592,9.592,0,0,1-2.21,1.578,5.237,5.237,0,0,1-2.715.631,6.923,6.923,0,0,1-2.273-.442,5.423,5.423,0,0,1-1.768-1.326,5.006,5.006,0,0,1-1.136-1.957,8.611,8.611,0,0,1-.379-2.336A6.689,6.689,0,0,1,3.6,12.534a7.557,7.557,0,0,1,1.136-1.957A9.239,9.239,0,0,1,6.5,9.251a6.923,6.923,0,0,1,2.273-.442,5.479,5.479,0,0,1,2.652.631,9.847,9.847,0,0,1,2.21,1.515l1.957-2.21c-.442-.379-.884-.758-1.326-1.073a5.969,5.969,0,0,0-1.515-.884,5.233,5.233,0,0,0-1.768-.505A19.61,19.61,0,0,0,8.9,6.094,8.076,8.076,0,0,0,2.525,8.683,9.24,9.24,0,0,0,.694,11.461,8.654,8.654,0,0,0,0,14.87a8.843,8.843,0,0,0,.631,3.409,8.516,8.516,0,0,0,1.831,2.778,8.235,8.235,0,0,0,2.715,1.831,8.89,8.89,0,0,0,3.409.694,12.517,12.517,0,0,0,2.21-.189,15.587,15.587,0,0,0,1.831-.631c.505-.253,1.073-.631,1.578-.947A7.82,7.82,0,0,0,15.593,20.678Z" transform="translate(0 -2.17)" fill="#fff"/>
    <path id="Path_15" data-name="Path 15" d="M83.872,10.909a1.764,1.764,0,0,1,.694-1.389,2.775,2.775,0,0,1,2.02-.631,6.923,6.923,0,0,1,2.273.442,7.094,7.094,0,0,1,2.273,1.326l1.578-2.273A9,9,0,0,0,90,6.805,9.1,9.1,0,0,0,86.65,6.3a5.221,5.221,0,0,0-2.273.379,9.9,9.9,0,0,0-1.831.947,4.728,4.728,0,0,0-1.2,1.515,5.528,5.528,0,0,0-.442,2.02,4,4,0,0,0,.379,2.02,3.914,3.914,0,0,0,1.073,1.389,5.836,5.836,0,0,0,1.768.947,16.82,16.82,0,0,0,2.462.694c.758.189,1.389.379,1.957.505a3.164,3.164,0,0,1,1.136.631,3.309,3.309,0,0,1,.631.694,3.329,3.329,0,0,1,.189.758,1.836,1.836,0,0,1-.758,1.578,3.821,3.821,0,0,1-2.21.631,6.322,6.322,0,0,1-2.9-.631,9.852,9.852,0,0,1-2.462-1.641L80.4,20.82a9.7,9.7,0,0,0,3.346,2.02,10.892,10.892,0,0,0,3.788.694A6.492,6.492,0,0,0,90,23.156a7.029,7.029,0,0,0,1.957-.947,4.209,4.209,0,0,0,1.2-1.578,5.728,5.728,0,0,0,.442-2.21,3.41,3.41,0,0,0-.379-1.831A5.48,5.48,0,0,0,92.142,15.2a7.705,7.705,0,0,0-1.768-1.073c-.694-.253-1.515-.505-2.336-.758l-2.02-.505a3.523,3.523,0,0,1-1.2-.631,2.184,2.184,0,0,1-.631-.694C83.872,11.6,83.872,11.287,83.872,10.909Z" transform="translate(-29.642 -2.249)" fill="#fff"/>
    <path id="Path_16" data-name="Path 16" d="M130.263,11.235V23.419h2.967V6.5h-3.157L124.9,14.455,119.72,6.5H116.5V23.419h2.967V11.361l5.366,7.955h.063Z" transform="translate(-42.952 -2.323)" fill="#fff"/>
    <path id="Path_17" data-name="Path 17" d="M173.82,14.838a7.638,7.638,0,0,1-.442,2.336,7.557,7.557,0,0,1-1.136,1.957,8.018,8.018,0,0,1-1.831,1.326,4.727,4.727,0,0,1-2.273.442,5.74,5.74,0,0,1-2.336-.505,6.488,6.488,0,0,1-1.831-1.326,6.032,6.032,0,0,1-1.2-1.957,6.983,6.983,0,0,1-.442-2.336,7.637,7.637,0,0,1,.442-2.336,7.557,7.557,0,0,1,1.136-1.957,8.018,8.018,0,0,1,1.831-1.326,4.727,4.727,0,0,1,2.273-.442,5.74,5.74,0,0,1,2.336.505,6.488,6.488,0,0,1,1.831,1.326,6.032,6.032,0,0,1,1.2,1.957A7.638,7.638,0,0,1,173.82,14.838Zm3.157,0a8.843,8.843,0,0,0-.631-3.409,8.516,8.516,0,0,0-1.831-2.778,12.869,12.869,0,0,0-2.778-1.957,9.671,9.671,0,0,0-7.2,0,7.923,7.923,0,0,0-2.778,1.957,9.24,9.24,0,0,0-1.831,2.778,8.843,8.843,0,0,0-.631,3.409,8.843,8.843,0,0,0,.631,3.409,8.516,8.516,0,0,0,1.831,2.778,12.868,12.868,0,0,0,2.778,1.957,9.671,9.671,0,0,0,7.2,0,7.923,7.923,0,0,0,2.778-1.957,9.24,9.24,0,0,0,1.831-2.778A10.826,10.826,0,0,0,176.977,14.838Z" transform="translate(-58.732 -2.138)" fill="#fff"/>
    <path id="Path_18" data-name="Path 18" d="M204.935,10.909a1.764,1.764,0,0,1,.694-1.389,2.875,2.875,0,0,1,2.02-.631,6.923,6.923,0,0,1,2.273.442,7.094,7.094,0,0,1,2.273,1.326l1.578-2.273A11.183,11.183,0,0,0,211,6.805,9.1,9.1,0,0,0,207.65,6.3a5.221,5.221,0,0,0-2.273.379,9.9,9.9,0,0,0-1.831.947,4.985,4.985,0,0,0-1.2,1.578,5.528,5.528,0,0,0-.442,2.02,4,4,0,0,0,.379,2.02,4.8,4.8,0,0,0,1.073,1.389,7.658,7.658,0,0,0,1.768.947,16.82,16.82,0,0,0,2.462.694c.758.189,1.389.379,1.957.505a3.164,3.164,0,0,1,1.136.631,3.31,3.31,0,0,1,.631.694,3.33,3.33,0,0,1,.189.758,1.836,1.836,0,0,1-.758,1.578,3.543,3.543,0,0,1-2.21.631,6.322,6.322,0,0,1-2.9-.631,9.852,9.852,0,0,1-2.462-1.641L201.4,20.883a9.7,9.7,0,0,0,3.346,2.02,10.892,10.892,0,0,0,3.788.694A6.492,6.492,0,0,0,211,23.219a7.029,7.029,0,0,0,1.957-.947,4.209,4.209,0,0,0,1.2-1.578,5.727,5.727,0,0,0,.442-2.21,3.41,3.41,0,0,0-.379-1.831,5.48,5.48,0,0,0-1.073-1.389,7.706,7.706,0,0,0-1.768-1.073c-.694-.253-1.515-.505-2.336-.758l-2.02-.505a3.523,3.523,0,0,1-1.2-.631,2.184,2.184,0,0,1-.631-.694C204.935,11.6,204.935,11.287,204.935,10.909Z" transform="translate(-74.254 -2.249)" fill="#fff"/>
    <path id="Path_19" data-name="Path 19" d="M47.667,7.523,39.649,15.6c-.063-.189-.189-.442-.253-.631a6.983,6.983,0,0,1-.442-2.336A7.637,7.637,0,0,1,39.4,10.3a7.557,7.557,0,0,1,1.136-1.957,8.018,8.018,0,0,1,1.831-1.326,4.727,4.727,0,0,1,2.273-.442,5.74,5.74,0,0,1,2.336.505C47.288,7.271,47.541,7.46,47.667,7.523Zm-.694,10.669a4.727,4.727,0,0,1-2.273.442,5.74,5.74,0,0,1-2.336-.505,2.365,2.365,0,0,1-.758-.442l8.081-8.081c.063.189.189.442.253.631a6.983,6.983,0,0,1,.442,2.336,6.983,6.983,0,0,1-.442,2.336A7.557,7.557,0,0,1,48.8,16.867,4.152,4.152,0,0,1,46.973,18.192Zm1.263,2.588a7.923,7.923,0,0,0,2.778-1.957,9.24,9.24,0,0,0,1.831-2.778,8.843,8.843,0,0,0,.631-3.409,8.843,8.843,0,0,0-.631-3.409A15.7,15.7,0,0,0,51.9,7.46l5.24-5.24L55.117.2l-5.24,5.24A5.409,5.409,0,0,0,48.3,4.556a9.142,9.142,0,0,0-3.6-.694,9.373,9.373,0,0,0-3.6.694,7.923,7.923,0,0,0-2.778,1.957,9.24,9.24,0,0,0-1.831,2.778,8.843,8.843,0,0,0-.631,3.409,8.843,8.843,0,0,0,.631,3.409,15.7,15.7,0,0,0,.947,1.768l-5.24,5.24L34.283,25.2l5.24-5.24a5.409,5.409,0,0,0,1.578.884,9.614,9.614,0,0,0,3.6.694A10.7,10.7,0,0,0,48.235,20.781Z" transform="translate(-11.872)" fill="#fff"/>
  </g>
</svg>
