<svg xmlns="http://www.w3.org/2000/svg" xmlns:xlink="http://www.w3.org/1999/xlink" width="126.816" height="126.816" viewBox="0 0 126.816 126.816">
  <defs>
    <linearGradient id="linear-gradient" x1="1" y1="0.114" x2="0" y2="0.822" gradientUnits="objectBoundingBox">
      <stop offset="0" stop-color="#ff00c1"/>
      <stop offset="1" stop-color="#00fff9"/>
    </linearGradient>
    <filter id="Shield" x="37.16" y="36.669" width="52.496" height="61.921" filterUnits="userSpaceOnUse">
      <feOffset dy="3" input="SourceAlpha"/>
      <feGaussianBlur stdDeviation="3" result="blur"/>
      <feFlood flood-opacity="0.251"/>
      <feComposite operator="in" in2="blur"/>
      <feComposite in="SourceGraphic"/>
    </filter>
  </defs>
  <g id="SAFE_Image" data-name="SAFE Image" transform="translate(-4395.392 -1765.184)">
    <g transform="matrix(1, 0, 0, 1, 4395.39, 1765.18)" filter="url(#Shield)">
      <path id="Shield-2" data-name="Shield" d="M23.248,46.921S40.5,38.137,40.5,24.961V9.588L23.248,3,6,9.588V24.961C6,38.137,23.248,46.921,23.248,46.921Z" transform="translate(40.16 39.67)" fill="url(#linear-gradient)"/>
    </g>
    <g id="Oval_2" data-name="Oval 2">
      <g id="Ellipse_17" data-name="Ellipse 17" transform="translate(4395.392 1805.3) rotate(-45)" fill="none" stroke="#7cfbf8" stroke-width="1">
        <ellipse cx="28.366" cy="61.306" rx="28.366" ry="61.306" stroke="none"/>
        <ellipse cx="28.366" cy="61.306" rx="27.866" ry="60.806" fill="none"/>
      </g>
      <circle id="Ellipse_37" data-name="Ellipse 37" cx="2.5" cy="2.5" r="2.5" transform="translate(4409.8 1802.184)" fill="#7cfbf8"/>
    </g>
    <g id="Oval_1" data-name="Oval 1">
      <g id="Ellipse_18" data-name="Ellipse 18" transform="translate(4435.507 1892) rotate(-135)" fill="none" stroke="#e739bc" stroke-width="1">
        <ellipse cx="28.366" cy="61.306" rx="28.366" ry="61.306" stroke="none"/>
        <ellipse cx="28.366" cy="61.306" rx="27.866" ry="60.806" fill="none"/>
      </g>
      <circle id="Ellipse_38" data-name="Ellipse 38" cx="2.5" cy="2.5" r="2.5" transform="translate(4482.8 1838.184)" fill="#ff00c1"/>
    </g>
  </g>
</svg>
