<svg xmlns="http://www.w3.org/2000/svg" xmlns:xlink="http://www.w3.org/1999/xlink" width="113" height="82" viewBox="0 0 113 82">
  <defs>
    <linearGradient id="linear-gradient" x1="1" x2="0" y2="1" gradientUnits="objectBoundingBox">
      <stop offset="0" stop-color="#ff00c1"/>
      <stop offset="1" stop-color="#00fff9"/>
    </linearGradient>
    <filter id="Lock" x="33" y="16.179" width="46" height="54.457" filterUnits="userSpaceOnUse">
      <feOffset dy="3" input="SourceAlpha"/>
      <feGaussianBlur stdDeviation="3" result="blur"/>
      <feFlood flood-opacity="0.2"/>
      <feComposite operator="in" in2="blur"/>
      <feComposite in="SourceGraphic"/>
    </filter>
  </defs>
  <g id="SECURE_Image" data-name="SECURE Image" transform="translate(-1310.611 -1508.592)">
    <line id="Line_3" data-name="Line 3" x2="69" transform="translate(1331.5 1588.5)" fill="none" stroke="#fc18c1" stroke-width="1"/>
    <line id="Line_4" data-name="Line 4" x2="69" transform="translate(1331.5 1511.5)" fill="none" stroke="#7cfbf8" stroke-width="1"/>
    <line id="Line_5" data-name="Line 5" y2="12" transform="translate(1366.5 1511.5)" fill="none" stroke="#7cfbf8" stroke-width="1"/>
    <line id="Line_6" data-name="Line 6" y2="12" transform="translate(1366.5 1576.5)" fill="none" stroke="#fc18c1" stroke-width="1"/>
    <path id="Path_93" data-name="Path 93" d="M3303.556,1530.293h20v15h10" transform="translate(-1990.945 0.707)" fill="none" stroke="#fc18c1" stroke-width="1"/>
    <path id="Path_94" data-name="Path 94" d="M3303.556,1530.293h20v15h10" transform="translate(4724.167 3101.587) rotate(180)" fill="none" stroke="#7cfbf8" stroke-width="1"/>
    <path id="Path_95" data-name="Path 95" d="M3303.556,1550.293h20v-15h10" transform="translate(-1990.945 20.707)" fill="none" stroke="#7cfbf8" stroke-width="1"/>
    <path id="Path_96" data-name="Path 96" d="M3303.556,1545.293h10v-15h20" transform="translate(-1912.945 0.707)" fill="none" stroke="#fc18c1" stroke-width="1"/>
    <circle id="Ellipse_39" data-name="Ellipse 39" cx="2.5" cy="2.5" r="2.5" transform="translate(1310.611 1528.592)" fill="#ff00c1"/>
    <circle id="Ellipse_40" data-name="Ellipse 40" cx="2.5" cy="2.5" r="2.5" transform="translate(1329.611 1585.592)" fill="#ff00c1"/>
    <circle id="Ellipse_41" data-name="Ellipse 41" cx="2.5" cy="2.5" r="2.5" transform="translate(1397.611 1585.592)" fill="#ff00c1"/>
    <circle id="Ellipse_42" data-name="Ellipse 42" cx="2.5" cy="2.5" r="2.5" transform="translate(1418.611 1528.592)" fill="#ff00c1"/>
    <circle id="Ellipse_43" data-name="Ellipse 43" cx="2.5" cy="2.5" r="2.5" transform="translate(1310.611 1568.592)" fill="#7cfbf8"/>
    <circle id="Ellipse_44" data-name="Ellipse 44" cx="2.5" cy="2.5" r="2.5" transform="translate(1418.611 1568.592)" fill="#7cfbf8"/>
    <circle id="Ellipse_45" data-name="Ellipse 45" cx="2.5" cy="2.5" r="2.5" transform="translate(1329.611 1508.592)" fill="#7cfbf8"/>
    <circle id="Ellipse_46" data-name="Ellipse 46" cx="2.5" cy="2.5" r="2.5" transform="translate(1398.611 1508.592)" fill="#7cfbf8"/>
    <g transform="matrix(1, 0, 0, 1, 1310.61, 1508.59)" filter="url(#Lock)">
      <path id="Lock-2" data-name="Lock" d="M30.5,13.652H28.75V10.18a8.75,8.75,0,0,0-17.5,0v3.472H9.5A3.5,3.5,0,0,0,6,17.124v17.36a3.5,3.5,0,0,0,3.5,3.472h21A3.5,3.5,0,0,0,34,34.485V17.124A3.5,3.5,0,0,0,30.5,13.652ZM20,29.277A3.472,3.472,0,1,1,23.5,25.8,3.5,3.5,0,0,1,20,29.277Zm5.425-15.624H14.575V10.18a5.425,5.425,0,0,1,10.85,0Z" transform="translate(36 20.68)" fill="url(#linear-gradient)"/>
    </g>
  </g>
</svg>
