<svg xmlns="http://www.w3.org/2000/svg" version="1.0" preserveAspectRatio="xMidYMid meet" viewBox="274.5 359.34 1814.29 462.71">

<g transform="translate(0.000000,1182.000000) scale(0.100000,-0.100000)" fill="#000000" stroke="none">
<path d="M4895 8224 c-727 -59 -1358 -429 -1769 -1037 -126 -187 -251 -471 -311 -706 -159 -632 -44 -1309 313 -1846 338 -509 846 -856 1447 -989 281 -62 689 -62 970 0 385 85 726 255 1020 506 670 574 956 1472 740 2329 -100 394 -298 747 -585 1043 -360 371 -819 606 -1330 681 -105 15 -400 27 -495 19z m445 -206 c76 -10 100 -20 100 -43 0 -7 -40 -52 -89 -101 -59 -59 -112 -126 -159 -199 -84 -132 -113 -165 -145 -165 -14 0 -78 13 -143 30 -64 16 -172 38 -238 49 -299 50 -505 54 -793 15 -50 -6 -53 -5 -53 15 0 16 22 36 88 78 279 181 642 305 970 333 120 10 348 4 462 -12z m579 -169 c76 -35 196 -149 261 -249 142 -219 262 -571 319 -935 42 -272 46 -332 46 -724 l0 -383 -45 -39 c-126 -109 -467 -338 -730 -488 -177 -102 -556 -288 -744 -366 -629 -260 -1197 -364 -1423 -260 -165 75 -108 270 170 580 49 55 77 94 77 109 0 49 -79 113 -125 102 -48 -12 -233 -235 -320 -384 -26 -45 -52 -85 -57 -88 -38 -23 -97 54 -196 251 -96 194 -168 433 -197 650 -27 210 -13 621 26 723 16 41 36 24 64 -55 175 -485 630 -979 1240 -1346 173 -105 460 -247 510 -254 51 -6 199 47 233 83 28 32 28 52 -3 199 -134 648 -97 1481 91 2076 34 108 30 122 -47 148 -92 31 -98 26 -142 -116 -84 -268 -140 -596 -166 -961 -11 -147 -21 -166 -133 -232 -132 -78 -356 -229 -497 -335 -200 -150 -196 -151 -432 91 -348 359 -531 713 -533 1034 -1 137 12 196 67 310 33 69 57 101 126 170 70 70 104 95 186 137 206 105 365 137 675 137 169 -1 245 -5 355 -22 569 -88 1171 -354 1653 -730 46 -35 81 -66 79 -68 -2 -2 -62 -20 -133 -39 -313 -86 -687 -231 -1005 -390 -59 -30 -113 -64 -119 -75 -6 -11 -10 -55 -8 -98 3 -70 5 -77 24 -80 12 -2 93 32 180 76 353 177 717 317 1033 397 138 35 162 86 126 270 -8 42 -25 95 -37 118 -61 110 -584 429 -938 572 -115 47 -140 64 -140 96 0 32 123 204 199 279 147 145 278 178 430 109z m677 -471 c154 -161 291 -360 386 -558 46 -97 58 -147 37 -155 -8 -3 -76 1 -152 8 -116 11 -141 16 -158 34 -16 15 -31 62 -54 170 -39 176 -82 326 -134 462 -57 151 -41 159 75 39z m376 -909 c69 -15 121 -41 148 -76 32 -41 24 -136 -19 -220 -45 -90 -63 -87 -138 20 -32 45 -85 116 -118 157 -75 92 -76 94 -69 114 8 20 114 22 196 5z m-170 -381 c54 -76 98 -155 98 -178 0 -30 -131 -167 -149 -156 -12 8 -16 321 -5 350 10 25 31 19 56 -16z m378 -213 c0 -34 -12 -46 -25 -24 -9 14 3 59 15 59 6 0 10 -16 10 -35z m-2420 -316 c12 -195 39 -423 70 -579 11 -57 18 -105 17 -106 -5 -5 -298 140 -387 191 -106 61 -335 209 -344 223 -6 10 107 101 264 212 90 64 363 240 367 236 2 -1 8 -81 13 -177z m2253 99 c28 -22 49 -125 54 -263 6 -154 -8 -227 -64 -343 -50 -102 -176 -231 -279 -285 -137 -71 -147 -56 -100 141 33 139 86 431 86 477 0 11 8 35 18 53 21 39 231 232 253 232 8 0 23 -6 32 -12z m-526 -425 c14 -36 -91 -484 -132 -564 -24 -46 -70 -53 -330 -53 -291 -1 -485 25 -485 64 0 5 57 39 128 76 246 130 560 322 732 447 71 52 78 54 87 30z m-1142 -727 c239 -60 454 -86 705 -86 201 0 205 -2 164 -82 -83 -164 -230 -330 -344 -389 -59 -30 -73 -34 -150 -34 -74 0 -92 4 -142 29 -127 64 -249 208 -349 410 -32 66 -59 128 -59 138 0 21 39 50 60 43 8 -2 60 -15 115 -29z m1272 -23 c5 -12 -15 -37 -70 -90 -42 -40 -83 -73 -91 -73 -26 0 -24 25 8 90 27 57 36 65 71 76 57 17 75 16 82 -3z m-1641 -61 c6 -4 38 -63 71 -132 76 -156 147 -263 240 -361 118 -123 110 -131 -155 -137 -354 -8 -627 43 -925 174 -125 54 -297 151 -304 171 -10 26 22 40 112 47 173 13 442 76 714 167 84 28 167 57 184 64 37 16 48 18 63 7z"/>
<path d="M9078 6580 c-281 -51 -516 -276 -574 -550 -24 -115 -15 -281 21 -389 69 -204 245 -380 449 -448 74 -25 95 -27 231 -28 139 0 156 2 230 28 143 51 285 155 304 224 27 95 -77 186 -162 141 -12 -6 -42 -28 -66 -50 -100 -87 -231 -124 -378 -106 -146 17 -290 124 -361 267 -34 69 -37 82 -40 180 -4 126 14 196 72 285 92 137 238 216 401 216 122 0 204 -31 314 -119 54 -43 70 -51 106 -51 78 0 138 76 115 146 -25 75 -186 187 -335 234 -78 24 -247 35 -327 20z"/>
<path d="M10335 6580 c-11 -4 -31 -20 -45 -35 l-25 -27 -3 -621 c-2 -433 0 -634 8 -660 7 -25 22 -45 43 -57 31 -19 54 -20 565 -20 484 0 537 2 563 17 51 30 70 119 36 163 -36 46 -27 45 -489 50 l-440 5 -24 28 c-23 26 -24 36 -24 151 0 110 2 126 21 150 l20 26 322 1 c222 0 333 4 356 12 80 28 103 130 42 190 l-31 32 -343 5 c-188 3 -343 7 -344 8 -43 41 -43 43 -43 174 0 124 1 130 25 153 l24 25 423 0 c478 0 476 0 512 74 17 36 18 43 5 80 -9 25 -27 49 -48 63 l-34 23 -526 -1 c-289 0 -535 -4 -546 -9z"/>
<path d="M12048 6574 c-59 -32 -58 -14 -58 -710 l0 -636 34 -34 34 -34 547 0 547 0 28 29 c53 52 52 131 -1 175 l-31 26 -417 0 c-431 0 -471 3 -491 40 -6 12 -10 217 -11 532 0 370 -3 523 -12 548 -23 66 -107 98 -169 64z"/>
<path d="M13673 6574 c-64 -32 -63 -16 -63 -706 0 -605 1 -624 20 -656 11 -18 32 -37 46 -42 15 -6 237 -10 561 -10 l535 0 34 34 c29 29 34 41 34 81 0 40 -5 52 -34 81 l-34 34 -420 0 c-267 0 -431 4 -448 10 -48 19 -53 35 -54 176 0 188 -35 172 380 176 303 3 338 5 361 21 51 35 67 118 31 166 -36 50 -45 51 -395 51 l-328 0 -24 25 c-24 23 -25 29 -25 155 0 126 1 132 25 155 l24 25 421 0 c455 0 469 2 503 53 22 33 22 105 1 136 -36 50 -45 51 -601 51 -450 0 -522 -3 -550 -16z"/>
<path d="M15770 6579 c-90 -13 -213 -56 -276 -97 -126 -82 -181 -190 -172 -341 10 -169 102 -275 296 -342 81 -28 154 -39 333 -48 191 -11 258 -30 308 -87 26 -29 31 -43 31 -89 0 -125 -112 -177 -385 -178 -157 0 -225 10 -368 54 -108 33 -142 32 -174 -4 -46 -50 -53 -88 -26 -144 20 -43 77 -72 220 -110 92 -25 112 -27 323 -27 189 -1 235 2 290 17 158 45 285 137 331 240 34 73 35 239 2 309 -45 99 -142 175 -273 216 -101 31 -105 32 -291 42 -218 12 -289 31 -343 90 -31 34 -36 47 -36 88 0 61 27 105 81 132 133 68 411 66 618 -5 41 -14 89 -25 106 -25 89 0 139 136 72 198 -46 43 -201 93 -347 112 -88 11 -242 11 -320 -1z"/>
<path d="M16878 6574 c-53 -28 -73 -105 -43 -163 28 -55 60 -61 307 -61 222 0 225 0 246 -23 l22 -23 0 -517 c0 -440 2 -522 15 -555 30 -75 127 -97 187 -43 l33 29 5 546 c5 506 6 547 23 563 16 16 45 19 262 23 l245 5 32 33 c28 28 33 39 33 82 0 43 -5 54 -33 82 l-32 33 -638 2 c-550 2 -641 0 -664 -13z"/>
<path d="M18703 6574 c-64 -33 -63 -16 -63 -706 0 -605 1 -624 20 -656 49 -81 184 -65 210 25 8 26 10 227 8 660 l-3 623 -31 31 c-38 38 -94 47 -141 23z"/>
<path d="M20020 6568 c-25 -18 -112 -160 -386 -637 -319 -554 -354 -619 -354 -659 0 -37 6 -50 34 -78 29 -29 41 -34 79 -34 60 0 84 21 147 132 29 51 64 108 77 126 l24 32 435 0 c265 0 442 -4 454 -10 10 -5 46 -59 80 -120 74 -131 104 -160 166 -160 62 0 104 38 111 102 5 47 3 51 -353 669 -377 656 -380 659 -450 659 -17 0 -46 -10 -64 -22z m102 -405 c23 -27 238 -407 238 -421 0 -7 -9 -21 -20 -32 -19 -19 -33 -20 -255 -20 -222 0 -236 1 -255 20 -11 11 -20 27 -20 36 0 16 211 386 238 417 8 9 25 17 37 17 12 0 29 -8 37 -17z"/>
</g>
</svg>