<svg width="100%" height="100%" viewBox="0 0 80 13" fill="none" xmlns="http://www.w3.org/2000/svg">
<path d="M0.791016 12.0779V1.07761H4.46827L9.35555 9.24927L10.0627 8.76212C9.63318 8.03924 9.35555 7.48398 9.22983 7.09635C9.11459 6.69825 9.05173 6.0749 9.04126 5.2263V1.07761H11.4299V12.0779H8.5541L2.84965 2.52336L2.12677 2.97909C2.5144 3.70197 2.78679 4.32008 2.94394 4.83343C3.10108 5.34678 3.17966 6.01204 3.17966 6.8292V12.0779H0.791016Z" fill="white"></path>
<path d="M13.7514 12.0779V1.07761H22.0645V3.05767H16.14V5.44631H20.6187V7.39493H16.14V10.0979H22.0645V12.0779H13.7514Z" fill="white"></path>
<path d="M23.6856 7.7878V1.07761H26.0742V7.41065C26.0742 8.35353 26.289 9.07117 26.7185 9.56357C27.148 10.0455 27.7819 10.2864 28.62 10.2864C30.3172 10.2864 31.1658 9.32785 31.1658 7.41065V1.07761H33.5544V7.7878C33.5544 9.18118 33.0987 10.2864 32.1872 11.1036C31.2758 11.9208 30.0867 12.3294 28.62 12.3294C27.1218 12.3294 25.9223 11.9208 25.0213 11.1036C24.1308 10.2864 23.6856 9.18118 23.6856 7.7878Z" fill="white"></path>
<path d="M38.3674 12.0779V3.05767H34.5959V1.07761H44.5276V3.05767H40.7561V12.0779H38.3674Z" fill="white"></path>
<path d="M45.6959 12.0779V1.07761H51.1332C52.2961 1.07761 53.2128 1.33952 53.8833 1.86334C54.5538 2.38717 54.889 3.08909 54.889 3.96912C54.889 4.692 54.7109 5.23678 54.3547 5.60345C54.0404 5.94918 53.6633 6.1849 53.2233 6.31062C52.7937 6.43633 52.2175 6.51491 51.4946 6.54634V7.3635C52.5213 7.39493 53.2599 7.54684 53.7104 7.81923C54.1609 8.09162 54.4647 8.63116 54.6219 9.43785L55.0776 12.0779H52.5318L52.2018 9.64214C52.1075 9.00308 51.9032 8.55259 51.5889 8.29067C51.2746 8.02876 50.7718 7.89781 50.0803 7.89781H48.0845V12.0779H45.6959ZM48.0845 5.96489H50.6775C51.2118 5.96489 51.6308 5.83917 51.9346 5.58774C52.2489 5.3363 52.4061 4.97486 52.4061 4.50342C52.4061 4.04246 52.2489 3.68625 51.9346 3.43482C51.6308 3.18338 51.2118 3.05767 50.6775 3.05767H48.0845V5.96489Z" fill="white"></path>
<path d="M55.9398 6.6092C55.9398 4.93296 56.4741 3.55006 57.5427 2.4605C58.6218 1.37095 60.0466 0.826172 61.8171 0.826172C63.5877 0.826172 65.0072 1.37095 66.0758 2.4605C67.1549 3.55006 67.6944 4.93296 67.6944 6.6092C67.7154 8.27496 67.1863 9.64738 66.1073 10.7265C65.0282 11.8055 63.5981 12.3398 61.8171 12.3294C60.0361 12.3398 58.6061 11.8055 57.527 10.7265C56.4479 9.64738 55.9189 8.27496 55.9398 6.6092ZM65.1958 6.59348C65.1958 5.4725 64.892 4.56104 64.2843 3.85912C63.6767 3.15719 62.8595 2.80623 61.8328 2.80623C60.7852 2.80623 59.9576 3.15719 59.3499 3.85912C58.7423 4.56104 58.4385 5.4725 58.4385 6.59348C58.4385 7.70399 58.7423 8.61021 59.3499 9.31213C59.9576 10.0036 60.7852 10.3493 61.8328 10.3493C62.8595 10.3493 63.6767 10.0036 64.2843 9.31213C64.892 8.61021 65.1958 7.70399 65.1958 6.59348Z" fill="white"></path>
<path d="M69.3607 12.0779V1.07761H73.0379L77.9252 9.24927L78.6324 8.76212C78.2029 8.03924 77.9252 7.48398 77.7995 7.09635C77.6843 6.69825 77.6214 6.0749 77.6109 5.2263V1.07761H79.9996V12.0779H77.1238L71.4193 2.52336L70.6964 2.97909C71.0841 3.70197 71.3565 4.32008 71.5136 4.83343C71.6708 5.34678 71.7493 6.01204 71.7493 6.8292V12.0779H69.3607Z" fill="white"></path>
</svg>